SplineFontDB: 3.0
FontName: AndesRounded
FullName: Andes Rounded
FamilyName: Andes Rounded
Weight: Regular
Copyright: Copyright (c) 2014 by Daniel Herna'ndez. All rights reserved.
Version: 001.001
ItalicAngle: 0
UnderlinePosition: -100
UnderlineWidth: 50
Ascent: 750
Descent: 250
InvalidEm: 0
sfntRevision: 0x00010000
LayerCount: 2
Layer: 0 0 "Back" 1
Layer: 1 0 "Fore" 0
XUID: [1021 36 1747130881 18931]
StyleMap: 0x0000
FSType: 0
OS2Version: 2
OS2_WeightWidthSlopeOnly: 0
OS2_UseTypoMetrics: 0
CreationTime: 1402052846
ModificationTime: 1506695561
PfmFamily: 17
TTFWeight: 450
TTFWidth: 5
LineGap: 9
VLineGap: 0
Panose: 2 0 0 0 0 0 0 0 0 0
OS2TypoAscent: 750
OS2TypoAOffset: 0
OS2TypoDescent: -250
OS2TypoDOffset: 0
OS2TypoLinegap: 0
OS2WinAscent: 953
OS2WinAOffset: 0
OS2WinDescent: 276
OS2WinDOffset: 0
HheadAscent: 750
HheadAOffset: 0
HheadDescent: -250
HheadDOffset: 0
OS2SubXSize: 700
OS2SubYSize: 650
OS2SubXOff: 0
OS2SubYOff: 140
OS2SupXSize: 700
OS2SupYSize: 650
OS2SupXOff: 0
OS2SupYOff: 477
OS2StrikeYSize: 50
OS2StrikeYPos: 250
OS2CapHeight: 700
OS2XHeight: 482
OS2Vendor: 'pyrs'
OS2CodePages: 20000093.00000000
OS2UnicodeRanges: a000000f.5000205b.00000000.00000000
Lookup: 1 0 0 "'aalt' Access All Alternates in Latin lookup 0" { "'aalt' Access All Alternates in Latin lookup 0 subtable"  } ['aalt' ('latn' <'dflt' > ) ]
Lookup: 1 0 0 "'sups' Superscript in Latin lookup 1" { "'sups' Superscript in Latin lookup 1 subtable" ("superior") } ['sups' ('latn' <'dflt' > ) ]
Lookup: 1 0 0 "'sinf' Scientific Inferiors in Latin lookup 2" { "'sinf' Scientific Inferiors in Latin lookup 2 subtable"  } ['sinf' ('latn' <'dflt' > ) ]
Lookup: 1 0 0 "'numr' Numerators in Latin lookup 3" { "'numr' Numerators in Latin lookup 3 subtable"  } ['numr' ('latn' <'dflt' > ) ]
Lookup: 1 0 0 "'dnom' Denominators in Latin lookup 4" { "'dnom' Denominators in Latin lookup 4 subtable"  } ['dnom' ('latn' <'dflt' > ) ]

StartChar: n
Encoding: 110 110 1
Width: 557
Flags: MW
HStem: -3 21G<456 498.5> 0 21G<94 99 99 158> 414 74<268 325.5> 465 20G<67.5 104>
VStem: 43 129 84 88<16 275> 394 89<103 113 113 299> 394 130<9 299>
LayerCount: 2
Fore
SplineSet
84 16 m 2x6a
 84 370 l 2x66
 84 395 77 412 55 416 c 0
 49 417 43 420 43 435 c 2
 43 469 l 2
 43 480 52 485 83 485 c 0x5a
 125 485 162 458 162 412 c 2
 162 387 l 1
 177 439 223 488 313 488 c 0
 435 488 483 403 483 299 c 2
 483 113 l 2x6a
 483 86 490 71 511 66 c 0
 515 65 524 60 524 48 c 2
 524 15 l 2
 524 3 513 -3 484 -3 c 0xa9
 428 -3 394 29 394 103 c 2
 394 299 l 2
 394 366 362 414 289 414 c 0
 208 414 172 335 172 275 c 2
 172 15 l 2
 172 5 168 0 158 0 c 2
 99 0 l 2
 89 0 84 6 84 16 c 2x6a
EndSplineSet
EndChar

StartChar: h
Encoding: 104 104 2
Width: 544
Flags: MW
HStem: -3 21G<443 485.5> 0 21G<81 86 86 144> 414 74<262.5 310.5> 706 20G<86 144 144 149>
VStem: 71 88<15 16 16 277 397 710> 381 89<103 113 113 299> 381 130<7.5 306>
LayerCount: 2
Fore
SplineSet
71 15 m 2x7c
 71 711 l 2
 71 721 76 726 86 726 c 2
 144 726 l 2
 154 726 159 720 159 710 c 2
 159 397 l 1
 178 447 225 488 300 488 c 0
 422 488 470 403 470 299 c 2
 470 113 l 2x7c
 470 87 477 71 497 66 c 0
 501 65 511 63 511 52 c 2
 511 12 l 2
 511 3 500 -3 471 -3 c 0xba
 415 -3 381 29 381 103 c 2
 381 306 l 2
 381 367 345 414 276 414 c 0
 195 414 159 335 159 277 c 2
 159 16 l 2
 159 6 154 0 144 0 c 2
 86 0 l 2
 76 0 71 5 71 15 c 2x7c
EndSplineSet
EndChar

StartChar: u
Encoding: 117 117 3
Width: 546
Flags: MW
HStem: -6 74<221.5 265.5> -3 21G<437 479.5> 462 20G<82 140 140 145 388 448 448 453>
VStem: 67 88<167 178 178 466> 374 89<199 466> 374 130
LayerCount: 2
Fore
SplineSet
504 47 m 2xb4
 504 13 l 2
 504 4 495 -3 464 -3 c 0x74
 410 -3 384 26 384 77 c 2
 384 81 l 1
 362 36 311 -6 220 -6 c 0
 117 -6 67 55 67 167 c 2
 67 467 l 2
 67 477 72 482 82 482 c 2
 140 482 l 2
 150 482 155 476 155 466 c 2
 155 178 l 2
 155 95 194 68 249 68 c 0
 339 68 374 161 374 199 c 2
 374 467 l 2
 374 477 378 482 388 482 c 2
 448 482 l 2
 458 482 463 476 463 466 c 2
 463 114 l 2xb8
 463 95 466 72 491 66 c 0
 499 64 504 62 504 47 c 2xb4
EndSplineSet
EndChar

StartChar: m
Encoding: 109 109 4
Width: 861
Flags: MW
HStem: -3 69<456 514.5> 0 21G<94 99 99 158> 414 74<268 325.5 568.5 629.5> 465 20G<67.5 104>
VStem: 43 129 84 88<16 275> 394 89<103 113 113 299> 394 130<9 299> 698 89<103 113 113 299> 698 130<9 299>
LayerCount: 2
Fore
SplineSet
787 299 m 2xaa80
 787 113 l 2xaa80
 787 86 795 66 815 66 c 0
 822 66 828 60 828 48 c 2
 828 15 l 2xaa40
 828 3 817 -3 788 -3 c 0
 732 -3 698 29 698 103 c 2
 698 299 l 2
 698 366 666 414 593 414 c 0
 522 414 491 351 483 299 c 1
 483 113 l 2xaa80
 483 86 491 66 511 66 c 0
 518 66 524 60 524 48 c 2
 524 15 l 2
 524 3 513 -3 484 -3 c 0xa980
 428 -3 394 29 394 103 c 2
 394 299 l 2
 394 366 362 414 289 414 c 0
 208 414 172 335 172 275 c 2
 172 15 l 2
 172 5 168 0 158 0 c 2
 99 0 l 2
 89 0 84 6 84 16 c 2
 84 370 l 2x6680
 84 395 77 412 55 416 c 0
 49 417 43 420 43 435 c 2
 43 469 l 2
 43 480 52 485 83 485 c 0x9a80
 125 485 162 458 162 412 c 2
 162 387 l 1
 177 439 223 488 313 488 c 0
 394 488 444 446 467 391 c 1
 492 443 520 488 617 488 c 0
 739 488 787 403 787 299 c 2xaa80
EndSplineSet
EndChar

StartChar: l
Encoding: 108 108 5
Width: 242
Flags: MW
HStem: -3 21G<131 173.5> 705 20G<84 143 143 148>
VStem: 69 89<103 113 113 709> 69 130<8 710>
LayerCount: 2
Fore
SplineSet
199 52 m 2xd0
 199 13 l 2xd0
 199 3 188 -3 159 -3 c 0
 103 -3 69 29 69 103 c 2
 69 710 l 2
 69 720 74 725 84 725 c 2
 143 725 l 2
 153 725 158 719 158 709 c 2
 158 113 l 2xe0
 158 87 164 70 186 66 c 0
 190 65 199 63 199 52 c 2xd0
EndSplineSet
EndChar

StartChar: i
Encoding: 105 105 6
Width: 240
Flags: MW
HStem: -3 21G<130 172.5> 466 20G<83 142 142 147> 579 119<98 132>
VStem: 54 123<621 655> 68 89<103 113 113 470> 68 130<8 471>
LayerCount: 2
Fore
SplineSet
177 638 m 0xf0
 177 604 149 579 115 579 c 0
 81 579 54 604 54 638 c 0
 54 672 81 698 115 698 c 0
 149 698 177 672 177 638 c 0xf0
198 52 m 2xe4
 198 13 l 2xe4
 198 3 187 -3 158 -3 c 0
 102 -3 68 29 68 103 c 2
 68 471 l 2
 68 481 73 486 83 486 c 2
 142 486 l 2
 152 486 157 480 157 470 c 2
 157 113 l 2xe8
 157 87 163 70 185 66 c 0
 189 65 198 63 198 52 c 2xe4
EndSplineSet
EndChar

StartChar: c
Encoding: 99 99 7
Width: 492
Flags: MW
HStem: -6 74<246 306 246 317.5> 286 202<196 387 196 416> 414 74<225.5 293.5>
VStem: 46 87<172.5 303 172.5 323> 361 82<331.5 354>
LayerCount: 2
Fore
SplineSet
46 241 m 0xb8
 46 405 127 488 265 488 c 0
 380 488 443 425 443 340 c 0
 443 323 443 286 416 286 c 2
 387 286 l 2xd8
 369 286 359 290 359 300 c 0
 359 306 361 315 361 325 c 0
 361 383 322 414 265 414 c 0
 186 414 133 364 133 242 c 0
 133 103 216 68 276 68 c 0
 336 68 373 98 390 118 c 0
 398 127 405 133 412 126 c 2
 439 98 l 2
 448 89 448 81 443 74 c 0
 424 49 370 -6 265 -6 c 0
 150 -6 46 65 46 241 c 0xb8
EndSplineSet
EndChar

StartChar: d
Encoding: 100 100 8
Width: 557
Flags: MW
HStem: -6 74<229.5 296.5> -3 21G<454 488.5> 414 74<227 298.5 196.5 309> 706 20G<401 459 459 464>
VStem: 47 87<181 298.5 181 328.5> 386 88<178 317 317 317 418 710> 386 129
LayerCount: 2
Fore
SplineSet
386 178 m 2xba
 386 317 l 2
 385 331 356 414 262 414 c 0
 192 414 134 357 134 240 c 0
 134 122 196 68 263 68 c 0
 366 68 385 174 386 178 c 2xba
515 52 m 2
 515 13 l 2
 515 4 501 -3 476 -3 c 0x7a
 432 -3 395 22 395 69 c 2
 395 81 l 1
 388 68 353 -6 240 -6 c 0
 144 -6 47 67 47 239 c 0
 47 418 144 488 249 488 c 0
 348 488 383 425 386 418 c 2
 386 711 l 2
 386 721 391 726 401 726 c 2
 459 726 l 2
 469 726 474 720 474 710 c 2
 474 118 l 2xbc
 474 87 481 70 502 66 c 0
 506 65 515 63 515 52 c 2
EndSplineSet
EndChar

StartChar: q
Encoding: 113 113 9
Width: 545
Flags: MW
HStem: -244 21G<395 400 400 459> -6 74<230 297> 414 74<225.5 294.5 192.5 308.5> 478 20G<410 459 459 464>
VStem: 47 87<181 298.5 181 328.5> 386 88<-229 -228 -228 75 75 75 179 317 317 317>
LayerCount: 2
Fore
SplineSet
386 179 m 2xec
 386 317 l 2
 385 331 355 414 262 414 c 0
 189 414 134 357 134 240 c 0
 134 122 197 68 263 68 c 0
 365 68 385 175 386 179 c 2xec
410 498 m 2xdc
 459 498 l 2xdc
 469 498 474 492 474 482 c 2
 474 -228 l 2
 474 -238 469 -244 459 -244 c 2
 400 -244 l 2
 390 -244 386 -239 386 -229 c 2
 386 75 l 2
 385 74 353 -6 241 -6 c 0
 145 -6 47 67 47 239 c 0
 47 418 140 488 245 488 c 0xec
 344 488 386 421 396 412 c 1
 396 483 l 2
 396 493 400 498 410 498 c 2xdc
EndSplineSet
EndChar

StartChar: b
Encoding: 98 98 10
Width: 545
Flags: MW
HStem: -6 74<248.5 319 233.5 351.5> 0 21G<81 86 86 134> 414 74<249.5 314> 706 20G<86 144 144 149>
VStem: 71 88<164 171 171 308 406 710> 410 88<183.5 304.5>
LayerCount: 2
Fore
SplineSet
134 0 m 2x7c
 86 0 l 2x7c
 76 0 71 5 71 15 c 2
 71 711 l 2
 71 721 76 726 86 726 c 2
 144 726 l 2
 154 726 159 720 159 710 c 2
 159 406 l 2
 160 407 195 488 304 488 c 0
 403 488 498 417 498 244 c 0
 498 64 404 -6 299 -6 c 0xbc
 198 -6 158 63 149 72 c 1
 149 15 l 2
 149 5 144 0 134 0 c 2x7c
159 308 m 1
 159 171 l 2
 159 157 185 68 282 68 c 0xbc
 356 68 410 124 410 243 c 0
 410 366 347 414 281 414 c 0
 183 414 159 308 159 308 c 1
EndSplineSet
EndChar

StartChar: p
Encoding: 112 112 11
Width: 558
Flags: MW
HStem: -244 21G<94 99 99 158> -6 74<260 332 247 364.5> 414 74<262 327> 465 20G<67.5 104>
VStem: 43 129 84 88<-228 66 169 308> 424 87<183.5 304.5>
LayerCount: 2
Fore
SplineSet
172 308 m 1xea
 172 169 l 2
 173 155 199 68 295 68 c 0
 369 68 424 124 424 243 c 0
 424 366 360 414 294 414 c 0
 196 414 172 308 172 308 c 1xea
43 434 m 2
 43 469 l 2
 43 479 52 485 83 485 c 0xda
 125 485 163 460 163 414 c 2
 163 401 l 1
 170 415 207 488 317 488 c 0
 416 488 511 417 511 244 c 0
 511 64 417 -6 312 -6 c 0
 208 -6 172 66 172 66 c 1
 172 -229 l 2
 172 -239 168 -244 158 -244 c 2
 99 -244 l 2
 89 -244 84 -238 84 -228 c 2
 84 370 l 2xe6
 84 388 80 411 56 416 c 0
 52 417 43 419 43 434 c 2
EndSplineSet
EndChar

StartChar: e
Encoding: 101 101 12
Width: 497
Flags: MW
HStem: -6 74<248.5 306 248.5 319.5> 236 61<138 364 138 429 136 364> 414 74<226.5 296.5>
VStem: 47 89<228 236 228 323> 364 84<297 329.5 248 330>
LayerCount: 2
Fore
SplineSet
429 236 m 2
 136 236 l 1
 136 228 l 1
 141 100 220 68 277 68 c 0
 335 68 371 98 389 118 c 0
 398 128 403 134 410 127 c 2
 441 96 l 2
 448 89 449 82 444 75 c 0
 426 51 373 -6 266 -6 c 0
 151 -6 47 65 47 241 c 0
 47 405 125 488 263 488 c 0
 395 488 448 406 448 253 c 0
 448 243 444 236 429 236 c 2
138 297 m 1
 364 297 l 1
 364 363 335 414 258 414 c 0
 195 414 148 379 138 297 c 1
EndSplineSet
Substitution2: "'salt' Stylistic Alternatives in Latin lookup 5 subtable" e.alt
EndChar

StartChar: o
Encoding: 111 111 13
Width: 523
Flags: MW
HStem: -6 74<223 299.5 223 327> 414 74<223.5 299>
VStem: 47 87<183.5 298.5 183.5 318.5> 388 88<183.5 298.5>
LayerCount: 2
Fore
SplineSet
261 -6 m 0
 130 -6 47 86 47 241 c 0
 47 396 130 488 261 488 c 0
 392 488 476 396 476 241 c 0
 476 87 393 -6 261 -6 c 0
261 68 m 0
 338 68 388 126 388 241 c 0
 388 356 337 414 261 414 c 0
 186 414 134 356 134 241 c 0
 134 126 185 68 261 68 c 0
EndSplineSet
Substitution2: "'ordn' Ordinals in Latin lookup 6 subtable" ordmasculine
Substitution2: "'aalt' Access All Alternates in Latin lookup 0 subtable" ordmasculine
EndChar

StartChar: r
Encoding: 114 114 14
Width: 390
Flags: MW
HStem: 0 21G<94 99 99 158> 407 81<265.5 297> 465 20G<68 101.5>
VStem: 43 129 84 88<15 16 16 275>
LayerCount: 2
Fore
SplineSet
84 15 m 2xd0
 84 368 l 2xc8
 84 395 77 412 54 416 c 0
 51 417 43 419 43 429 c 2
 43 468 l 2
 43 479 55 485 81 485 c 0xb0
 122 485 161 464 161 409 c 2
 161 385 l 1
 176 437 220 488 311 488 c 0
 336 488 354 483 365 479 c 0
 373 476 376 472 372 463 c 2
 347 408 l 2
 343 400 338 397 331 400 c 0
 322 403 307 407 287 407 c 0
 208 407 173 331 172 275 c 2
 172 16 l 2
 172 6 168 0 158 0 c 2
 99 0 l 2
 89 0 84 5 84 15 c 2xd0
EndSplineSet
EndChar

StartChar: f
Encoding: 102 102 15
Width: 382
Flags: MW
HStem: 0 21G<111 116 116 174> 411 71<40.5 101 46 101 46 101 189 345 345 346> 655 74<248 294>
VStem: 101 88<15 16 16 411 482 549>
LayerCount: 2
Fore
SplineSet
101 411 m 1
 45 411 l 2
 36 411 31 416 31 426 c 2
 31 466 l 2
 31 476 36 482 46 482 c 2
 101 482 l 1
 101 553 l 2
 101 657 154 729 267 729 c 0
 326 729 363 707 379 694 c 0
 386 689 387 682 383 673 c 2
 364 634 l 2
 359 624 354 625 348 630 c 0
 336 640 313 655 275 655 c 0
 221 655 189 616 189 549 c 2
 189 482 l 1
 345 482 l 2
 355 482 360 476 360 466 c 2
 360 426 l 2
 360 416 355 411 346 411 c 2
 189 411 l 1
 189 16 l 2
 189 6 184 0 174 0 c 2
 116 0 l 2
 106 0 101 5 101 15 c 2
 101 411 l 1
EndSplineSet
EndChar

StartChar: j
Encoding: 106 106 17
Width: 231
Flags: MW
HStem: -247 74<-24 15.5 -24 53> 462 20G<86 145 145 150> 585 113<98.5 131.5>
VStem: 56 118<624.5 657.5> 71 89<-59 466>
LayerCount: 2
Fore
SplineSet
174 641 m 0xf0
 174 608 148 585 115 585 c 0
 82 585 56 608 56 641 c 0
 56 674 82 698 115 698 c 0
 148 698 174 674 174 641 c 0xf0
160 466 m 2xe8
 160 -63 l 2
 160 -177 110 -247 -4 -247 c 0
 -44 -247 -70 -235 -84 -227 c 0
 -91 -223 -95 -217 -90 -207 c 2
 -74 -172 l 2
 -69 -161 -65 -160 -59 -163 c 0
 -50 -167 -35 -173 -13 -173 c 0
 44 -173 71 -135 71 -59 c 2
 71 467 l 2
 71 477 76 482 86 482 c 2
 145 482 l 2
 155 482 160 476 160 466 c 2xe8
EndSplineSet
EndChar

StartChar: t
Encoding: 116 116 18
Width: 418
Flags: MW
HStem: -6 75<255 305.5 255 307> 411 71<43 107 48 107 196 363> 612 20G<122 181 181 186>
VStem: 107 89<180 183 183 411 482 616>
LayerCount: 2
Fore
SplineSet
196 482 m 1
 363 482 l 2
 373 482 379 477 379 467 c 2
 379 427 l 2
 379 417 373 411 363 411 c 2
 196 411 l 1
 196 183 l 2
 196 107 223 69 287 69 c 0
 324 69 351 86 364 97 c 0
 371 102 376 102 379 95 c 2
 398 54 l 2
 401 48 400 43 394 38 c 0
 377 23 336 -6 278 -6 c 0
 156 -6 107 59 107 180 c 2
 107 411 l 1
 48 411 l 2
 38 411 32 417 32 427 c 2
 32 467 l 2
 32 477 38 482 48 482 c 2
 107 482 l 1
 107 617 l 2
 107 627 112 632 122 632 c 2
 181 632 l 2
 191 632 196 626 196 616 c 2
 196 482 l 1
EndSplineSet
EndChar

StartChar: k
Encoding: 107 107 19
Width: 542
Flags: MW
HStem: -3 68<460.5 497.5> 0 21G<81 86 86 143> 232 63<158 231 158 231> 232 250<158 447 158 447> 706 20G<86 143 143 148>
VStem: 71 87<15 232 295 711> 380 82<433.5 471 420 472>
LayerCount: 2
Fore
SplineSet
522 50 m 2x9e
 522 14 l 2
 522 5 510 -3 485 -3 c 0xae
 326 -3 388 232 231 232 c 2
 158 232 l 1
 158 15 l 2
 158 5 153 0 143 0 c 2
 86 0 l 2
 76 0 71 5 71 15 c 2
 71 711 l 2
 71 721 76 726 86 726 c 2
 143 726 l 2
 153 726 158 721 158 711 c 2
 158 295 l 1
 231 295 l 2x6e
 339 295 380 400 380 467 c 0
 380 477 385 482 395 482 c 2
 447 482 l 2
 457 482 462 476 462 466 c 0
 462 374 419 294 336 266 c 1
 439 223 409 65 512 65 c 0
 519 65 522 61 522 50 c 2x9e
EndSplineSet
EndChar

StartChar: s
Encoding: 115 115 20
Width: 475
Flags: MW
HStem: -6 74<197 272 197 304.5> 308 180<172.5 359 172.5 402> 414 74<208 280.5>
VStem: 53 87<282.5 365 282.5 379> 342 87<111.5 183.5>
LayerCount: 2
Fore
SplineSet
402 308 m 2xb8
 359 308 l 2xd8
 344 308 344 312 345 319 c 0
 346 326 347 335 347 346 c 0
 347 383 319 414 242 414 c 0
 174 414 140 387 140 343 c 0
 140 222 429 321 429 135 c 0
 429 49 368 -6 241 -6 c 0
 112 -6 55 55 38 80 c 0
 34 86 33 91 39 98 c 2
 76 138 l 2
 82 145 88 141 91 138 c 0
 112 113 157 68 237 68 c 0
 307 68 342 92 342 131 c 0
 342 236 53 149 53 341 c 0
 53 417 104 488 241 488 c 0
 384 488 428 419 428 353 c 0
 428 338 426 326 421 318 c 0
 417 311 410 308 402 308 c 2xb8
EndSplineSet
EndChar

StartChar: v
Encoding: 118 118 21
Width: 516
Flags: MW
HStem: 0 21G<217 221 221 295> 462 20G<50 112 112 117 410 467 467 472>
LayerCount: 2
Fore
SplineSet
295 0 m 2
 221 0 l 2
 213 0 208 6 204 16 c 2
 34 464 l 2
 30 474 40 482 50 482 c 2
 112 482 l 2
 122 482 127 479 130 470 c 2
 259 101 l 1
 392 470 l 2
 395 479 400 482 410 482 c 2
 467 482 l 2
 477 482 486 474 482 464 c 2
 312 16 l 2
 308 6 303 0 295 0 c 2
EndSplineSet
EndChar

StartChar: w
Encoding: 119 119 22
Width: 770
Flags: MW
HStem: 0 21G<194 198 198 270 497 501 501 574> 462 20G<50 112 112 117 661 719 719 724>
LayerCount: 2
Fore
SplineSet
574 0 m 2
 501 0 l 2
 493 0 487 6 484 16 c 2
 389 336 l 1
 287 16 l 2
 283 6 278 0 270 0 c 2
 198 0 l 2
 190 0 184 6 181 16 c 2
 35 464 l 2
 32 474 40 482 50 482 c 2
 112 482 l 2
 122 482 126 478 129 469 c 2
 235 100 l 1
 346 461 l 2
 349 471 355 477 363 477 c 2
 420 477 l 2
 428 477 434 470 437 460 c 2
 538 100 l 1
 643 470 l 2
 646 479 651 482 661 482 c 2
 719 482 l 2
 729 482 738 474 734 464 c 2
 591 16 l 2
 588 6 582 0 574 0 c 2
EndSplineSet
EndChar

StartChar: y
Encoding: 121 121 23
Width: 514
Flags: MW
HStem: -247 76<85 117.5 84 142.5> 462 20G<46 106 106 110 408 466 466 471.5>
LayerCount: 2
Fore
SplineSet
480 464 m 2
 257 -122 l 2
 230 -192 186 -247 99 -247 c 0
 71 -247 50 -241 38 -237 c 0
 30 -234 26 -228 28 -220 c 2
 36 -174 l 2
 38 -165 42 -163 49 -165 c 0
 59 -168 75 -171 93 -171 c 0
 142 -171 163 -139 179 -97 c 2
 214 -3 l 1
 32 464 l 2
 27 476 35 482 46 482 c 2
 106 482 l 2
 114 482 122 477 125 469 c 2
 260 104 l 1
 389 470 l 2
 392 478 400 482 408 482 c 2
 466 482 l 2
 477 482 485 476 480 464 c 2
EndSplineSet
Substitution2: "'salt' Stylistic Alternatives in Latin lookup 5 subtable" y.alt
EndChar

StartChar: z
Encoding: 122 122 24
Width: 467
Flags: MW
HStem: 0 71<149 407> 411 71<54 408 60 322>
LayerCount: 2
Fore
SplineSet
407 0 m 2
 59 0 l 2
 49 0 44 5 44 15 c 2
 44 49 l 2
 44 64 51 79 61 92 c 2
 322 411 l 1
 59 411 l 2
 49 411 44 416 44 426 c 2
 44 467 l 2
 44 477 50 482 60 482 c 2
 408 482 l 2
 418 482 423 477 423 467 c 2
 423 432 l 2
 423 416 417 404 405 389 c 2
 149 71 l 1
 408 71 l 2
 418 71 423 66 423 56 c 2
 423 15 l 2
 423 4 417 0 407 0 c 2
EndSplineSet
Substitution2: "'salt' Stylistic Alternatives in Latin lookup 5 subtable" z.alt
EndChar

StartChar: x
Encoding: 120 120 25
Width: 501
Flags: MW
HStem: 0 21G<43.5 49 49 113 384 389 389 451> 462 20G<50 118 118 122 389 451 451 456.5>
LayerCount: 2
Fore
SplineSet
451 0 m 2
 389 0 l 2
 379 0 375 5 371 10 c 2
 250 187 l 1
 130 12 l 2
 125 4 120 0 113 0 c 2
 49 0 l 2
 38 0 29 7 36 17 c 2
 196 244 l 1
 36 465 l 2
 29 475 39 482 50 482 c 2
 118 482 l 2
 126 482 131 478 136 470 c 2
 250 300 l 1
 372 471 l 2
 378 479 381 482 389 482 c 2
 451 482 l 2
 462 482 472 476 466 467 c 2
 305 243 l 1
 466 15 l 2
 472 6 462 0 451 0 c 2
EndSplineSet
EndChar

StartChar: g
Encoding: 103 103 26
Width: 520
Flags: MW
HStem: -247 74<207 313.5 207 349> -10 64<177.5 311 206 311 311 314> 124 74<241.5 295.5 226.5 316.5> 142 56<166 295.5> 414 60 414 74<227.5 280.5 205.5 296>
VStem: 30 87<-119.5 -66 -119.5 -59> 57 60 57 74 57 87<273 339 273 362.5> 381 86<273 338.5> 410 87<-117 -62>
LayerCount: 2
Fore
SplineSet
314 -10 m 2xe910
 205 -10 l 2
 150 -10 117 -39 117 -93 c 0
 117 -146 156 -173 258 -173 c 0
 369 -173 410 -146 410 -88 c 0
 410 -36 375 -10 314 -10 c 2xe910
381 306 m 0xd860
 381 371 330 414 262 414 c 0
 193 414 144 372 144 306 c 0
 144 240 192 198 261 198 c 0
 330 198 381 240 381 306 c 0xd860
206 54 m 2
 311 54 l 2
 416 54 497 8 497 -89 c 0
 497 -177 435 -247 263 -247 c 0
 102 -247 30 -192 30 -98 c 0xea10
 30 -20 89 8 107 18 c 1
 94 27 51 45 51 95 c 0
 51 142 80 168 117 178 c 1
 102 192 57 233 57 306 c 0
 57 419 150 488 261 488 c 0xe520
 300 488 328 475 335 474 c 0
 416 468 434 524 440 552 c 0
 443 564 447 567 458 565 c 2
 496 559 l 2
 510 557 512 546 512 542 c 0
 505 456 435 439 405 436 c 1
 430 416 467 374 467 306 c 0
 467 191 371 124 262 124 c 0xea20
 221 124 190 138 180 142 c 1
 152 142 131 129 131 99 c 0xd8a0
 131 63 162 54 206 54 c 2
EndSplineSet
Substitution2: "'salt' Stylistic Alternatives in Latin lookup 5 subtable" g.alt
EndChar

StartChar: A
Encoding: 65 65 27
Width: 651
Flags: MW
HStem: 0 21G<39 44 44 103 543 548 548 607> 194 75<214 437 214 464 186 437> 680 20G<292 359 359 363>
LayerCount: 2
Fore
SplineSet
530 14 m 2
 464 194 l 1
 186 194 l 1
 121 14 l 2
 118 5 113 0 103 0 c 2
 44 0 l 2
 34 0 24 6 28 16 c 2
 274 684 l 2
 278 694 284 700 292 700 c 2
 359 700 l 2
 367 700 373 694 377 684 c 2
 623 16 l 2
 627 6 617 0 607 0 c 2
 548 0 l 2
 538 0 533 5 530 14 c 2
325 575 m 1
 214 269 l 1
 437 269 l 1
 325 575 l 1
EndSplineSet
EndChar

StartChar: B
Encoding: 66 66 28
Width: 633
Flags: MW
HStem: 0 77<96 337 177 337 337 339> 326 39 326 68<177 330 330 338 177 330> 623 77<177 306 177 177>
VStem: 86 91<77 77 77 326 394 623> 448 94<476 544> 497 45 497 93<151 246.5>
LayerCount: 2
Fore
SplineSet
339 0 m 2xd9
 101 0 l 2
 91 0 86 5 86 15 c 2
 86 685 l 2
 86 695 91 700 101 700 c 2
 318 700 l 2
 461 700 542 644 542 519 c 0xda
 542 390 469 367 438 367 c 1
 438 365 l 1
 483 365 590 329 590 191 c 0
 590 47 469 0 339 0 c 2xd9
177 77 m 1
 337 77 l 2
 417 77 497 101 497 201 c 0
 497 292 428 326 338 326 c 2
 177 326 l 1
 177 77 l 1
177 394 m 1xbc
 330 394 l 2
 421 394 448 443 448 509 c 0
 448 579 405 623 306 623 c 2
 177 623 l 1
 177 394 l 1xbc
EndSplineSet
EndChar

StartChar: C
Encoding: 67 67 29
Width: 641
Flags: MW
HStem: -6 79<311.5 412 311.5 432> 627 79<294 414>
VStem: 52 93<246 448 246 470.5>
LayerCount: 2
Fore
SplineSet
560 166 m 2
 596 128 l 2
 603 121 602 114 597 107 c 0
 574 76 500 -6 364 -6 c 0
 185 -6 52 102 52 348 c 0
 52 593 175 706 349 706 c 0
 550 706 591 552 598 499 c 0
 599 491 598 483 583 480 c 2
 531 471 l 2
 517 468 514 473 513 482 c 0
 507 521 478 627 350 627 c 0
 238 627 145 548 145 348 c 0
 145 144 255 73 368 73 c 0
 456 73 514 131 538 160 c 0
 546 170 552 174 560 166 c 2
EndSplineSet
EndChar

StartChar: D
Encoding: 68 68 30
Width: 663
Flags: MW
HStem: 0 77<96 304 177 304 304 305> 623 77<177 270 177 177>
VStem: 86 91<77 77 77 623> 518 93<253 436.5>
LayerCount: 2
Fore
SplineSet
305 0 m 2
 101 0 l 2
 91 0 86 5 86 15 c 2
 86 685 l 2
 86 695 91 700 101 700 c 2
 271 700 l 2
 456 700 611 597 611 341 c 0
 611 99 479 0 305 0 c 2
177 77 m 1
 304 77 l 2
 432 77 518 164 518 342 c 0
 518 531 423 623 270 623 c 2
 177 623 l 1
 177 77 l 1
EndSplineSet
EndChar

StartChar: E
Encoding: 69 69 31
Width: 552
Flags: MW
HStem: 0 77<96 490 177 489> 309 77<177 434 177 435> 623 77<177 489 177 177>
VStem: 86 91<77 309 386 623>
LayerCount: 2
Fore
SplineSet
489 0 m 2
 101 0 l 2
 91 0 86 5 86 15 c 2
 86 685 l 2
 86 695 91 700 101 700 c 2
 490 700 l 2
 500 700 505 695 505 685 c 2
 505 638 l 2
 505 628 499 623 489 623 c 2
 177 623 l 1
 177 386 l 1
 435 386 l 2
 445 386 450 381 450 371 c 2
 450 324 l 2
 450 314 444 309 434 309 c 2
 177 309 l 1
 177 77 l 1
 490 77 l 2
 500 77 505 72 505 62 c 2
 505 15 l 2
 505 5 499 0 489 0 c 2
EndSplineSet
EndChar

StartChar: F
Encoding: 70 70 32
Width: 533
Flags: MW
HStem: 0 21G<96 101 101 162> 306 77<177 435 177 434> 623 77<177 489 177 177>
VStem: 86 91<15 306 383 623>
LayerCount: 2
Fore
SplineSet
177 306 m 1
 177 15 l 2
 177 5 172 0 162 0 c 2
 101 0 l 2
 91 0 86 5 86 15 c 2
 86 685 l 2
 86 695 91 700 101 700 c 2
 490 700 l 2
 500 700 505 695 505 685 c 2
 505 638 l 2
 505 628 499 623 489 623 c 2
 177 623 l 1
 177 383 l 1
 435 383 l 2
 445 383 450 378 450 368 c 2
 450 321 l 2
 450 311 444 306 434 306 c 2
 177 306 l 1
EndSplineSet
EndChar

StartChar: G
Encoding: 71 71 33
Width: 657
Flags: MW
HStem: -6 79<302 410 302 438.5> 282 71<352 590 358 516> 627 79<294 415.5>
VStem: 52 93<246.5 448 246.5 470.5> 516 89<252 282 282 282>
LayerCount: 2
Fore
SplineSet
605 338 m 2
 605 252 l 2
 605 110 527 -6 350 -6 c 0
 185 -6 52 102 52 348 c 0
 52 593 175 706 349 706 c 0
 549 706 591 550 598 501 c 0
 599 495 597 488 581 485 c 2
 529 476 l 2
 516 473 514 478 513 485 c 0
 508 521 481 627 350 627 c 0
 238 627 145 548 145 348 c 0
 145 145 252 73 352 73 c 0
 468 73 516 146 516 252 c 2
 516 282 l 1
 357 282 l 2
 347 282 342 287 342 297 c 2
 342 338 l 2
 342 348 348 353 358 353 c 2
 590 353 l 2
 600 353 605 348 605 338 c 2
EndSplineSet
EndChar

StartChar: H
Encoding: 72 72 34
Width: 684
Flags: MW
HStem: 0 21G<96 101 101 162 517 522 522 583> 302 77<177 507 177 507> 680 20G<101 162 162 167 522 583 583 588>
VStem: 86 91<15 302 379 685> 507 91<15 302 302 302 379 685>
LayerCount: 2
Fore
SplineSet
598 685 m 2
 598 15 l 2
 598 5 593 0 583 0 c 2
 522 0 l 2
 512 0 507 5 507 15 c 2
 507 302 l 1
 177 302 l 1
 177 15 l 2
 177 5 172 0 162 0 c 2
 101 0 l 2
 91 0 86 5 86 15 c 2
 86 685 l 2
 86 695 91 700 101 700 c 2
 162 700 l 2
 172 700 177 695 177 685 c 2
 177 379 l 1
 507 379 l 1
 507 685 l 2
 507 695 512 700 522 700 c 2
 583 700 l 2
 593 700 598 695 598 685 c 2
EndSplineSet
EndChar

StartChar: I
Encoding: 73 73 35
Width: 263
Flags: MW
HStem: 0 21G<96 101 101 162> 680 20G<101 162 162 167>
VStem: 86 91<15 685>
LayerCount: 2
Fore
SplineSet
177 685 m 2
 177 15 l 2
 177 5 172 0 162 0 c 2
 101 0 l 2
 91 0 86 5 86 15 c 2
 86 685 l 2
 86 695 91 700 101 700 c 2
 162 700 l 2
 172 700 177 695 177 685 c 2
EndSplineSet
EndChar

StartChar: J
Encoding: 74 74 36
Width: 465
Flags: MW
HStem: -6 78<149.5 212 149.5 233> 680 20G<308 369 369 374>
VStem: 293 91<208 214 214 685>
LayerCount: 2
Fore
SplineSet
293 208 m 2
 293 685 l 2
 293 695 298 700 308 700 c 2
 369 700 l 2
 379 700 384 695 384 685 c 2
 384 214 l 2
 384 64 291 -6 175 -6 c 0
 87 -6 33 36 12 56 c 0
 6 62 5 68 11 75 c 2
 50 117 l 2
 56 124 62 127 71 118 c 0
 87 102 124 72 175 72 c 0
 249 72 293 116 293 208 c 2
EndSplineSet
EndChar

StartChar: P
Encoding: 80 80 37
Width: 596
Flags: MW
HStem: 0 21G<96 101 101 162> 253 76<177 305 305 320 177 305> 623 77<177 302 177 177>
VStem: 86 91<15 253 329 623> 470 93<426.5 518>
LayerCount: 2
Fore
SplineSet
162 0 m 2
 101 0 l 2
 91 0 86 5 86 15 c 2
 86 685 l 2
 86 695 91 700 101 700 c 2
 309 700 l 2
 467 700 563 625 563 473 c 0
 563 322 462 253 320 253 c 2
 177 253 l 1
 177 15 l 2
 177 5 172 0 162 0 c 2
177 329 m 1
 305 329 l 2
 415 329 470 380 470 473 c 0
 470 563 416 623 302 623 c 2
 177 623 l 1
 177 329 l 1
EndSplineSet
EndChar

StartChar: L
Encoding: 76 76 38
Width: 528
Flags: MW
HStem: 0 77<96 501 177 500> 680 20G<101 162 162 167>
VStem: 86 91<77 685 77 685 77 690>
LayerCount: 2
Fore
SplineSet
177 685 m 2
 177 77 l 1
 501 77 l 2
 511 77 516 72 516 62 c 2
 516 15 l 2
 516 5 510 0 500 0 c 2
 101 0 l 2
 91 0 86 5 86 15 c 2
 86 685 l 2
 86 695 91 700 101 700 c 2
 162 700 l 2
 172 700 177 695 177 685 c 2
EndSplineSet
EndChar

StartChar: R
Encoding: 82 82 39
Width: 669
Flags: MW
HStem: -3 70<508 641> 0 21G<96 101 101 162> 284 71<177 294 177 302> 623 77<177 311 177 177>
VStem: 86 91<15 284 355 623> 466 93<444 528.5>
LayerCount: 2
Fore
SplineSet
656 52 m 2xbc
 656 18 l 2
 656 11 651 6 641 2 c 0
 632 -1 619 -3 602 -3 c 0xbc
 414 -3 448 284 294 284 c 2
 177 284 l 1
 177 15 l 2
 177 5 172 0 162 0 c 2
 101 0 l 2x7c
 91 0 86 5 86 15 c 2
 86 684 l 2
 86 694 91 700 101 700 c 2
 315 700 l 2
 469 700 559 638 559 490 c 0
 559 387 494 329 425 310 c 1
 513 261 526 71 626 67 c 1
 641 67 l 2
 651 67 656 62 656 52 c 2xbc
177 355 m 1
 302 355 l 2
 395 355 466 401 466 487 c 0
 466 570 411 623 311 623 c 2
 177 623 l 1
 177 355 l 1
EndSplineSet
EndChar

StartChar: K
Encoding: 75 75 40
Width: 666
Flags: MW
HStem: -3 70<509.5 642> 0 21G<96 101 101 162> 302 75<177 287 287 295 177 287> 680 20G<101 162 162 167 499 559 559 564>
VStem: 86 91<15 302 377 685> 484 90<685 689 576 690>
LayerCount: 2
Fore
SplineSet
177 377 m 1x7c
 287 377 l 2
 379 377 474 449 484 685 c 0
 484 695 489 700 499 700 c 2
 559 700 l 2
 569 700 574 694 574 684 c 0
 574 468 479 373 411 342 c 1
 519 290 526 67 629 67 c 2
 642 67 l 2xbc
 652 67 657 62 657 52 c 2
 657 15 l 2
 657 8 652 3 643 0 c 0x7c
 634 -2 624 -3 602 -3 c 0xbc
 417 -3 446 302 295 302 c 2
 177 302 l 1
 177 15 l 2
 177 5 172 0 162 0 c 2
 101 0 l 2
 91 0 86 5 86 15 c 2
 86 685 l 2
 86 695 91 700 101 700 c 2
 162 700 l 2
 172 700 177 695 177 685 c 2
 177 377 l 1x7c
EndSplineSet
EndChar

StartChar: O
Encoding: 79 79 41
Width: 705
Flags: MW
HStem: -6 79<299 407 299 432.5> 627 79<299 406.5>
VStem: 52 94<248 452 248 474.5> 560 93<248 452>
LayerCount: 2
Fore
SplineSet
353 -6 m 0
 194 -6 52 98 52 349 c 0
 52 600 193 706 353 706 c 0
 512 706 653 600 653 349 c 0
 653 98 512 -6 353 -6 c 0
353 73 m 0
 461 73 560 147 560 349 c 0
 560 555 460 627 353 627 c 0
 245 627 146 555 146 349 c 0
 146 147 245 73 353 73 c 0
EndSplineSet
EndChar

StartChar: Q
Encoding: 81 81 42
Width: 705
Flags: MW
HStem: -226 81<555 557.5> 627 79<299 406.5>
VStem: 52 94<248 452 248 474.5> 560 93<248 452>
LayerCount: 2
Fore
SplineSet
571 -160 m 2
 571 -210 l 2
 571 -224 560 -226 555 -226 c 0
 405 -219 326 -115 305 -3 c 1
 167 16 52 123 52 349 c 0
 52 600 193 706 353 706 c 0
 512 706 653 600 653 349 c 0
 653 116 532 10 388 -4 c 1
 411 -91 473 -139 555 -145 c 0
 560 -145 571 -146 571 -160 c 2
353 73 m 0
 461 73 560 147 560 349 c 0
 560 555 460 627 353 627 c 0
 245 627 146 555 146 349 c 0
 146 147 245 73 353 73 c 0
EndSplineSet
EndChar

StartChar: M
Encoding: 77 77 43
Width: 822
Flags: MW
HStem: 0 21G<96 101 101 162 655 660 660 721> 680 20G<101 165 165 171 662 721 721 726>
VStem: 86 91<15 518> 645 91<15 518 518 518>
LayerCount: 2
Fore
SplineSet
86 15 m 2
 86 685 l 2
 86 695 91 700 101 700 c 2
 165 700 l 2
 177 700 187 692 191 683 c 2
 412 214 l 1
 414 214 l 1
 636 683 l 2
 640 692 650 700 662 700 c 2
 721 700 l 2
 731 700 736 695 736 685 c 2
 736 15 l 2
 736 5 731 0 721 0 c 2
 660 0 l 2
 650 0 645 5 645 15 c 2
 645 518 l 1
 456 120 l 2
 447 100 431 94 412 94 c 0
 391 94 375 101 366 120 c 2
 177 518 l 1
 177 15 l 2
 177 5 172 0 162 0 c 2
 101 0 l 2
 91 0 86 5 86 15 c 2
EndSplineSet
EndChar

StartChar: N
Encoding: 78 78 44
Width: 681
Flags: MW
HStem: 0 21G<96 101 101 162 503 509 509 580> 680 20G<101 172 172 178 519 580 580 585>
VStem: 86 91<15 541> 504 91<146 685>
LayerCount: 2
Fore
SplineSet
580 0 m 2
 509 0 l 2
 497 0 488 8 483 17 c 2
 177 541 l 1
 177 15 l 2
 177 5 172 0 162 0 c 2
 101 0 l 2
 91 0 86 5 86 15 c 2
 86 685 l 2
 86 695 91 700 101 700 c 2
 172 700 l 2
 184 700 193 692 198 683 c 2
 504 146 l 1
 504 685 l 2
 504 695 509 700 519 700 c 2
 580 700 l 2
 590 700 595 695 595 685 c 2
 595 15 l 2
 595 5 590 0 580 0 c 2
EndSplineSet
EndChar

StartChar: U
Encoding: 85 85 45
Width: 673
Flags: MW
HStem: -6 79<283 391 283 409.5> 680 20G<94 155 155 160 518 579 579 584>
VStem: 79 91<287 685> 503 91<281 287 287 685>
LayerCount: 2
Fore
SplineSet
503 281 m 2
 503 685 l 2
 503 695 508 700 518 700 c 2
 579 700 l 2
 589 700 594 695 594 685 c 2
 594 287 l 2
 594 64 482 -6 337 -6 c 0
 192 -6 79 64 79 287 c 2
 79 685 l 2
 79 695 84 700 94 700 c 2
 155 700 l 2
 165 700 170 695 170 685 c 2
 170 281 l 2
 170 139 229 73 337 73 c 0
 445 73 503 139 503 281 c 2
EndSplineSet
EndChar

StartChar: T
Encoding: 84 84 46
Width: 609
Flags: MW
HStem: 0 21G<272 277 277 337> 623 77<25 579 31 262 352 578 352 352>
VStem: 262 90<15 623>
LayerCount: 2
Fore
SplineSet
31 700 m 2
 579 700 l 2
 589 700 594 695 594 685 c 2
 594 638 l 2
 594 628 588 623 578 623 c 2
 352 623 l 1
 352 15 l 2
 352 5 347 0 337 0 c 2
 277 0 l 2
 267 0 262 5 262 15 c 2
 262 623 l 1
 30 623 l 2
 20 623 15 628 15 638 c 2
 15 685 l 2
 15 695 21 700 31 700 c 2
EndSplineSet
EndChar

StartChar: V
Encoding: 86 86 47
Width: 649
Flags: MW
HStem: 0 21G<286 290 290 359> 680 20G<43 116 116 121 538 606 606 611>
LayerCount: 2
Fore
SplineSet
324 110 m 1
 520 688 l 2
 523 697 528 700 538 700 c 2
 606 700 l 2
 616 700 626 694 622 684 c 2
 376 16 l 2
 372 6 367 0 359 0 c 2
 290 0 l 2
 282 0 277 6 273 16 c 2
 27 684 l 2
 23 694 33 700 43 700 c 2
 116 700 l 2
 126 700 131 697 134 688 c 2
 324 110 l 1
EndSplineSet
EndChar

StartChar: W
Encoding: 87 87 48
Width: 986
Flags: MW
HStem: 0 21G<243.5 248 248 317 666.5 671 671 740> 680 20G<51 124 124 129 468 520 520 524.5 862 935 935 940>
LayerCount: 2
Fore
SplineSet
540 683 m 2
 705 110 l 1
 844 688 l 2
 846 697 852 700 862 700 c 2
 935 700 l 2
 945 700 954 693 951 683 c 2
 760 17 l 2
 757 7 749 0 740 0 c 2
 671 0 l 2
 662 0 652 7 649 17 c 2
 493 555 l 1
 337 17 l 2
 334 7 326 0 317 0 c 2
 248 0 l 2
 239 0 229 7 226 17 c 2
 35 682 l 2
 32 692 41 700 51 700 c 2
 124 700 l 2
 134 700 140 697 142 688 c 2
 281 110 l 1
 446 683 l 2
 449 693 459 700 468 700 c 2
 520 700 l 2
 529 700 537 693 540 683 c 2
EndSplineSet
EndChar

StartChar: X
Encoding: 88 88 49
Width: 620
Flags: MW
HStem: 0 21G<36.5 42 42 111 505 510 510 579> 680 20G<41 116 116 121 505 579 579 584.5>
LayerCount: 2
Fore
SplineSet
579 0 m 2
 510 0 l 2
 500 0 497 4 492 12 c 2
 310 291 l 1
 129 12 l 2
 124 4 121 0 111 0 c 2
 42 0 l 2
 31 0 21 6 28 16 c 2
 248 349 l 1
 27 684 l 2
 20 694 29 700 41 700 c 2
 116 700 l 2
 126 700 129 696 134 688 c 2
 310 412 l 1
 487 688 l 2
 492 696 495 700 505 700 c 2
 579 700 l 2
 590 700 600 694 593 684 c 2
 371 351 l 1
 593 16 l 2
 600 6 590 0 579 0 c 2
EndSplineSet
EndChar

StartChar: Y
Encoding: 89 89 50
Width: 637
Flags: MW
HStem: 0 21G<283 288 288 349> 680 20G<44 119 119 124 518 593 593 598.5>
VStem: 273 91<15 302>
LayerCount: 2
Fore
SplineSet
349 0 m 2
 288 0 l 2
 278 0 273 5 273 15 c 2
 273 302 l 1
 30 684 l 2
 24 694 33 700 44 700 c 2
 119 700 l 2
 129 700 132 696 137 688 c 2
 319 382 l 1
 500 688 l 2
 505 696 508 700 518 700 c 2
 593 700 l 2
 604 700 613 694 607 684 c 2
 364 302 l 1
 364 15 l 2
 364 5 359 0 349 0 c 2
EndSplineSet
EndChar

StartChar: Z
Encoding: 90 90 51
Width: 601
Flags: MW
HStem: 0 77<158 542> 623 77<54 543 60 447>
LayerCount: 2
Fore
SplineSet
542 0 m 2
 59 0 l 2
 49 0 44 5 44 15 c 2
 44 63 l 2
 44 70 46 79 52 88 c 2
 447 623 l 1
 59 623 l 2
 49 623 44 628 44 638 c 2
 44 685 l 2
 44 695 50 700 60 700 c 2
 543 700 l 2
 553 700 558 695 558 685 c 2
 558 636 l 2
 558 629 555 619 550 612 c 2
 158 77 l 1
 543 77 l 2
 553 77 558 72 558 62 c 2
 558 15 l 2
 558 5 552 0 542 0 c 2
EndSplineSet
EndChar

StartChar: S
Encoding: 83 83 52
Width: 608
Flags: MW
HStem: -6 79<250.5 360.5 250.5 397.5> 627 79<255.5 361.5>
VStem: 57 93<419 543 419 564> 471 93<151 284.5>
LayerCount: 2
Fore
SplineSet
540 569 m 2
 499 540 l 2
 490 534 484 535 480 542 c 0
 465 567 416 627 307 627 c 0
 204 627 150 574 150 512 c 0
 150 326 564 461 564 189 c 0
 564 87 484 -6 311 -6 c 0
 138 -6 64 88 43 121 c 0
 39 128 39 134 47 141 c 2
 82 174 l 2
 91 183 97 181 102 174 c 0
 123 146 190 73 311 73 c 0
 410 73 471 116 471 186 c 0
 471 383 57 238 57 511 c 0
 57 617 143 706 301 706 c 0
 461 706 525 628 545 594 c 0
 551 584 553 578 540 569 c 2
EndSplineSet
EndChar

StartChar: period
Encoding: 46 46 53
Width: 237
Flags: MW
HStem: -6 117<102.5 135>
VStem: 60 117<36 68>
LayerCount: 2
Fore
SplineSet
60 52 m 0
 60 84 86 111 119 111 c 0
 151 111 177 84 177 52 c 0
 177 20 151 -6 119 -6 c 0
 86 -6 60 20 60 52 c 0
EndSplineSet
EndChar

StartChar: comma
Encoding: 44 44 54
Width: 243
Flags: MW
HStem: -6 21G<103 119> 91 20G<102.5 136>
VStem: 60 122<35.5 63.5 -10.5 68>
LayerCount: 2
Fore
SplineSet
60 52 m 0
 60 84 86 111 119 111 c 0
 153 111 182 86 182 41 c 0
 182 -62 123 -100 101 -111 c 0
 96 -114 91 -113 87 -107 c 2
 71 -82 l 2
 67 -76 69 -73 73 -70 c 0
 87 -61 118 -39 119 -6 c 1
 87 -6 60 19 60 52 c 0
EndSplineSet
EndChar

StartChar: colon
Encoding: 58 58 55
Width: 253
Flags: MW
HStem: -6 117<110.5 143> 412 117<110.5 143>
VStem: 68 117<36 68 454 486>
LayerCount: 2
Fore
SplineSet
68 52 m 0
 68 84 94 111 127 111 c 0
 159 111 185 84 185 52 c 0
 185 20 159 -6 127 -6 c 0
 94 -6 68 20 68 52 c 0
68 470 m 0x60
 68 502 94 529 127 529 c 0
 159 529 185 502 185 470 c 0
 185 438 159 412 127 412 c 0
 94 412 68 438 68 470 c 0x60
EndSplineSet
EndChar

StartChar: semicolon
Encoding: 59 59 56
Width: 265
Flags: MW
HStem: -6 21G<115 131> 91 20G<114.5 148> 412 117<113.5 146>
VStem: 71 117<454 486> 72 122<35.5 63.5 -10.5 68>
LayerCount: 2
Fore
SplineSet
72 52 m 0xc8
 72 84 98 111 131 111 c 0
 165 111 194 86 194 41 c 0
 194 -62 135 -100 113 -111 c 0
 108 -114 103 -113 99 -107 c 2
 83 -82 l 2
 79 -76 81 -73 85 -70 c 0
 99 -61 130 -39 131 -6 c 1
 99 -6 72 19 72 52 c 0xc8
71 470 m 0x30
 71 502 97 529 130 529 c 0
 162 529 188 502 188 470 c 0
 188 438 162 412 130 412 c 0
 97 412 71 438 71 470 c 0x30
EndSplineSet
EndChar

StartChar: slash
Encoding: 47 47 57
Width: 418
Flags: MW
HStem: -226 21G<40 45 45 98> 686 20G<320 373 373 378>
LayerCount: 2
Fore
SplineSet
98 -226 m 2
 45 -226 l 2
 35 -226 26 -220 29 -210 c 2
 303 693 l 2
 306 702 310 706 320 706 c 2
 373 706 l 2
 383 706 392 700 389 690 c 2
 116 -213 l 2
 113 -222 108 -226 98 -226 c 2
EndSplineSet
EndChar

StartChar: plus
Encoding: 43 43 58
Width: 463
Flags: MW
HStem: 84 21G<207 212 212 248> 246 65<59 196 65 196 65 196 263 397> 443 20G<211 247 247 253>
VStem: 196 67<100 246 311 447>
LayerCount: 2
Fore
SplineSet
397 246 m 2
 263 246 l 1
 263 99 l 2
 263 89 258 84 248 84 c 2
 212 84 l 2
 202 84 196 90 196 100 c 2
 196 246 l 1
 64 246 l 2
 54 246 49 251 49 261 c 2
 49 296 l 2
 49 306 55 311 65 311 c 2
 196 311 l 1
 196 448 l 2
 196 458 201 463 211 463 c 2
 247 463 l 2
 259 463 263 457 263 447 c 2
 263 311 l 1
 398 311 l 2
 408 311 413 306 413 296 c 2
 413 261 l 2
 413 250 407 246 397 246 c 2
EndSplineSet
EndChar

StartChar: quotesingle
Encoding: 39 39 59
Width: 187
Flags: MW
HStem: 580 21G<75 80 80 108> 730 20G<77 111 111 116.5>
VStem: 63 61
LayerCount: 2
Fore
SplineSet
65 596 m 2
 62 735 l 2
 62 745 67 750 77 750 c 2
 111 750 l 2
 122 750 126 744 126 734 c 2
 122 595 l 2
 122 585 117 580 108 580 c 2
 80 580 l 2
 70 580 65 586 65 596 c 2
EndSplineSet
EndChar

StartChar: parenleft
Encoding: 40 40 60
Width: 299
Flags: MW
VStem: 49 88<115.5 364.5 115.5 375>
LayerCount: 2
Fore
SplineSet
137 241 m 0
 137 -10 236 -160 265 -199 c 0
 270 -206 269 -211 255 -217 c 2
 213 -237 l 2
 202 -242 195 -241 190 -234 c 0
 159 -193 49 -29 49 241 c 0
 49 509 157 672 189 715 c 0
 195 723 202 724 213 719 c 2
 254 700 l 2
 268 693 269 687 263 679 c 0
 232 637 137 488 137 241 c 0
EndSplineSet
EndChar

StartChar: parenright
Encoding: 41 41 61
Width: 299
Flags: MW
VStem: 162 88<115.5 364.5>
LayerCount: 2
Fore
SplineSet
250 241 m 0
 250 -29 140 -193 109 -234 c 0
 104 -241 97 -242 86 -237 c 2
 44 -217 l 2
 30 -211 29 -206 34 -199 c 0
 63 -160 162 -10 162 241 c 0
 162 488 67 637 36 679 c 0
 30 687 31 693 45 700 c 2
 86 719 l 2
 97 724 104 723 110 715 c 0
 142 672 250 509 250 241 c 0
EndSplineSet
EndChar

StartChar: asterisk
Encoding: 42 42 62
Width: 435
Flags: W
LayerCount: 2
Fore
SplineSet
103 502 m 2
 184 592 l 1
 64 605 l 2
 54 606 50 612 51 622 c 2
 53 641 l 2
 54 650 63 653 73 651 c 2
 187 627 l 1
 139 732 l 2
 135 741 136 749 145 753 c 2
 163 761 l 2
 174 766 179 760 182 750 c 2
 222 639 l 1
 294 739 l 2
 300 748 306 752 315 745 c 2
 330 733 l 2
 338 727 339 719 332 711 c 2
 250 618 l 1
 369 605 l 2
 379 604 386 599 385 590 c 2
 383 571 l 2
 382 561 374 557 365 559 c 2
 245 582 l 1
 296 475 l 2
 300 466 299 458 290 454 c 2
 271 446 l 2
 260 441 256 446 252 456 c 2
 210 567 l 1
 141 474 l 2
 135 465 129 461 120 468 c 2
 102 481 l 2
 95 486 96 495 103 502 c 2
EndSplineSet
EndChar

StartChar: exclam
Encoding: 33 33 63
Width: 254
Flags: MW
HStem: -13 111<111 141.5> 735 20G<94 163 163 168>
VStem: 70 101 84 87
LayerCount: 2
Fore
SplineSet
89 212 m 2xd0
 79 740 l 2
 79 750 84 755 94 755 c 2
 163 755 l 2
 173 755 178 750 178 740 c 2
 165 212 l 2
 165 202 160 197 150 197 c 2
 104 197 l 2
 94 197 89 202 89 212 c 2xd0
126 98 m 0
 157 98 182 73 182 43 c 0
 182 12 157 -13 126 -13 c 0
 96 -13 70 12 70 43 c 0xe0
 70 73 96 98 126 98 c 0
EndSplineSet
EndChar

StartChar: quotedbl
Encoding: 34 34 64
Width: 303
Flags: MW
HStem: 580 21G<75 80 80 108 191 196 196 224> 730 20G<77 111 111 116.5 193 227 227 232.5>
VStem: 63 61 179 61
LayerCount: 2
Fore
SplineSet
65 596 m 2
 62 735 l 2
 62 745 67 750 77 750 c 2
 111 750 l 2
 122 750 126 744 126 734 c 2
 122 595 l 2
 122 585 117 580 108 580 c 2
 80 580 l 2
 70 580 65 586 65 596 c 2
181 596 m 2xd0
 178 735 l 2
 178 745 183 750 193 750 c 2
 227 750 l 2
 238 750 242 744 242 734 c 2
 238 595 l 2
 238 585 233 580 224 580 c 2
 196 580 l 2
 186 580 181 586 181 596 c 2xd0
EndSplineSet
EndChar

StartChar: numbersign
Encoding: 35 35 65
Width: 622
Flags: MW
HStem: 44 146<146 151 151 163 69 182 345 350 350 362> 139 51<52.5 163 69 151 227 351 427 504> 334 52<102.5 205 119 194 270 393 470 554> 334 157<102.5 273 108 273 259 273 273 278 242 393 259 259 459 459 459 473 473 478>
LayerCount: 2
Fore
SplineSet
362 190 m 1xa0
 393 334 l 1
 259 334 l 1
 227 190 l 1
 362 190 l 1xa0
163 190 m 1
 194 334 l 1
 108 334 l 2
 97 334 95 346 97 355 c 2
 101 373 l 2
 103 383 109 386 119 386 c 2
 205 386 l 1xa0
 225 478 l 2
 227 487 232 491 242 491 c 2
 273 491 l 2x90
 283 491 292 487 289 473 c 2
 270 386 l 1
 404 386 l 1xa0
 425 478 l 2
 427 487 432 491 442 491 c 2
 473 491 l 2x90
 483 491 492 487 489 473 c 2
 470 386 l 1
 570 386 l 2
 579 386 580 381 578 373 c 2
 572 347 l 2
 570 337 564 334 554 334 c 2
 459 334 l 1
 427 190 l 1
 515 190 l 2
 526 190 530 184 527 173 c 2
 522 152 l 2
 520 142 514 139 504 139 c 2
 416 139 l 1x60
 398 57 l 2
 396 48 391 44 381 44 c 2
 350 44 l 2xa0
 340 44 331 48 334 62 c 2
 351 139 l 1
 217 139 l 1x60
 199 57 l 2
 197 48 192 44 182 44 c 2
 151 44 l 2xa0
 141 44 132 48 135 62 c 2
 151 139 l 1
 58 139 l 2x60
 47 139 45 151 47 160 c 2
 51 177 l 2
 53 187 59 190 69 190 c 2
 163 190 l 1
EndSplineSet
EndChar

StartChar: less
Encoding: 60 60 66
Width: 424
Flags: W
LayerCount: 2
Fore
SplineSet
56 319 m 2
 347 497 l 2
 356 502 363 497 363 485 c 2
 363 443 l 2
 363 432 356 425 347 419 c 2
 117 273 l 1
 349 127 l 2
 358 121 363 115 363 104 c 2
 363 62 l 2
 363 50 356 45 347 50 c 2
 55 229 l 2
 43 236 40 240 40 252 c 2
 40 296 l 2
 40 306 44 312 56 319 c 2
EndSplineSet
EndChar

StartChar: equal
Encoding: 61 61 67
Width: 521
Flags: MW
HStem: 137 65<81 435 87 434> 334 66<81 435 87 434>
LayerCount: 2
Fore
SplineSet
87 400 m 2
 435 400 l 2
 445 400 450 395 450 385 c 2
 450 349 l 2
 450 338 444 334 434 334 c 2
 86 334 l 2
 76 334 71 339 71 349 c 2
 71 385 l 2
 71 395 77 400 87 400 c 2
87 202 m 2
 435 202 l 2
 445 202 450 197 450 187 c 2
 450 152 l 2
 450 141 444 137 434 137 c 2
 86 137 l 2
 76 137 71 142 71 152 c 2
 71 187 l 2
 71 197 77 202 87 202 c 2
EndSplineSet
EndChar

StartChar: greater
Encoding: 62 62 68
Width: 424
Flags: W
LayerCount: 2
Fore
SplineSet
77 497 m 2
 368 319 l 2
 380 312 384 306 384 296 c 2
 384 252 l 2
 384 240 381 236 369 229 c 2
 77 50 l 2
 68 45 61 50 61 62 c 2
 61 104 l 2
 61 115 66 121 75 127 c 2
 307 273 l 1
 77 419 l 2
 68 425 61 432 61 443 c 2
 61 485 l 2
 61 497 68 502 77 497 c 2
EndSplineSet
EndChar

StartChar: at
Encoding: 64 64 69
Width: 843
Flags: MW
HStem: -149 67<312 452 312 463> 46 51 46 68<358.5 401.5> 396 61<415 491.5> 571 68<379 564.5>
VStem: 51 74<93 290.5 93 313.5> 233 72<175.5 256 175.5 264.5> 736 70<268.5 408>
LayerCount: 2
Fore
SplineSet
806 344 m 0xdf
 806 176 685 44 566 44 c 0
 520 44 500 66 498 99 c 0
 498 108 502 124 505 132 c 1
 487 104 440 46 363 46 c 0
 297 46 233 84 233 193 c 0
 233 336 337 457 461 457 c 0
 537 457 560 414 563 407 c 1
 572 439 l 2
 575 448 579 450 589 450 c 2
 627 450 l 2
 637 450 642 446 640 439 c 2
 640 439 561 144 558 124 c 0
 556 108 565 97 581 97 c 0
 644 97 736 195 736 342 c 0
 736 474 645 571 484 571 c 0
 274 571 125 399 125 182 c 0
 125 4 243 -82 381 -82 c 0
 523 -82 612 -27 647 0 c 0
 659 9 668 11 674 0 c 2
 689 -24 l 2
 696 -36 693 -44 683 -52 c 0
 647 -81 546 -149 380 -149 c 0
 199 -149 51 -36 51 180 c 0
 51 447 237 639 486 639 c 0
 675 639 806 513 806 344 c 0xdf
511 215 m 1
 546 355 l 1
 546 355 526 396 457 396 c 0
 373 396 305 305 305 207 c 0
 305 144 335 114 382 114 c 0xbf
 457 114 499 186 511 215 c 1
EndSplineSet
EndChar

StartChar: bracketleft
Encoding: 91 91 70
Width: 329
Flags: MW
HStem: -244 77<90 277 168 276> 649 77<168 276 168 168>
VStem: 80 88<-167 649 -167 711 -167 716> 80 212<-229 -182 659 664 664 711>
LayerCount: 2
Fore
SplineSet
276 -244 m 2xd0
 95 -244 l 2
 85 -244 80 -239 80 -229 c 2
 80 711 l 2
 80 721 85 726 95 726 c 2
 277 726 l 2
 287 726 292 721 292 711 c 2
 292 664 l 2xd0
 292 654 286 649 276 649 c 2
 168 649 l 1
 168 -167 l 1xe0
 277 -167 l 2
 287 -167 292 -172 292 -182 c 2
 292 -229 l 2
 292 -239 286 -244 276 -244 c 2xd0
EndSplineSet
EndChar

StartChar: backslash
Encoding: 92 92 71
Width: 418
Flags: MW
HStem: -226 21G<315 320 320 373> 686 20G<45 98 98 103>
LayerCount: 2
Fore
SplineSet
373 -226 m 2
 320 -226 l 2
 310 -226 305 -222 302 -213 c 2
 29 690 l 2
 26 700 35 706 45 706 c 2
 98 706 l 2
 108 706 112 702 115 693 c 2
 389 -210 l 2
 392 -220 383 -226 373 -226 c 2
EndSplineSet
EndChar

StartChar: bracketright
Encoding: 93 93 72
Width: 329
Flags: MW
HStem: -244 77<52 53 53 161 52 234> 649 77<52 53 53 161>
VStem: 37 212<-229 -182 -182 -177 664 711> 161 88<-167 649 649 649>
LayerCount: 2
Fore
SplineSet
234 -244 m 2xe0
 53 -244 l 2
 43 -244 37 -239 37 -229 c 2
 37 -182 l 2
 37 -172 42 -167 52 -167 c 2
 161 -167 l 1
 161 649 l 1
 53 649 l 2
 43 649 37 654 37 664 c 2xe0
 37 711 l 2
 37 721 42 726 52 726 c 2
 234 726 l 2xd0
 244 726 249 721 249 711 c 2
 249 -229 l 2
 249 -239 244 -244 234 -244 c 2xe0
EndSplineSet
EndChar

StartChar: braceleft
Encoding: 123 123 73
Width: 332
Flags: MW
HStem: -243 21G<273 276.5>
VStem: 35 157 109 83<-68 -54 -54 138 138 157 344 536> 109 185<-233 138>
LayerCount: 2
Fore
SplineSet
109 344 m 2xa0
 109 550 l 2
 109 677 187 719 271 725 c 0
 279 726 294 722 294 706 c 2
 294 665 l 2x90
 294 650 280 648 273 647 c 0
 223 640 192 604 192 536 c 2
 192 325 l 2
 192 262 156 245 143 241 c 1
 153 238 192 215 192 157 c 2
 192 -54 l 2xc0
 192 -120 221 -155 269 -164 c 0
 277 -165 294 -170 294 -185 c 2
 294 -226 l 2x90
 294 -240 280 -243 273 -243 c 0
 188 -237 109 -195 109 -68 c 2
 109 138 l 2xa0
 109 186 75 205 45 205 c 0
 38 205 35 210 35 218 c 2
 35 264 l 2xc0
 35 270 38 277 45 277 c 0
 75 277 109 296 109 344 c 2xa0
EndSplineSet
EndChar

StartChar: braceright
Encoding: 125 125 74
Width: 332
Flags: MW
HStem: -243 21G<55.5 59>
VStem: 38 185<-226 -68 -185 -68> 140 83<-54 138 325 344 344 536 536 550> 140 157<-54 218 157 218 214 536>
LayerCount: 2
Fore
SplineSet
223 550 m 2xa0
 223 344 l 2
 223 296 257 277 287 277 c 0
 294 277 297 270 297 264 c 2
 297 218 l 2
 297 210 294 205 287 205 c 0
 257 205 223 186 223 138 c 2xc0
 223 -68 l 2
 223 -195 144 -237 59 -243 c 0
 52 -243 38 -240 38 -226 c 2
 38 -185 l 2
 38 -170 55 -165 63 -164 c 0
 111 -155 140 -120 140 -54 c 2x90
 140 157 l 2
 140 215 179 238 189 241 c 1
 176 245 140 262 140 325 c 2
 140 536 l 2
 140 604 109 640 59 647 c 0
 52 648 38 650 38 665 c 2xc0
 38 706 l 2
 38 722 53 726 61 725 c 0
 145 719 223 677 223 550 c 2xa0
EndSplineSet
EndChar

StartChar: asciitilde
Encoding: 126 126 75
Width: 465
Flags: MW
HStem: 200 130<89 185 127 139> 228 69<280.5 310 280.5 341.5> 228 127<328 341.5> 261 36
VStem: 71 70<242 243 229.5 272.5>
LayerCount: 2
Fore
SplineSet
139 200 m 2x88
 92 200 l 2
 86 200 81 203 79 208 c 0
 75 216 71 233 71 251 c 0
 71 294 99 330 155 330 c 0x88
 215 330 258 297 303 297 c 0x48
 317 297 325 305 325 318 c 0
 325 330 321 341 318 348 c 0
 316 353 320 355 328 355 c 2
 375 355 l 2
 383 355 387 351 388 347 c 0
 391 339 395 323 395 305 c 0
 395 263 369 228 314 228 c 0x28
 244 228 206 261 168 261 c 0x18
 152 261 141 251 141 235 c 0
 141 224 145 214 148 208 c 0
 151 203 149 200 139 200 c 2x88
EndSplineSet
EndChar

StartChar: tilde
Encoding: 732 732 76
Width: 406
Flags: MW
HStem: 559 130<59 155 97 109> 587 69<250.5 280 250.5 311.5> 587 127<298 311.5> 620 36
VStem: 41 70<601 602 588.5 631.5>
LayerCount: 2
Fore
SplineSet
109 559 m 2x88
 62 559 l 2
 56 559 51 562 49 567 c 0
 45 575 41 592 41 610 c 0
 41 653 69 689 125 689 c 0x88
 185 689 228 656 273 656 c 0x48
 287 656 295 664 295 677 c 0
 295 689 291 700 288 707 c 0
 286 712 290 714 298 714 c 2
 345 714 l 2
 353 714 357 710 358 706 c 0
 361 698 365 682 365 664 c 0
 365 622 339 587 284 587 c 0x28
 214 587 176 620 138 620 c 0x18
 122 620 111 610 111 594 c 0
 111 583 115 573 118 567 c 0
 121 562 119 559 109 559 c 2x88
EndSplineSet
EndChar

StartChar: hyphen
Encoding: 45 45 77
Width: 406
Flags: MW
HStem: 240 66<78 323 84 322>
LayerCount: 2
Fore
SplineSet
84 306 m 2
 323 306 l 2
 333 306 338 301 338 291 c 2
 338 255 l 2
 338 244 332 240 322 240 c 2
 83 240 l 2
 73 240 68 245 68 255 c 2
 68 291 l 2
 68 301 74 306 84 306 c 2
EndSplineSet
EndChar

StartChar: paragraph
Encoding: 182 182 78
Width: 607
Flags: MW
HStem: 0 21G<328 333 333 358 473 478 478 504> 655 45<373 463 373 373>
VStem: 318 55<15 263 263 263> 463 56<15 655 655 655>
LayerCount: 2
Fore
SplineSet
318 15 m 2
 318 263 l 1
 248 263 l 2
 108 263 36 352 36 480 c 0
 36 609 108 700 248 700 c 2
 504 700 l 2
 514 700 519 695 519 685 c 2
 519 15 l 2
 519 5 514 0 504 0 c 2
 478 0 l 2
 468 0 463 5 463 15 c 2
 463 655 l 1
 373 655 l 1
 373 15 l 2
 373 5 368 0 358 0 c 2
 333 0 l 2
 323 0 318 5 318 15 c 2
EndSplineSet
EndChar

StartChar: bullet
Encoding: 8226 8226 79
Width: 366
Flags: MW
HStem: 187 205<154.5 211>
VStem: 81 204<261 317.5>
LayerCount: 2
Fore
SplineSet
285 289 m 0
 285 233 239 187 183 187 c 0
 126 187 81 233 81 289 c 0
 81 346 126 392 183 392 c 0
 239 392 285 346 285 289 c 0
EndSplineSet
EndChar

StartChar: plusminus
Encoding: 177 177 80
Width: 496
Flags: MW
HStem: 12 65<73 416 79 415> 305 65<76 213 82 213 82 213 280 414> 502 20G<228 264 264 270>
VStem: 213 67<159 305 370 506>
LayerCount: 2
Fore
SplineSet
414 305 m 2
 280 305 l 1
 280 158 l 2
 280 148 275 143 265 143 c 2
 229 143 l 2
 219 143 213 149 213 159 c 2
 213 305 l 1
 81 305 l 2
 71 305 66 310 66 320 c 2
 66 355 l 2
 66 365 72 370 82 370 c 2
 213 370 l 1
 213 507 l 2
 213 517 218 522 228 522 c 2
 264 522 l 2
 276 522 280 516 280 506 c 2
 280 370 l 1
 415 370 l 2
 425 370 430 365 430 355 c 2
 430 320 l 2
 430 309 424 305 414 305 c 2
79 77 m 2
 416 77 l 2
 426 77 431 72 431 62 c 2
 431 27 l 2
 431 16 425 12 415 12 c 2
 78 12 l 2
 68 12 63 17 63 27 c 2
 63 62 l 2
 63 72 69 77 79 77 c 2
EndSplineSet
EndChar

StartChar: underscore
Encoding: 95 95 81
Width: 422
Flags: MW
HStem: -65 65<37 380 43 379>
LayerCount: 2
Fore
SplineSet
43 0 m 2
 380 0 l 2
 390 0 395 -5 395 -15 c 2
 395 -50 l 2
 395 -61 389 -65 379 -65 c 2
 42 -65 l 2
 32 -65 27 -60 27 -50 c 2
 27 -15 l 2
 27 -5 33 0 43 0 c 2
EndSplineSet
EndChar

StartChar: logicalnot
Encoding: 172 172 82
Width: 473
Flags: MW
HStem: 123 191<340 345 345 385> 249 65<81 385 87 331>
VStem: 331 69<139 249 249 249>
LayerCount: 2
Fore
SplineSet
331 139 m 2xa0
 331 249 l 1
 86 249 l 2x60
 76 249 71 254 71 264 c 2
 71 299 l 2
 71 309 77 314 87 314 c 2
 385 314 l 2
 395 314 400 309 400 299 c 2
 400 138 l 2
 400 128 395 123 385 123 c 2
 345 123 l 2
 335 123 331 128 331 139 c 2xa0
EndSplineSet
EndChar

StartChar: guillemotleft
Encoding: 171 171 83
Width: 496
Flags: W
LayerCount: 2
Fore
SplineSet
74 214 m 2
 62 225 59 234 59 248 c 2
 59 279 l 2
 59 293 62 302 74 314 c 2
 193 424 l 2
 201 432 210 431 217 424 c 2
 240 398 l 2
 246 391 246 381 238 373 c 2
 127 264 l 1
 238 156 l 2
 246 148 246 137 240 130 c 2
 217 104 l 2
 210 97 201 96 193 104 c 2
 74 214 l 2
264 214 m 2
 252 225 249 234 249 248 c 2
 249 279 l 2
 249 293 252 302 264 314 c 2
 383 424 l 2
 391 432 400 431 407 424 c 2
 430 398 l 2
 436 391 436 381 428 373 c 2
 317 264 l 1
 428 156 l 2
 436 148 436 137 430 130 c 2
 407 104 l 2
 400 97 391 96 383 104 c 2
 264 214 l 2
EndSplineSet
EndChar

StartChar: guillemotright
Encoding: 187 187 84
Width: 496
Flags: W
LayerCount: 2
Fore
SplineSet
230 211 m 2
 114 104 l 2
 105 96 98 96 93 102 c 2
 63 135 l 2
 58 141 60 147 66 153 c 2
 180 264 l 1
 66 376 l 2
 60 382 58 388 63 394 c 2
 92 426 l 2
 97 432 104 433 113 425 c 2
 230 317 l 2
 242 306 248 292 248 281 c 2
 248 249 l 2
 248 233 244 224 230 211 c 2
420 211 m 2
 304 104 l 2
 295 96 288 96 283 102 c 2
 253 135 l 2
 248 141 250 147 256 153 c 2
 370 264 l 1
 256 376 l 2
 250 382 248 388 253 394 c 2
 282 426 l 2
 287 432 294 433 303 425 c 2
 420 317 l 2
 432 306 438 292 438 281 c 2
 438 249 l 2
 438 233 434 224 420 211 c 2
EndSplineSet
EndChar

StartChar: endash
Encoding: 8211 8211 85
Width: 554
Flags: MW
HStem: 240 66<78 471 84 470>
LayerCount: 2
Fore
SplineSet
84 306 m 2
 471 306 l 2
 481 306 486 301 486 291 c 2
 486 255 l 2
 486 244 480 240 470 240 c 2
 83 240 l 2
 73 240 68 245 68 255 c 2
 68 291 l 2
 68 301 74 306 84 306 c 2
EndSplineSet
EndChar

StartChar: emdash
Encoding: 8212 8212 86
Width: 898
Flags: MW
HStem: 240 66<78 815 84 814>
LayerCount: 2
Fore
SplineSet
84 306 m 2
 815 306 l 2
 825 306 830 301 830 291 c 2
 830 255 l 2
 830 244 824 240 814 240 c 2
 83 240 l 2
 73 240 68 245 68 255 c 2
 68 291 l 2
 68 301 74 306 84 306 c 2
EndSplineSet
EndChar

StartChar: breve
Encoding: 728 728 87
Width: 327
Flags: MW
HStem: 562 62<136.5 183 136.5 198.5> 562 130<52 198.5>
VStem: 40 247<676 679.5>
LayerCount: 2
Fore
SplineSet
233 692 m 2x60
 274 692 l 2
 283 692 287 685 287 676 c 0
 284 597 233 562 164 562 c 0
 91 562 40 607 40 676 c 0
 40 683 42 692 52 692 c 2
 94 692 l 2x60
 102 692 107 691 107 684 c 0
 108 669 110 624 163 624 c 0xa0
 203 624 218 648 220 684 c 0
 220 691 225 692 233 692 c 2x60
EndSplineSet
EndChar

StartChar: caron
Encoding: 711 711 88
Width: 339
Flags: MW
HStem: 558 21G<130 136 136 203> 712 20G<53 96 96 102 242 285 285 291.5>
LayerCount: 2
Fore
SplineSet
53 732 m 2
 96 732 l 2
 108 732 114 726 119 717 c 2
 169 625 l 1
 219 717 l 2
 224 726 230 732 242 732 c 2
 285 732 l 2
 298 732 303 725 298 716 c 2
 227 574 l 2
 221 562 214 558 203 558 c 2
 136 558 l 2
 124 558 118 562 112 574 c 2
 40 716 l 2
 35 725 40 732 53 732 c 2
EndSplineSet
EndChar

StartChar: cedilla
Encoding: 184 184 89
Width: 273
Flags: MW
HStem: -180 49<118.5 144 118.5 157.5> -67 33 -16 20G<131 160 160 164>
VStem: 171 52<-111 -94>
LayerCount: 2
Fore
SplineSet
167 -7 m 2
 155 -34 l 1
 185 -35 223 -58 223 -104 c 0
 223 -154 183 -180 132 -180 c 0
 93 -180 68 -162 57 -152 c 0
 53 -148 52 -144 55 -139 c 2
 67 -115 l 2
 71 -108 75 -109 79 -112 c 0
 88 -119 106 -131 131 -131 c 0
 157 -131 171 -120 171 -102 c 0
 171 -86 152 -68 96 -67 c 0
 94 -67 90 -65 92 -60 c 2
 115 -7 l 2
 118 0 123 4 131 4 c 2
 160 4 l 2
 168 4 170 0 167 -7 c 2
EndSplineSet
EndChar

StartChar: circumflex
Encoding: 710 710 90
Width: 353
Flags: MW
HStem: 549 21G<52.5 59 59 102 242 248 248 291> 703 20G<142 209 209 214.5>
LayerCount: 2
Fore
SplineSet
102 549 m 2
 59 549 l 2
 46 549 41 556 46 565 c 2
 118 707 l 2
 124 719 130 723 142 723 c 2
 209 723 l 2
 220 723 227 719 233 707 c 2
 305 565 l 2
 310 556 304 549 291 549 c 2
 248 549 l 2
 236 549 230 555 225 564 c 2
 175 656 l 1
 125 564 l 2
 120 555 114 549 102 549 c 2
EndSplineSet
EndChar

StartChar: macron
Encoding: 175 175 91
Width: 386
Flags: MW
HStem: 591 65<61 320 67 319>
LayerCount: 2
Fore
SplineSet
67 656 m 2
 320 656 l 2
 330 656 335 651 335 641 c 2
 335 606 l 2
 335 595 329 591 319 591 c 2
 66 591 l 2
 56 591 51 596 51 606 c 2
 51 641 l 2
 51 651 57 656 67 656 c 2
EndSplineSet
EndChar

StartChar: ogonek
Encoding: 731 731 92
Width: 264
Flags: MW
HStem: -172 53<132.5 155 132.5 155.5>
VStem: 51 55<-91.5 -57 -91.5 -53.5>
LayerCount: 2
Fore
SplineSet
51 -94 m 0
 51 -13 126 24 157 35 c 0
 166 38 171 36 172 30 c 2
 176 10 l 2
 177 3 174 0 167 -3 c 0
 147 -12 106 -35 106 -79 c 0
 106 -104 119 -119 146 -119 c 0
 164 -119 176 -111 184 -104 c 0
 189 -100 193 -98 196 -104 c 2
 209 -132 l 2
 212 -138 211 -142 207 -146 c 0
 197 -155 173 -172 138 -172 c 0
 91 -172 51 -148 51 -94 c 0
EndSplineSet
EndChar

StartChar: ring
Encoding: 730 730 93
Width: 264
Flags: MW
HStem: 557 44<120 143.5 120 155.5> 679 45<120 143.5>
VStem: 48 45<628.5 651.5 628.5 664> 171 44<628.5 651.5>
LayerCount: 2
Fore
SplineSet
132 557 m 0
 84 557 48 593 48 640 c 0
 48 688 84 724 132 724 c 0
 179 724 215 688 215 640 c 0
 215 593 179 557 132 557 c 0
171 640 m 0
 171 663 155 679 132 679 c 0
 108 679 93 663 93 640 c 0
 93 617 108 601 132 601 c 0
 155 601 171 617 171 640 c 0
EndSplineSet
EndChar

StartChar: acute
Encoding: 180 180 94
Width: 272
Flags: MW
HStem: 561 21G<50 54 54 109> 715 20G<137 219 219 222.5>
LayerCount: 2
Fore
SplineSet
109 561 m 2
 54 561 l 2
 46 561 44 567 46 571 c 2
 120 725 l 2
 123 731 128 735 137 735 c 2
 219 735 l 2
 226 735 230 730 226 724 c 2
 128 572 l 2
 123 564 118 561 109 561 c 2
EndSplineSet
EndChar

StartChar: grave
Encoding: 96 96 95
Width: 272
Flags: MW
HStem: 561 21G<158.5 163 163 218> 715 20G<53 135 135 139.5>
LayerCount: 2
Fore
SplineSet
218 561 m 2
 163 561 l 2
 154 561 149 564 144 572 c 2
 46 724 l 2
 42 730 46 735 53 735 c 2
 135 735 l 2
 144 735 149 731 152 725 c 2
 226 571 l 2
 228 567 226 561 218 561 c 2
EndSplineSet
EndChar

StartChar: hungarumlaut
Encoding: 733 733 96
Width: 408
Flags: MW
HStem: 561 174<42 211 46 211 210 211 211 214 214 214.5 129 269>
LayerCount: 2
Fore
SplineSet
269 561 m 2
 214 561 l 2
 206 561 204 567 206 571 c 2
 280 725 l 2
 283 731 288 735 297 735 c 2
 379 735 l 2
 386 735 390 730 386 724 c 2
 288 572 l 2
 283 564 278 561 269 561 c 2
101 561 m 2
 46 561 l 2
 38 561 36 567 38 571 c 2
 112 725 l 2
 115 731 120 735 129 735 c 2
 211 735 l 2
 218 735 222 730 218 724 c 2
 120 572 l 2
 115 564 110 561 101 561 c 2
EndSplineSet
EndChar

StartChar: dieresis
Encoding: 168 168 97
Width: 359
Flags: MW
HStem: 584 104<74.5 103 257 285.5>
VStem: 37 103<621.5 650> 219 104<621.5 650>
LayerCount: 2
Fore
SplineSet
89 584 m 0
 60 584 37 607 37 636 c 0
 37 664 60 688 89 688 c 0
 117 688 140 664 140 636 c 0
 140 607 117 584 89 584 c 0
271 584 m 0
 243 584 219 607 219 636 c 0
 219 664 243 688 271 688 c 0
 300 688 323 664 323 636 c 0
 323 607 300 584 271 584 c 0
EndSplineSet
EndChar

StartChar: dotaccent
Encoding: 729 729 98
Width: 186
Flags: MW
HStem: 593 104<79 107>
VStem: 41 104<630.5 659>
LayerCount: 2
Fore
SplineSet
93 593 m 0
 65 593 41 616 41 645 c 0
 41 673 65 697 93 697 c 0
 121 697 145 673 145 645 c 0
 145 616 121 593 93 593 c 0
EndSplineSet
EndChar

StartChar: commaaccent
Encoding: 63171 63171 99
Width: 202
Flags: MW
HStem: -59 20G<83.5 116.5>
VStem: 41 121<-114 -84 -151.5 -81.5>
LayerCount: 2
Fore
SplineSet
41 -98 m 0
 41 -65 67 -39 100 -39 c 0
 133 -39 162 -62 162 -106 c 0
 162 -197 102 -228 81 -237 c 0
 75 -240 71 -237 68 -232 c 2
 52 -207 l 2
 48 -201 50 -198 55 -196 c 0
 68 -191 99 -177 100 -156 c 1
 68 -156 41 -130 41 -98 c 0
EndSplineSet
EndChar

StartChar: notequal
Encoding: 8800 8800 100
Width: 510
Flags: MW
HStem: 57 145<163 168 168 191 81 214> 137 65<75 191 81 171 273 428 81 253> 334 66<75 252 81 232 334 428 81 313> 334 155<80 340 313 340 340 345 293 428 313 313>
LayerCount: 2
Fore
SplineSet
81 400 m 2xa0
 252 400 l 1xa0
 276 476 l 2
 279 485 283 489 293 489 c 2
 340 489 l 2x90
 350 489 359 483 356 473 c 2
 334 400 l 1
 429 400 l 2
 439 400 444 395 444 385 c 2
 444 349 l 2
 444 338 438 334 428 334 c 2
 313 334 l 1
 273 202 l 1
 429 202 l 2
 439 202 444 197 444 187 c 2
 444 152 l 2
 444 141 438 137 428 137 c 2
 253 137 l 1x60
 232 70 l 2
 229 61 224 57 214 57 c 2
 168 57 l 2xa0
 158 57 149 63 152 73 c 2
 171 137 l 1
 80 137 l 2x60
 70 137 65 142 65 152 c 2
 65 187 l 2
 65 197 71 202 81 202 c 2
 191 202 l 1
 232 334 l 1
 80 334 l 2
 70 334 65 339 65 349 c 2
 65 385 l 2
 65 395 71 400 81 400 c 2xa0
EndSplineSet
EndChar

StartChar: multiply
Encoding: 215 215 101
Width: 471
Flags: W
LayerCount: 2
Fore
SplineSet
400 391 m 2
 282 273 l 1
 400 155 l 2
 407 148 407 140 400 133 c 2
 374 108 l 2
 367 101 360 102 353 109 c 2
 235 227 l 1
 118 109 l 2
 111 102 104 101 97 108 c 2
 71 133 l 2
 64 140 64 148 71 155 c 2
 189 273 l 1
 71 391 l 2
 64 398 64 406 71 413 c 2
 97 438 l 2
 104 445 111 445 117 438 c 2
 235 320 l 1
 353 437 l 2
 360 444 367 445 374 438 c 2
 400 413 l 2
 407 406 407 398 400 391 c 2
EndSplineSet
EndChar

StartChar: trademark
Encoding: 8482 8482 102
Width: 817
Flags: MW
HStem: 341 21G<184.5 190 190 231 397.5 403 403 433 690.5 696 696 725> 654 55<65.5 346 71 175 246 345 246 246>
VStem: 175 71<357 654> 388 60<357 599> 681 59<357 599 599 599>
LayerCount: 2
Fore
SplineSet
71 709 m 2
 346 709 l 2
 357 709 361 704 361 693 c 2
 361 669 l 2
 361 659 356 654 345 654 c 2
 246 654 l 1
 246 356 l 2
 246 346 241 341 231 341 c 2
 190 341 l 2
 179 341 175 347 175 357 c 2
 175 654 l 1
 71 654 l 2
 60 654 56 659 56 669 c 2
 56 693 l 2
 56 705 61 709 71 709 c 2
681 357 m 2
 681 599 l 1
 591 405 l 2
 588 398 582 392 564 392 c 0
 545 392 539 398 536 405 c 2
 448 599 l 1
 448 356 l 2
 448 346 443 341 433 341 c 2
 403 341 l 2
 392 341 388 347 388 357 c 2
 388 695 l 2
 388 705 393 709 404 709 c 2
 442 709 l 2
 449 709 459 704 463 695 c 2
 564 467 l 1
 667 695 l 2
 671 704 681 709 688 709 c 2
 725 709 l 2
 735 709 740 705 740 695 c 2
 740 356 l 2
 740 346 735 341 725 341 c 2
 696 341 l 2
 685 341 681 347 681 357 c 2
EndSplineSet
EndChar

StartChar: bar
Encoding: 124 124 103
Width: 236
Flags: MW
HStem: -254 21G<90 95 95 141> 716 20G<95 141 141 146>
VStem: 80 76<-239 721>
LayerCount: 2
Fore
SplineSet
156 721 m 2
 156 -239 l 2
 156 -249 151 -254 141 -254 c 2
 95 -254 l 2
 85 -254 80 -249 80 -239 c 2
 80 721 l 2
 80 731 85 736 95 736 c 2
 141 736 l 2
 151 736 156 731 156 721 c 2
EndSplineSet
EndChar

StartChar: brokenbar
Encoding: 166 166 104
Width: 238
Flags: MW
HStem: -254 21G<92 97 97 142> 716 20G<96 141 141 147>
VStem: 81 76<-238 180 370 720>
LayerCount: 2
Fore
SplineSet
81 370 m 2
 81 721 l 2
 81 731 86 736 96 736 c 2
 141 736 l 2
 153 736 157 730 157 720 c 2
 157 369 l 2
 157 359 152 354 142 354 c 2
 97 354 l 2
 87 354 81 360 81 370 c 2
81 -238 m 2
 81 181 l 2
 81 191 86 196 96 196 c 2
 141 196 l 2
 153 196 157 190 157 180 c 2
 157 -239 l 2
 157 -249 152 -254 142 -254 c 2
 97 -254 l 2
 87 -254 81 -248 81 -238 c 2
EndSplineSet
EndChar

StartChar: aacute
Encoding: 225 225 105
Width: 513
Flags: MW
HStem: -6 69<190.5 244.5> -3 21G<416 456> 189 62<197.5 350 230 350> 298 190<80.5 315 93 315> 414 74<216 281.5> 488 247<292 315>
VStem: 40 90<106.5 146.5 106.5 160.5> 66 82<340.5 359.5 333.5 391> 359 79<72 115 77 115> 359 120<10 77 10 77>
LayerCount: 2
Fore
SplineSet
479 52 m 2xa640
 479 14 l 2
 479 6 472 -3 440 -3 c 0
 392 -3 359 22 359 72 c 2xaa80
 359 77 l 1
 340 44 295 -6 194 -6 c 0
 96 -6 40 43 40 119 c 0x7280
 40 202 98 251 230 251 c 2
 350 251 l 1
 350 319 l 2
 350 384 314 414 249 414 c 0
 183 414 148 382 148 337 c 0
 148 330 150 317 152 309 c 0
 154 302 149 298 138 298 c 2
 93 298 l 2
 68 298 66 329 66 352 c 0
 66 430 131 488 251 488 c 0
 379 488 438 428 438 316 c 2
 438 115 l 2
 438 88 445 70 465 66 c 0
 471 65 479 62 479 52 c 2xa640
350 172 m 1
 350 189 l 1
 230 189 l 2xb180
 165 189 130 166 130 127 c 0
 130 86 164 63 217 63 c 0
 321 63 350 172 350 172 c 1
264 561 m 2xb240
 209 561 l 2
 201 561 199 567 201 571 c 2
 275 725 l 2
 278 731 283 735 292 735 c 2
 374 735 l 2
 381 735 385 730 381 724 c 2
 283 572 l 2
 278 564 273 561 264 561 c 2xb240
EndSplineSet
Substitution2: "'salt' Stylistic Alternatives in Latin lookup 5 subtable" aacute.alt
EndChar

StartChar: a
Encoding: 97 97 106
Width: 513
Flags: MW
HStem: -6 69<190.5 244.5> -3 21G<416 456> 189 62<197.5 350 230 350> 298 190<80.5 315 93 315> 414 74<216 281.5>
VStem: 40 90<106.5 146.5 106.5 160.5> 66 82<340.5 359.5 333.5 391> 350 88<172 189 189 189 251 316> 350 129
LayerCount: 2
Fore
SplineSet
479 52 m 2xb480
 479 14 l 2
 479 6 472 -3 440 -3 c 0x7480
 392 -3 359 22 359 72 c 2
 359 77 l 1
 340 44 295 -6 194 -6 c 0
 96 -6 40 43 40 119 c 0
 40 202 98 251 230 251 c 2
 350 251 l 1
 350 319 l 2
 350 384 314 414 249 414 c 0xad
 183 414 148 382 148 337 c 0
 148 330 150 317 152 309 c 0
 154 302 149 298 138 298 c 2
 93 298 l 2
 68 298 66 329 66 352 c 0
 66 430 131 488 251 488 c 0
 379 488 438 428 438 316 c 2
 438 115 l 2xb3
 438 88 445 70 465 66 c 0
 471 65 479 62 479 52 c 2xb480
350 172 m 1
 350 189 l 1
 230 189 l 2
 165 189 130 166 130 127 c 0
 130 86 164 63 217 63 c 0xb5
 321 63 350 172 350 172 c 1
EndSplineSet
Substitution2: "'ordn' Ordinals in Latin lookup 6 subtable" ordfeminine
Substitution2: "'salt' Stylistic Alternatives in Latin lookup 5 subtable" a.alt
Substitution2: "'aalt' Access All Alternates in Latin lookup 0 subtable" ordfeminine
EndChar

StartChar: abreve
Encoding: 259 259 107
Width: 513
Flags: MW
HStem: -6 69<190.5 244.5> -3 21G<416 456> 189 62<197.5 350 230 350> 298 190<80.5 315 93 315> 414 74<216 281.5> 562 62<221.5 268 221.5 283.5> 562 130<137 283.5>
VStem: 40 90<106.5 146.5 106.5 160.5> 66 82<340.5 359.5 333.5 391> 125 247<676 679.5> 350 88<172 189 189 189 251 316> 350 129
LayerCount: 2
Fore
SplineSet
479 52 m 2xb510
 479 14 l 2
 479 6 472 -3 440 -3 c 0x7510
 392 -3 359 22 359 72 c 2
 359 77 l 1
 340 44 295 -6 194 -6 c 0
 96 -6 40 43 40 119 c 0
 40 202 98 251 230 251 c 2
 350 251 l 1
 350 319 l 2
 350 384 314 414 249 414 c 0xad20
 183 414 148 382 148 337 c 0
 148 330 150 317 152 309 c 0
 154 302 149 298 138 298 c 2
 93 298 l 2
 68 298 66 329 66 352 c 0
 66 430 131 488 251 488 c 0
 379 488 438 428 438 316 c 2
 438 115 l 2xb4a0
 438 88 445 70 465 66 c 0
 471 65 479 62 479 52 c 2xb510
350 172 m 1
 350 189 l 1
 230 189 l 2
 165 189 130 166 130 127 c 0
 130 86 164 63 217 63 c 0xb320
 321 63 350 172 350 172 c 1
318 692 m 2
 359 692 l 2
 368 692 372 685 372 676 c 0
 369 597 318 562 249 562 c 0
 176 562 125 607 125 676 c 0
 125 683 127 692 137 692 c 2
 179 692 l 2xb240
 187 692 192 691 192 684 c 0
 193 669 195 624 248 624 c 0xb520
 288 624 303 648 305 684 c 0
 305 691 310 692 318 692 c 2
EndSplineSet
Substitution2: "'salt' Stylistic Alternatives in Latin lookup 5 subtable" abreve.alt
EndChar

StartChar: acircumflex
Encoding: 226 226 108
Width: 513
Flags: MW
HStem: -6 69<190.5 244.5> -3 21G<416 456> 189 62<197.5 350 230 350> 298 190<80.5 315 93 315> 414 74<216 281.5> 703 20G<222 289 289 294.5>
VStem: 40 90<106.5 146.5 106.5 160.5> 66 82<340.5 359.5 333.5 391> 350 88<172 189 189 189 251 316> 350 129
LayerCount: 2
Fore
SplineSet
479 52 m 2xb640
 479 14 l 2
 479 6 472 -3 440 -3 c 0x7640
 392 -3 359 22 359 72 c 2
 359 77 l 1
 340 44 295 -6 194 -6 c 0
 96 -6 40 43 40 119 c 0
 40 202 98 251 230 251 c 2
 350 251 l 1
 350 319 l 2
 350 384 314 414 249 414 c 0xae80
 183 414 148 382 148 337 c 0
 148 330 150 317 152 309 c 0
 154 302 149 298 138 298 c 2
 93 298 l 2
 68 298 66 329 66 352 c 0
 66 430 131 488 251 488 c 0
 379 488 438 428 438 316 c 2
 438 115 l 2xb580
 438 88 445 70 465 66 c 0
 471 65 479 62 479 52 c 2xb640
350 172 m 1
 350 189 l 1
 230 189 l 2
 165 189 130 166 130 127 c 0
 130 86 164 63 217 63 c 0xb680
 321 63 350 172 350 172 c 1
182 549 m 2
 139 549 l 2
 126 549 121 556 126 565 c 2
 198 707 l 2
 204 719 210 723 222 723 c 2
 289 723 l 2
 300 723 307 719 313 707 c 2
 385 565 l 2
 390 556 384 549 371 549 c 2
 328 549 l 2
 316 549 310 555 305 564 c 2
 255 656 l 1
 205 564 l 2
 200 555 194 549 182 549 c 2
EndSplineSet
Substitution2: "'salt' Stylistic Alternatives in Latin lookup 5 subtable" acircumflex.alt
EndChar

StartChar: adieresis
Encoding: 228 228 109
Width: 513
Flags: MW
HStem: -6 69<190.5 244.5> -3 21G<416 456> 189 62<197.5 350 230 350> 298 190<80.5 315 93 315> 414 74<216 281.5> 584 104<149.5 178 332 360.5>
VStem: 40 90<106.5 146.5 106.5 160.5> 66 82<340.5 359.5 333.5 391> 112 103<621.5 650> 294 104<621.5 650> 350 88<172 189 189 189 251 316> 350 129
LayerCount: 2
Fore
SplineSet
479 52 m 2xb610
 479 14 l 2
 479 6 472 -3 440 -3 c 0x7610
 392 -3 359 22 359 72 c 2
 359 77 l 1
 340 44 295 -6 194 -6 c 0
 96 -6 40 43 40 119 c 0
 40 202 98 251 230 251 c 2
 350 251 l 1
 350 319 l 2
 350 384 314 414 249 414 c 0xae20
 183 414 148 382 148 337 c 0
 148 330 150 317 152 309 c 0
 154 302 149 298 138 298 c 2
 93 298 l 2
 68 298 66 329 66 352 c 0
 66 430 131 488 251 488 c 0
 379 488 438 428 438 316 c 2
 438 115 l 2xb520
 438 88 445 70 465 66 c 0
 471 65 479 62 479 52 c 2xb610
350 172 m 1
 350 189 l 1
 230 189 l 2
 165 189 130 166 130 127 c 0
 130 86 164 63 217 63 c 0xb620
 321 63 350 172 350 172 c 1
164 584 m 0
 135 584 112 607 112 636 c 0
 112 664 135 688 164 688 c 0
 192 688 215 664 215 636 c 0xb4c0
 215 607 192 584 164 584 c 0
346 584 m 0
 318 584 294 607 294 636 c 0
 294 664 318 688 346 688 c 0
 375 688 398 664 398 636 c 0
 398 607 375 584 346 584 c 0
EndSplineSet
Substitution2: "'salt' Stylistic Alternatives in Latin lookup 5 subtable" adieresis.alt
EndChar

StartChar: agrave
Encoding: 224 224 110
Width: 513
Flags: MW
HStem: -6 69<190.5 244.5> -3 21G<416 456> 189 62<197.5 350 230 350> 298 190<80.5 315 93 315> 414 74<216 281.5> 715 20G<118 200 200 204.5>
VStem: 40 90<106.5 146.5 106.5 160.5> 66 82<340.5 359.5 333.5 391> 350 88<172 189 189 189 251 316> 350 129
LayerCount: 2
Fore
SplineSet
479 52 m 2xb640
 479 14 l 2
 479 6 472 -3 440 -3 c 0x7640
 392 -3 359 22 359 72 c 2
 359 77 l 1
 340 44 295 -6 194 -6 c 0
 96 -6 40 43 40 119 c 0
 40 202 98 251 230 251 c 2
 350 251 l 1
 350 319 l 2
 350 384 314 414 249 414 c 0xae80
 183 414 148 382 148 337 c 0
 148 330 150 317 152 309 c 0
 154 302 149 298 138 298 c 2
 93 298 l 2
 68 298 66 329 66 352 c 0
 66 430 131 488 251 488 c 0
 379 488 438 428 438 316 c 2
 438 115 l 2xb580
 438 88 445 70 465 66 c 0
 471 65 479 62 479 52 c 2xb640
350 172 m 1
 350 189 l 1
 230 189 l 2
 165 189 130 166 130 127 c 0
 130 86 164 63 217 63 c 0xb680
 321 63 350 172 350 172 c 1
283 561 m 2
 228 561 l 2
 219 561 214 564 209 572 c 2
 111 724 l 2
 107 730 111 735 118 735 c 2
 200 735 l 2
 209 735 214 731 217 725 c 2
 291 571 l 2
 293 567 291 561 283 561 c 2
EndSplineSet
Substitution2: "'salt' Stylistic Alternatives in Latin lookup 5 subtable" agrave.alt
EndChar

StartChar: amacron
Encoding: 257 257 111
Width: 513
Flags: MW
HStem: -6 69<190.5 244.5> -3 21G<416 456> 189 62<197.5 350 230 350> 298 190<80.5 315 93 315> 414 74<216 281.5> 591 65<120 379 126 378>
VStem: 40 90<106.5 146.5 106.5 160.5> 66 82<340.5 359.5 333.5 391> 350 88<172 189 189 189 251 316> 350 129
LayerCount: 2
Fore
SplineSet
479 52 m 2xb640
 479 14 l 2
 479 6 472 -3 440 -3 c 0x7640
 392 -3 359 22 359 72 c 2
 359 77 l 1
 340 44 295 -6 194 -6 c 0
 96 -6 40 43 40 119 c 0
 40 202 98 251 230 251 c 2
 350 251 l 1
 350 319 l 2
 350 384 314 414 249 414 c 0xae80
 183 414 148 382 148 337 c 0
 148 330 150 317 152 309 c 0
 154 302 149 298 138 298 c 2
 93 298 l 2
 68 298 66 329 66 352 c 0
 66 430 131 488 251 488 c 0
 379 488 438 428 438 316 c 2
 438 115 l 2xb580
 438 88 445 70 465 66 c 0
 471 65 479 62 479 52 c 2xb640
350 172 m 1
 350 189 l 1
 230 189 l 2
 165 189 130 166 130 127 c 0
 130 86 164 63 217 63 c 0xb680
 321 63 350 172 350 172 c 1
126 656 m 2
 379 656 l 2
 389 656 394 651 394 641 c 2
 394 606 l 2
 394 595 388 591 378 591 c 2
 125 591 l 2
 115 591 110 596 110 606 c 2
 110 641 l 2
 110 651 116 656 126 656 c 2
EndSplineSet
Substitution2: "'salt' Stylistic Alternatives in Latin lookup 5 subtable" amacron.alt
EndChar

StartChar: aogonek
Encoding: 261 261 112
Width: 513
Flags: MW
HStem: -172 53<423.5 446 423.5 446.5> -6 69<190.5 244.5> 189 62<197.5 350 230 350> 298 190<89 315 93 315> 414 74<216 281.5>
VStem: 40 90<106.5 146.5 106.5 160.5> 66 82<342.5 359.5 333.5 391> 350 47 350 88<172 189 189 189 251 316>
LayerCount: 2
Fore
SplineSet
487 -104 m 2xf5
 500 -132 l 2
 503 -138 502 -142 498 -146 c 0
 488 -155 464 -172 429 -172 c 0
 382 -172 342 -148 342 -94 c 0
 342 -46 368 -14 395 6 c 1
 373 18 359 40 359 72 c 2
 359 77 l 1
 340 44 295 -6 194 -6 c 0
 96 -6 40 43 40 119 c 0
 40 202 98 251 230 251 c 2
 350 251 l 1
 350 319 l 2
 350 384 314 414 249 414 c 0xed
 183 414 148 382 148 337 c 0
 148 330 152 319 152 311 c 0
 152 304 149 298 138 298 c 2
 93 298 l 2
 85 298 77 301 72 312 c 0
 68 320 66 333 66 352 c 0
 66 430 131 488 251 488 c 0
 379 488 438 428 438 316 c 2
 438 115 l 2xf280
 438 88 445 70 465 66 c 0
 471 65 479 62 479 52 c 2
 479 14 l 2
 479 8 475 3 462 -1 c 0
 437 -10 397 -35 397 -79 c 0
 397 -104 410 -119 437 -119 c 0
 455 -119 467 -111 475 -104 c 0
 480 -100 484 -98 487 -104 c 2xf5
350 172 m 1
 350 189 l 1
 230 189 l 2
 165 189 130 166 130 127 c 0
 130 86 164 63 217 63 c 0
 321 63 350 172 350 172 c 1
EndSplineSet
Substitution2: "'salt' Stylistic Alternatives in Latin lookup 5 subtable" aogonek.alt
EndChar

StartChar: aring
Encoding: 229 229 113
Width: 513
Flags: MW
HStem: -6 69<190.5 244.5> -3 21G<416 456> 189 62<197.5 350 230 350> 298 190<80.5 315 93 315> 414 74<216 281.5> 557 44<244 267.5 244 279.5> 679 45<244 267.5>
VStem: 40 90<106.5 146.5 106.5 160.5> 66 82<340.5 359.5 333.5 391> 172 45<628.5 651.5 628.5 664> 295 44<628.5 651.5> 350 88<172 189 189 189 251 316> 350 129
LayerCount: 2
Fore
SplineSet
479 52 m 2xb768
 479 14 l 2
 479 6 472 -3 440 -3 c 0x7768
 392 -3 359 22 359 72 c 2
 359 77 l 1
 340 44 295 -6 194 -6 c 0
 96 -6 40 43 40 119 c 0
 40 202 98 251 230 251 c 2
 350 251 l 1
 350 319 l 2
 350 384 314 414 249 414 c 0xaf70
 183 414 148 382 148 337 c 0
 148 330 150 317 152 309 c 0
 154 302 149 298 138 298 c 2
 93 298 l 2
 68 298 66 329 66 352 c 0
 66 430 131 488 251 488 c 0
 379 488 438 428 438 316 c 2
 438 115 l 2xb6f0
 438 88 445 70 465 66 c 0
 471 65 479 62 479 52 c 2xb768
350 172 m 1
 350 189 l 1
 230 189 l 2
 165 189 130 166 130 127 c 0
 130 86 164 63 217 63 c 0xb770
 321 63 350 172 350 172 c 1
256 557 m 0
 208 557 172 593 172 640 c 0
 172 688 208 724 256 724 c 0
 303 724 339 688 339 640 c 0
 339 593 303 557 256 557 c 0
295 640 m 0
 295 663 279 679 256 679 c 0
 232 679 217 663 217 640 c 0
 217 617 232 601 256 601 c 0
 279 601 295 617 295 640 c 0
EndSplineSet
Substitution2: "'salt' Stylistic Alternatives in Latin lookup 5 subtable" aring.alt
EndChar

StartChar: atilde
Encoding: 227 227 114
Width: 513
Flags: MW
HStem: -6 69<190.5 244.5> -3 21G<416 456> 189 62<197.5 350 230 350> 298 190<80.5 315 93 315> 414 74<216 281.5> 559 130<99 195 137 149> 587 69<290.5 320 290.5 351.5> 587 127<338 351.5> 620 36
VStem: 40 90<106.5 146.5 106.5 160.5> 66 82<340.5 359.5 333.5 391> 81 67 350 88<172 189 189 189 251 316> 350 129
LayerCount: 2
Fore
SplineSet
479 52 m 2xb444
 479 14 l 2
 479 6 472 -3 440 -3 c 0x7444
 392 -3 359 22 359 72 c 2
 359 77 l 1
 340 44 295 -6 194 -6 c 0
 96 -6 40 43 40 119 c 0
 40 202 98 251 230 251 c 2
 350 251 l 1
 350 319 l 2
 350 384 314 414 249 414 c 0xac48
 183 414 148 382 148 337 c 0
 148 330 150 317 152 309 c 0
 154 302 149 298 138 298 c 2
 93 298 l 2
 68 298 66 329 66 352 c 0
 66 430 131 488 251 488 c 0
 379 488 438 428 438 316 c 2
 438 115 l 2xb428
 438 88 445 70 465 66 c 0
 471 65 479 62 479 52 c 2xb444
350 172 m 1
 350 189 l 1
 230 189 l 2
 165 189 130 166 130 127 c 0
 130 86 164 63 217 63 c 0xb448
 321 63 350 172 350 172 c 1
149 559 m 2
 102 559 l 2
 96 559 91 562 89 567 c 0
 85 575 81 592 81 610 c 0
 81 653 109 689 165 689 c 0xb418
 225 689 268 656 313 656 c 0xb248
 327 656 335 664 335 677 c 0
 335 689 331 700 328 707 c 0
 326 712 330 714 338 714 c 2
 385 714 l 2
 393 714 397 710 398 706 c 0
 401 698 405 682 405 664 c 0
 405 622 379 587 324 587 c 0xb148
 254 587 216 620 178 620 c 0xb0c8
 162 620 151 610 151 594 c 0
 151 583 155 573 158 567 c 0
 161 562 159 559 149 559 c 2
EndSplineSet
Substitution2: "'salt' Stylistic Alternatives in Latin lookup 5 subtable" atilde.alt
EndChar

StartChar: cacute
Encoding: 263 263 115
Width: 492
Flags: MW
HStem: -6 74<246 306 246 317.5> 286 202<196 387 196 416> 414 74<225.5 293.5> 488 247<309 322.5>
VStem: 46 87<172.5 303 172.5 323> 361 82<331.5 354>
LayerCount: 2
Fore
SplineSet
281 561 m 2xac
 226 561 l 2
 218 561 216 567 218 571 c 2
 292 725 l 2
 295 731 300 735 309 735 c 2
 391 735 l 2
 398 735 402 730 398 724 c 2
 300 572 l 2
 295 564 290 561 281 561 c 2xac
46 241 m 0
 46 405 127 488 265 488 c 0
 380 488 443 425 443 340 c 0
 443 323 443 286 416 286 c 2
 387 286 l 2x9c
 369 286 359 290 359 300 c 0
 359 306 361 315 361 325 c 0
 361 383 322 414 265 414 c 0
 186 414 133 364 133 242 c 0
 133 103 216 68 276 68 c 0
 336 68 373 98 390 118 c 0
 398 127 405 133 412 126 c 2
 439 98 l 2
 448 89 448 81 443 74 c 0
 424 49 370 -6 265 -6 c 0
 150 -6 46 65 46 241 c 0
EndSplineSet
EndChar

StartChar: ccaron
Encoding: 269 269 116
Width: 492
Flags: MW
HStem: -6 74<246 306 246 317.5> 286 202<196 387 196 416> 414 74<225.5 293.5> 488 244<196 197 197 203 154 322.5>
VStem: 46 87<172.5 303 172.5 323> 361 82<331.5 354>
LayerCount: 2
Fore
SplineSet
154 732 m 2xcc
 197 732 l 2
 209 732 215 726 220 717 c 2
 270 625 l 1
 320 717 l 2
 325 726 331 732 343 732 c 2
 386 732 l 2
 399 732 404 725 399 716 c 2
 328 574 l 2xac
 322 562 315 558 304 558 c 2
 237 558 l 2
 225 558 219 562 213 574 c 2
 141 716 l 2
 136 725 141 732 154 732 c 2xcc
46 241 m 0
 46 405 127 488 265 488 c 0
 380 488 443 425 443 340 c 0
 443 323 443 286 416 286 c 2
 387 286 l 2
 369 286 359 290 359 300 c 0
 359 306 361 315 361 325 c 0
 361 383 322 414 265 414 c 0
 186 414 133 364 133 242 c 0
 133 103 216 68 276 68 c 0
 336 68 373 98 390 118 c 0
 398 127 405 133 412 126 c 2
 439 98 l 2x9c
 448 89 448 81 443 74 c 0
 424 49 370 -6 265 -6 c 0
 150 -6 46 65 46 241 c 0
EndSplineSet
EndChar

StartChar: ccircumflex
Encoding: 265 265 117
Width: 492
Flags: MW
HStem: -6 74<246 306 246 317.5> 286 202<196 387 196 416> 414 74<225.5 293.5> 703 20G<228 295 295 300.5>
VStem: 46 87<172.5 303 172.5 323> 361 82<331.5 354>
LayerCount: 2
Fore
SplineSet
188 549 m 2xbc
 145 549 l 2
 132 549 127 556 132 565 c 2
 204 707 l 2
 210 719 216 723 228 723 c 2
 295 723 l 2
 306 723 313 719 319 707 c 2
 391 565 l 2
 396 556 390 549 377 549 c 2
 334 549 l 2
 322 549 316 555 311 564 c 2
 261 656 l 1
 211 564 l 2
 206 555 200 549 188 549 c 2xbc
46 241 m 0
 46 405 127 488 265 488 c 0
 380 488 443 425 443 340 c 0
 443 323 443 286 416 286 c 2
 387 286 l 2xdc
 369 286 359 290 359 300 c 0
 359 306 361 315 361 325 c 0
 361 383 322 414 265 414 c 0
 186 414 133 364 133 242 c 0
 133 103 216 68 276 68 c 0
 336 68 373 98 390 118 c 0
 398 127 405 133 412 126 c 2
 439 98 l 2
 448 89 448 81 443 74 c 0
 424 49 370 -6 265 -6 c 0
 150 -6 46 65 46 241 c 0
EndSplineSet
EndChar

StartChar: cdotaccent
Encoding: 267 267 118
Width: 492
Flags: MW
HStem: -6 74<246 306 246 317.5> 286 202<196 387 196 416> 414 74<225.5 293.5> 593 104<254 282>
VStem: 46 87<172.5 303 172.5 323> 216 104<630.5 659> 361 82<331.5 354>
LayerCount: 2
Fore
SplineSet
46 241 m 0xbe
 46 405 127 488 265 488 c 0
 380 488 443 425 443 340 c 0
 443 323 443 286 416 286 c 2
 387 286 l 2xde
 369 286 359 290 359 300 c 0
 359 306 361 315 361 325 c 0
 361 383 322 414 265 414 c 0
 186 414 133 364 133 242 c 0
 133 103 216 68 276 68 c 0
 336 68 373 98 390 118 c 0
 398 127 405 133 412 126 c 2
 439 98 l 2
 448 89 448 81 443 74 c 0
 424 49 370 -6 265 -6 c 0
 150 -6 46 65 46 241 c 0xbe
268 593 m 0
 240 593 216 616 216 645 c 0
 216 673 240 697 268 697 c 0
 296 697 320 673 320 645 c 0
 320 616 296 593 268 593 c 0
EndSplineSet
EndChar

StartChar: dcaron
Encoding: 271 271 119
Width: 557
Flags: MW
HStem: -6 74<229.5 296.5> -3 21G<454 488.5> 414 74<227 298.5 196.5 309> 709 20G<564.5 597.5>
VStem: 47 87<181 298.5 181 328.5> 386 88<178 317 317 317 418 710> 386 129 522 121<654 684 616.5 686.5>
LayerCount: 2
Fore
SplineSet
522 670 m 0xbd
 522 703 548 729 581 729 c 0
 614 729 643 706 643 662 c 0
 643 571 583 540 562 531 c 0
 556 528 552 531 549 536 c 2
 533 561 l 2
 529 567 531 570 536 572 c 0
 549 577 580 591 581 612 c 1
 549 612 522 638 522 670 c 0xbd
386 178 m 2
 386 317 l 2
 385 331 356 414 262 414 c 0
 192 414 134 357 134 240 c 0
 134 122 196 68 263 68 c 0
 366 68 385 174 386 178 c 2
515 52 m 2xbb
 515 13 l 2
 515 4 501 -3 476 -3 c 0x7b
 432 -3 395 22 395 69 c 2
 395 81 l 1
 388 68 353 -6 240 -6 c 0
 144 -6 47 67 47 239 c 0
 47 418 144 488 249 488 c 0
 348 488 383 425 386 418 c 2
 386 711 l 2
 386 721 391 726 401 726 c 2
 459 726 l 2
 469 726 474 720 474 710 c 2
 474 118 l 2xbd
 474 87 481 70 502 66 c 0
 506 65 515 63 515 52 c 2xbb
EndSplineSet
EndChar

StartChar: dcroat
Encoding: 273 273 120
Width: 557
Flags: MW
HStem: -5 74<229.5 296.5> -2 21G<454 488.5> 415 74<227 298.5 196.5 309> 571 69<253 386 259 386 259 386 474 513> 707 20G<401 459 459 464>
VStem: 47 87<182 299.5 182 329.5> 386 88<179 318 318 318 419 571 640 711> 386 129
LayerCount: 2
Fore
SplineSet
515 53 m 2xbd
 515 14 l 2
 515 5 501 -2 476 -2 c 0x7d
 432 -2 395 23 395 70 c 2
 395 82 l 1
 388 69 353 -5 240 -5 c 0
 144 -5 47 68 47 240 c 0
 47 419 144 489 249 489 c 0
 348 489 383 426 386 419 c 2
 386 571 l 1
 258 571 l 2
 248 571 243 576 243 586 c 2
 243 625 l 2
 243 635 249 640 259 640 c 2
 386 640 l 1
 386 712 l 2
 386 722 391 727 401 727 c 2
 459 727 l 2
 469 727 474 721 474 711 c 2
 474 640 l 1
 514 640 l 2
 524 640 529 635 529 625 c 2
 529 586 l 2
 529 576 523 571 513 571 c 2
 474 571 l 1
 474 119 l 2xbe
 474 88 481 71 502 67 c 0
 506 66 515 64 515 53 c 2xbd
386 179 m 2
 386 318 l 2
 385 332 356 415 262 415 c 0
 192 415 134 358 134 241 c 0
 134 123 196 69 263 69 c 0xbe
 366 69 385 175 386 179 c 2
EndSplineSet
EndChar

StartChar: eacute
Encoding: 233 233 121
Width: 497
Flags: MW
HStem: -6 74<248.5 306 248.5 319.5> 68 168<248.5 306> 236 61<138 364 138 429 136 364> 297 117<226.5 296.5 226.5 364 226.5 364> 414 74<226.5 296.5> 488 247<304 329>
VStem: 47 89<228 236 228 323> 364 84<297 329.5 248 330>
LayerCount: 2
Fore
SplineSet
276 561 m 2x97
 221 561 l 2
 213 561 211 567 213 571 c 2
 287 725 l 2
 290 731 295 735 304 735 c 2x4b
 386 735 l 2
 393 735 397 730 393 724 c 2
 295 572 l 2
 290 564 285 561 276 561 c 2x97
429 236 m 2
 136 236 l 1
 136 228 l 1
 141 100 220 68 277 68 c 0
 335 68 371 98 389 118 c 0
 398 128 403 134 410 127 c 2
 441 96 l 2
 448 89 449 82 444 75 c 0
 426 51 373 -6 266 -6 c 0
 151 -6 47 65 47 241 c 0
 47 405 125 488 263 488 c 0xa7
 395 488 448 406 448 253 c 0
 448 243 444 236 429 236 c 2
138 297 m 1
 364 297 l 1
 364 363 335 414 258 414 c 0
 195 414 148 379 138 297 c 1
EndSplineSet
EndChar

StartChar: ebreve
Encoding: 277 277 122
Width: 497
Flags: MW
HStem: -6 74<248.5 306 248.5 319.5> 236 61<138 364 138 429 136 364> 414 74<226.5 296.5> 562 62<236.5 283 236.5 298.5> 562 130<152 298.5>
VStem: 47 89<228 236 228 323> 140 247<676 679.5> 364 84<297 329.5 248 330>
LayerCount: 2
Fore
SplineSet
429 236 m 2xed
 136 236 l 1
 136 228 l 1
 141 100 220 68 277 68 c 0
 335 68 371 98 389 118 c 0
 398 128 403 134 410 127 c 2
 441 96 l 2
 448 89 449 82 444 75 c 0
 426 51 373 -6 266 -6 c 0
 151 -6 47 65 47 241 c 0
 47 405 125 488 263 488 c 0
 395 488 448 406 448 253 c 0
 448 243 444 236 429 236 c 2xed
138 297 m 1
 364 297 l 1
 364 363 335 414 258 414 c 0
 195 414 148 379 138 297 c 1
333 692 m 2
 374 692 l 2
 383 692 387 685 387 676 c 0
 384 597 333 562 264 562 c 0
 191 562 140 607 140 676 c 0
 140 683 142 692 152 692 c 2
 194 692 l 2xee
 202 692 207 691 207 684 c 0
 208 669 210 624 263 624 c 0xf6
 303 624 318 648 320 684 c 0
 320 691 325 692 333 692 c 2
EndSplineSet
EndChar

StartChar: ecaron
Encoding: 283 283 123
Width: 497
Flags: MW
HStem: -6 74<248.5 306 248.5 319.5> 68 168<248.5 306> 236 61<138 364 138 429 136 364> 297 117<226.5 296.5 226.5 364 226.5 364> 414 74<226.5 296.5> 488 244<145 329>
VStem: 47 89<228 236 228 323> 364 84<297 329.5 248 330>
LayerCount: 2
Fore
SplineSet
145 732 m 2x97
 188 732 l 2
 200 732 206 726 211 717 c 2
 261 625 l 1
 311 717 l 2xa7
 316 726 322 732 334 732 c 2
 377 732 l 2
 390 732 395 725 390 716 c 2
 319 574 l 2
 313 562 306 558 295 558 c 2
 228 558 l 2
 216 558 210 562 204 574 c 2x4b
 132 716 l 2
 127 725 132 732 145 732 c 2x97
429 236 m 2
 136 236 l 1
 136 228 l 1
 141 100 220 68 277 68 c 0
 335 68 371 98 389 118 c 0
 398 128 403 134 410 127 c 2
 441 96 l 2
 448 89 449 82 444 75 c 0
 426 51 373 -6 266 -6 c 0
 151 -6 47 65 47 241 c 0
 47 405 125 488 263 488 c 0
 395 488 448 406 448 253 c 0
 448 243 444 236 429 236 c 2
138 297 m 1
 364 297 l 1
 364 363 335 414 258 414 c 0
 195 414 148 379 138 297 c 1
EndSplineSet
EndChar

StartChar: ecircumflex
Encoding: 234 234 124
Width: 497
Flags: MW
HStem: -6 74<248.5 306 248.5 319.5> 236 61<138 364 138 429 136 364> 414 74<226.5 296.5> 703 20G<226 293 293 298.5>
VStem: 47 89<228 236 228 323> 364 84<297 329.5 248 330>
LayerCount: 2
Fore
SplineSet
186 549 m 2
 143 549 l 2
 130 549 125 556 130 565 c 2
 202 707 l 2
 208 719 214 723 226 723 c 2
 293 723 l 2
 304 723 311 719 317 707 c 2
 389 565 l 2
 394 556 388 549 375 549 c 2
 332 549 l 2
 320 549 314 555 309 564 c 2
 259 656 l 1
 209 564 l 2
 204 555 198 549 186 549 c 2
429 236 m 2
 136 236 l 1
 136 228 l 1
 141 100 220 68 277 68 c 0
 335 68 371 98 389 118 c 0
 398 128 403 134 410 127 c 2
 441 96 l 2
 448 89 449 82 444 75 c 0
 426 51 373 -6 266 -6 c 0
 151 -6 47 65 47 241 c 0
 47 405 125 488 263 488 c 0
 395 488 448 406 448 253 c 0
 448 243 444 236 429 236 c 2
138 297 m 1
 364 297 l 1
 364 363 335 414 258 414 c 0
 195 414 148 379 138 297 c 1
EndSplineSet
EndChar

StartChar: edieresis
Encoding: 235 235 125
Width: 497
Flags: MW
HStem: -6 74<248.5 306 248.5 319.5> 236 61<138 364 138 429 136 364> 414 74<226.5 296.5> 584 104<159.5 188 342 370.5>
VStem: 47 89<228 236 228 323> 122 103<621.5 650> 304 104<621.5 650> 364 84<297 329.5 248 330>
LayerCount: 2
Fore
SplineSet
174 584 m 0xf6
 145 584 122 607 122 636 c 0
 122 664 145 688 174 688 c 0
 202 688 225 664 225 636 c 0
 225 607 202 584 174 584 c 0xf6
356 584 m 0
 328 584 304 607 304 636 c 0
 304 664 328 688 356 688 c 0
 385 688 408 664 408 636 c 0
 408 607 385 584 356 584 c 0
429 236 m 2
 136 236 l 1
 136 228 l 1
 141 100 220 68 277 68 c 0
 335 68 371 98 389 118 c 0
 398 128 403 134 410 127 c 2
 441 96 l 2
 448 89 449 82 444 75 c 0
 426 51 373 -6 266 -6 c 0
 151 -6 47 65 47 241 c 0
 47 405 125 488 263 488 c 0
 395 488 448 406 448 253 c 0xf9
 448 243 444 236 429 236 c 2
138 297 m 1
 364 297 l 1
 364 363 335 414 258 414 c 0
 195 414 148 379 138 297 c 1
EndSplineSet
EndChar

StartChar: edotaccent
Encoding: 279 279 126
Width: 497
Flags: MW
HStem: -6 74<248.5 306 248.5 319.5> 236 61<138 364 138 429 136 364> 414 74<226.5 296.5> 593 104<247 275>
VStem: 47 89<228 236 228 323> 209 104<630.5 659> 364 84<297 329.5 248 330>
LayerCount: 2
Fore
SplineSet
429 236 m 2
 136 236 l 1
 136 228 l 1
 141 100 220 68 277 68 c 0
 335 68 371 98 389 118 c 0
 398 128 403 134 410 127 c 2
 441 96 l 2
 448 89 449 82 444 75 c 0
 426 51 373 -6 266 -6 c 0
 151 -6 47 65 47 241 c 0
 47 405 125 488 263 488 c 0
 395 488 448 406 448 253 c 0
 448 243 444 236 429 236 c 2
138 297 m 1
 364 297 l 1
 364 363 335 414 258 414 c 0
 195 414 148 379 138 297 c 1
261 593 m 0
 233 593 209 616 209 645 c 0
 209 673 233 697 261 697 c 0
 289 697 313 673 313 645 c 0
 313 616 289 593 261 593 c 0
EndSplineSet
EndChar

StartChar: egrave
Encoding: 232 232 127
Width: 497
Flags: MW
HStem: -6 74<248.5 306 248.5 319.5> 236 61<138 364 138 429 136 364> 414 74<226.5 296.5> 715 20G<121 203 203 207.5>
VStem: 47 89<228 236 228 323> 364 84<297 329.5 248 330>
LayerCount: 2
Fore
SplineSet
429 236 m 2
 136 236 l 1
 136 228 l 1
 141 100 220 68 277 68 c 0
 335 68 371 98 389 118 c 0
 398 128 403 134 410 127 c 2
 441 96 l 2
 448 89 449 82 444 75 c 0
 426 51 373 -6 266 -6 c 0
 151 -6 47 65 47 241 c 0
 47 405 125 488 263 488 c 0
 395 488 448 406 448 253 c 0
 448 243 444 236 429 236 c 2
138 297 m 1
 364 297 l 1
 364 363 335 414 258 414 c 0
 195 414 148 379 138 297 c 1
286 561 m 2
 231 561 l 2
 222 561 217 564 212 572 c 2
 114 724 l 2
 110 730 114 735 121 735 c 2
 203 735 l 2
 212 735 217 731 220 725 c 2
 294 571 l 2
 296 567 294 561 286 561 c 2
EndSplineSet
EndChar

StartChar: emacron
Encoding: 275 275 128
Width: 497
Flags: MW
HStem: -6 74<248.5 306 248.5 319.5> 236 61<138 364 138 429 136 364> 414 74<226.5 296.5> 591 65<130 389 136 388>
VStem: 47 89<228 236 228 323> 364 84<297 329.5 248 330>
LayerCount: 2
Fore
SplineSet
429 236 m 2
 136 236 l 1
 136 228 l 1
 141 100 220 68 277 68 c 0
 335 68 371 98 389 118 c 0
 398 128 403 134 410 127 c 2
 441 96 l 2
 448 89 449 82 444 75 c 0
 426 51 373 -6 266 -6 c 0
 151 -6 47 65 47 241 c 0
 47 405 125 488 263 488 c 0
 395 488 448 406 448 253 c 0
 448 243 444 236 429 236 c 2
138 297 m 1
 364 297 l 1
 364 363 335 414 258 414 c 0
 195 414 148 379 138 297 c 1
136 656 m 2
 389 656 l 2
 399 656 404 651 404 641 c 2
 404 606 l 2
 404 595 398 591 388 591 c 2
 135 591 l 2
 125 591 120 596 120 606 c 2
 120 641 l 2
 120 651 126 656 136 656 c 2
EndSplineSet
EndChar

StartChar: eogonek
Encoding: 281 281 129
Width: 497
Flags: MW
HStem: -172 53<272.5 295 272.5 295.5> -172 240<254.5 295.5> 236 61<138 364 138 429 136 364> 414 74<226.5 296.5>
VStem: 47 89<228 236 228 323> 191 55<-91.5 -74> 364 84<297 329.5 248 330>
LayerCount: 2
Fore
SplineSet
47 241 m 0xbe
 47 405 125 488 263 488 c 0
 395 488 448 406 448 253 c 0
 448 243 444 236 429 236 c 2
 136 236 l 1
 136 228 l 1
 141 100 220 68 277 68 c 0x7e
 335 68 371 98 389 118 c 0
 398 128 403 134 410 127 c 2
 441 96 l 2
 448 89 449 82 444 75 c 0
 428 54 387 9 307 -3 c 1
 287 -12 246 -35 246 -79 c 0
 246 -104 259 -119 286 -119 c 0
 304 -119 316 -111 324 -104 c 0
 329 -100 333 -98 336 -104 c 2
 349 -132 l 2
 352 -138 351 -142 347 -146 c 0
 337 -155 313 -172 278 -172 c 0
 231 -172 191 -148 191 -94 c 0
 191 -54 209 -24 231 -4 c 1
 131 9 47 83 47 241 c 0xbe
138 297 m 1
 364 297 l 1
 364 363 335 414 258 414 c 0
 195 414 148 379 138 297 c 1
EndSplineSet
EndChar

StartChar: gbreve
Encoding: 287 287 130
Width: 520
Flags: MW
HStem: -247 74<207 313.5 207 349> -10 64<177.5 311 206 311 311 314> 124 74<241.5 295.5 226.5 316.5> 142 56<166 295.5> 414 60 414 74<227.5 280.5 205.5 296> 562 62<247.5 294 247.5 309.5> 562 130<163 309.5>
VStem: 30 87<-119.5 -66 -119.5 -59> 57 60 57 74 57 87<273 339 273 362.5> 151 247<676 679.5> 381 86<273 338.5> 410 87<-117 -62>
LayerCount: 2
Fore
SplineSet
314 -10 m 2xea4a
 205 -10 l 2
 150 -10 117 -39 117 -93 c 0
 117 -146 156 -173 258 -173 c 0
 369 -173 410 -146 410 -88 c 0
 410 -36 375 -10 314 -10 c 2xea4a
381 306 m 0xda14
 381 371 330 414 262 414 c 0
 193 414 144 372 144 306 c 0
 144 240 192 198 261 198 c 0
 330 198 381 240 381 306 c 0xda14
206 54 m 2
 311 54 l 2
 416 54 497 8 497 -89 c 0
 497 -177 435 -247 263 -247 c 0
 102 -247 30 -192 30 -98 c 0xe98a
 30 -20 89 8 107 18 c 1
 94 27 51 45 51 95 c 0
 51 142 80 168 117 178 c 1
 102 192 57 233 57 306 c 0
 57 419 150 488 261 488 c 0xe64a
 300 488 328 475 335 474 c 0
 416 468 434 524 440 552 c 0
 443 564 447 567 458 565 c 2
 496 559 l 2
 510 557 512 546 512 542 c 0
 505 456 435 439 405 436 c 1
 430 416 467 374 467 306 c 0
 467 191 371 124 262 124 c 0xea84
 221 124 190 138 180 142 c 1
 152 142 131 129 131 99 c 0xda2a
 131 63 162 54 206 54 c 2
344 692 m 2
 385 692 l 2
 394 692 398 685 398 676 c 0
 395 597 344 562 275 562 c 0
 202 562 151 607 151 676 c 0
 151 683 153 692 163 692 c 2
 205 692 l 2xe98a
 213 692 218 691 218 684 c 0
 219 669 221 624 274 624 c 0xea8a
 314 624 329 648 331 684 c 0
 331 691 336 692 344 692 c 2
EndSplineSet
Substitution2: "'salt' Stylistic Alternatives in Latin lookup 5 subtable" gbreve.alt
EndChar

StartChar: gcircumflex
Encoding: 285 285 131
Width: 520
Flags: MW
HStem: -247 74<207 313.5 207 349> -10 64<177.5 311 206 311 311 314> 124 74<241.5 295.5 226.5 316.5> 142 56<166 295.5> 414 60 414 74<227.5 280.5 205.5 296> 737 20G<227 294 294 299.5>
VStem: 30 87<-119.5 -66 -119.5 -59> 57 60 57 74 57 87<273 339 273 362.5> 381 86<273 338.5> 410 87<-117 -62>
LayerCount: 2
Fore
SplineSet
187 583 m 2xea50
 144 583 l 2xea28
 131 583 126 590 131 599 c 2
 203 741 l 2
 209 753 215 757 227 757 c 2
 294 757 l 2
 305 757 312 753 318 741 c 2
 390 599 l 2
 395 590 389 583 376 583 c 2
 333 583 l 2
 321 583 315 589 310 598 c 2
 260 690 l 1
 210 598 l 2
 205 589 199 583 187 583 c 2xea50
314 -10 m 2
 205 -10 l 2
 150 -10 117 -39 117 -93 c 0xda90
 117 -146 156 -173 258 -173 c 0
 369 -173 410 -146 410 -88 c 0
 410 -36 375 -10 314 -10 c 2
381 306 m 0
 381 371 330 414 262 414 c 0
 193 414 144 372 144 306 c 0xea30
 144 240 192 198 261 198 c 0
 330 198 381 240 381 306 c 0
206 54 m 2
 311 54 l 2
 416 54 497 8 497 -89 c 0
 497 -177 435 -247 263 -247 c 0
 102 -247 30 -192 30 -98 c 0xeb08
 30 -20 89 8 107 18 c 1
 94 27 51 45 51 95 c 0
 51 142 80 168 117 178 c 1
 102 192 57 233 57 306 c 0
 57 419 150 488 261 488 c 0xe690
 300 488 328 475 335 474 c 0
 416 468 434 524 440 552 c 0
 443 564 447 567 458 565 c 2
 496 559 l 2
 510 557 512 546 512 542 c 0
 505 456 435 439 405 436 c 1
 430 416 467 374 467 306 c 0
 467 191 371 124 262 124 c 0xeb10
 221 124 190 138 180 142 c 1
 152 142 131 129 131 99 c 0xda50
 131 63 162 54 206 54 c 2
EndSplineSet
Substitution2: "'salt' Stylistic Alternatives in Latin lookup 5 subtable" gcircumflex.alt
EndChar

StartChar: gcommaaccent
Encoding: 291 291 132
Width: 520
Flags: MW
HStem: -247 74<207 313.5 207 349> -10 64<177.5 311 206 311 311 314> 124 74<241.5 295.5 226.5 316.5> 142 56<166 295.5> 414 60 414 74<227.5 280.5 205.5 296> 712 20G<256.5 289.5>
VStem: 30 87<-119.5 -66 -119.5 -59> 57 60 57 74 57 87<273 339 273 362.5> 214 121<657 687 619.5 689.5> 381 86<273 338.5> 410 87<-117 -62>
LayerCount: 2
Fore
SplineSet
214 673 m 0xea94
 214 706 240 732 273 732 c 0
 306 732 335 709 335 665 c 0
 335 574 275 543 254 534 c 0
 248 531 244 534 241 539 c 2
 225 564 l 2
 221 570 223 573 228 575 c 0
 241 580 272 594 273 615 c 1
 241 615 214 641 214 673 c 0xea94
314 -10 m 2
 205 -10 l 2
 150 -10 117 -39 117 -93 c 0
 117 -146 156 -173 258 -173 c 0
 369 -173 410 -146 410 -88 c 0
 410 -36 375 -10 314 -10 c 2
381 306 m 0xda38
 381 371 330 414 262 414 c 0
 193 414 144 372 144 306 c 0
 144 240 192 198 261 198 c 0
 330 198 381 240 381 306 c 0xda38
206 54 m 2
 311 54 l 2
 416 54 497 8 497 -89 c 0
 497 -177 435 -247 263 -247 c 0
 102 -247 30 -192 30 -98 c 0xeb14
 30 -20 89 8 107 18 c 1
 94 27 51 45 51 95 c 0
 51 142 80 168 117 178 c 1
 102 192 57 233 57 306 c 0
 57 419 150 488 261 488 c 0xe698
 300 488 328 475 335 474 c 0
 416 468 434 524 440 552 c 0
 443 564 447 567 458 565 c 2
 496 559 l 2
 510 557 512 546 512 542 c 0
 505 456 435 439 405 436 c 1
 430 416 467 374 467 306 c 0
 467 191 371 124 262 124 c 0xeb18
 221 124 190 138 180 142 c 1
 152 142 131 129 131 99 c 0xda58
 131 63 162 54 206 54 c 2
EndSplineSet
Substitution2: "'salt' Stylistic Alternatives in Latin lookup 5 subtable" gcommaaccent.alt
EndChar

StartChar: gdotaccent
Encoding: 289 289 133
Width: 520
Flags: MW
HStem: -247 74<207 313.5 207 349> -10 64<177.5 311 206 311 311 314> 124 74<241.5 295.5 226.5 316.5> 142 56<166 295.5> 414 60 414 74<227.5 280.5 205.5 296> 593 104<257 285>
VStem: 30 87<-119.5 -66 -119.5 -59> 57 60 57 74 57 87<273 339 273 362.5> 219 104<630.5 659> 381 86<273 338.5> 410 87<-117 -62>
LayerCount: 2
Fore
SplineSet
314 -10 m 2xea94
 205 -10 l 2
 150 -10 117 -39 117 -93 c 0
 117 -146 156 -173 258 -173 c 0
 369 -173 410 -146 410 -88 c 0
 410 -36 375 -10 314 -10 c 2xea94
381 306 m 0xda38
 381 371 330 414 262 414 c 0
 193 414 144 372 144 306 c 0
 144 240 192 198 261 198 c 0
 330 198 381 240 381 306 c 0xda38
206 54 m 2
 311 54 l 2
 416 54 497 8 497 -89 c 0
 497 -177 435 -247 263 -247 c 0
 102 -247 30 -192 30 -98 c 0xeb14
 30 -20 89 8 107 18 c 1
 94 27 51 45 51 95 c 0
 51 142 80 168 117 178 c 1
 102 192 57 233 57 306 c 0
 57 419 150 488 261 488 c 0xe698
 300 488 328 475 335 474 c 0
 416 468 434 524 440 552 c 0
 443 564 447 567 458 565 c 2
 496 559 l 2
 510 557 512 546 512 542 c 0
 505 456 435 439 405 436 c 1
 430 416 467 374 467 306 c 0
 467 191 371 124 262 124 c 0xeb18
 221 124 190 138 180 142 c 1
 152 142 131 129 131 99 c 0xda58
 131 63 162 54 206 54 c 2
271 593 m 0
 243 593 219 616 219 645 c 0
 219 673 243 697 271 697 c 0
 299 697 323 673 323 645 c 0
 323 616 299 593 271 593 c 0
EndSplineSet
Substitution2: "'salt' Stylistic Alternatives in Latin lookup 5 subtable" gdotaccent.alt
EndChar

StartChar: hbar
Encoding: 295 295 134
Width: 545
Flags: MW
HStem: -3 21G<444 486.5> 0 21G<82 87 87 145> 414 74<263.5 311.5> 580 69<34 72 40 72 40 72 160 308> 706 20G<87 145 145 150>
VStem: 72 88<15 16 16 277 397 580 649 710> 382 89<103 113 113 299> 382 130<7.5 306>
LayerCount: 2
Fore
SplineSet
72 15 m 2x7e
 72 580 l 1
 39 580 l 2
 29 580 24 585 24 595 c 2
 24 634 l 2
 24 644 30 649 40 649 c 2
 72 649 l 1
 72 711 l 2
 72 721 77 726 87 726 c 2
 145 726 l 2
 155 726 160 720 160 710 c 2
 160 649 l 1
 309 649 l 2
 319 649 324 644 324 634 c 2
 324 595 l 2
 324 584 318 580 308 580 c 2
 160 580 l 1
 160 397 l 1
 179 447 226 488 301 488 c 0
 423 488 471 403 471 299 c 2
 471 113 l 2x7e
 471 87 478 71 498 66 c 0
 502 65 512 63 512 52 c 2
 512 12 l 2
 512 3 501 -3 472 -3 c 0xbd
 416 -3 382 29 382 103 c 2
 382 306 l 2
 382 367 346 414 277 414 c 0
 196 414 160 335 160 277 c 2
 160 16 l 2
 160 6 155 0 145 0 c 2
 87 0 l 2
 77 0 72 5 72 15 c 2x7e
EndSplineSet
EndChar

StartChar: hcircumflex
Encoding: 293 293 135
Width: 544
Flags: MW
HStem: -3 21G<443 485.5> 0 21G<81 86 86 144> 414 74<262.5 310.5> 915 20G<220 287 287 292.5>
VStem: 71 88<15 16 16 277 397 710> 381 89<103 113 113 299> 381 130<7.5 306>
LayerCount: 2
Fore
SplineSet
180 761 m 2x7c
 137 761 l 2
 124 761 119 768 124 777 c 2
 196 919 l 2
 202 931 208 935 220 935 c 2
 287 935 l 2
 298 935 305 931 311 919 c 2
 383 777 l 2
 388 768 382 761 369 761 c 2
 326 761 l 2
 314 761 308 767 303 776 c 2
 253 868 l 1
 203 776 l 2
 198 767 192 761 180 761 c 2x7c
71 15 m 2
 71 711 l 2
 71 721 76 726 86 726 c 2
 144 726 l 2
 154 726 159 720 159 710 c 2
 159 397 l 1
 178 447 225 488 300 488 c 0
 422 488 470 403 470 299 c 2
 470 113 l 2x7c
 470 87 477 71 497 66 c 0
 501 65 511 63 511 52 c 2
 511 12 l 2
 511 3 500 -3 471 -3 c 0xba
 415 -3 381 29 381 103 c 2
 381 306 l 2
 381 367 345 414 276 414 c 0
 195 414 159 335 159 277 c 2
 159 16 l 2
 159 6 154 0 144 0 c 2
 86 0 l 2
 76 0 71 5 71 15 c 2
EndSplineSet
EndChar

StartChar: lacute
Encoding: 314 314 136
Width: 242
Flags: MW
HStem: -3 21G<131 173.5> 926 20G<167 249 249 252.5>
VStem: 69 89<103 113 113 709> 69 130<8 710>
LayerCount: 2
Fore
SplineSet
139 772 m 2xe0
 84 772 l 2
 76 772 74 778 76 782 c 2
 150 936 l 2
 153 942 158 946 167 946 c 2
 249 946 l 2
 256 946 260 941 256 935 c 2
 158 783 l 2
 153 775 148 772 139 772 c 2xe0
199 52 m 2
 199 13 l 2
 199 3 188 -3 159 -3 c 0
 103 -3 69 29 69 103 c 2
 69 710 l 2
 69 720 74 725 84 725 c 2
 143 725 l 2
 153 725 158 719 158 709 c 2xe0
 158 113 l 2
 158 87 164 70 186 66 c 0xd0
 190 65 199 63 199 52 c 2
EndSplineSet
EndChar

StartChar: lcaron
Encoding: 318 318 137
Width: 242
Flags: MW
HStem: -3 21G<131 173.5> 719 20G<248.5 281.5>
VStem: 69 89<103 113 113 709> 69 130<8 710> 206 121<664 694 626.5 696.5>
LayerCount: 2
Fore
SplineSet
206 680 m 0xd8
 206 713 232 739 265 739 c 0
 298 739 327 716 327 672 c 0
 327 581 267 550 246 541 c 0
 240 538 236 541 233 546 c 2
 217 571 l 2
 213 577 215 580 220 582 c 0
 233 587 264 601 265 622 c 1
 233 622 206 648 206 680 c 0xd8
199 52 m 2
 199 13 l 2xd8
 199 3 188 -3 159 -3 c 0
 103 -3 69 29 69 103 c 2
 69 710 l 2
 69 720 74 725 84 725 c 2
 143 725 l 2
 153 725 158 719 158 709 c 2
 158 113 l 2xe8
 158 87 164 70 186 66 c 0
 190 65 199 63 199 52 c 2
EndSplineSet
EndChar

StartChar: lcommaaccent
Encoding: 316 316 138
Width: 242
Flags: MW
HStem: -39 36<131 146.5> 705 20G<84 143 143 148>
VStem: 69 89<103 113 113 709> 69 123
LayerCount: 2
Fore
SplineSet
71 -98 m 0xd0
 71 -65 97 -39 130 -39 c 0
 163 -39 192 -62 192 -106 c 0
 192 -197 132 -228 111 -237 c 0
 105 -240 101 -237 98 -232 c 2
 82 -207 l 2
 78 -201 80 -198 85 -196 c 0
 98 -191 129 -177 130 -156 c 1
 98 -156 71 -130 71 -98 c 0xd0
199 52 m 2
 199 13 l 2
 199 3 188 -3 159 -3 c 0
 103 -3 69 29 69 103 c 2
 69 710 l 2
 69 720 74 725 84 725 c 2
 143 725 l 2
 153 725 158 719 158 709 c 2
 158 113 l 2xe0
 158 87 164 70 186 66 c 0
 190 65 199 63 199 52 c 2
EndSplineSet
EndChar

StartChar: ldot
Encoding: 320 320 139
Width: 294
Flags: MW
HStem: -3 21G<131 173.5> 151 104<246 274> 705 20G<84 143 143 148>
VStem: 69 89<103 113 113 709> 69 130<8 710> 208 104<188.5 217>
LayerCount: 2
Fore
SplineSet
199 52 m 2xec
 199 13 l 2xec
 199 3 188 -3 159 -3 c 0
 103 -3 69 29 69 103 c 2
 69 710 l 2
 69 720 74 725 84 725 c 2
 143 725 l 2
 153 725 158 719 158 709 c 2
 158 113 l 2xf4
 158 87 164 70 186 66 c 0
 190 65 199 63 199 52 c 2xec
260 151 m 0
 232 151 208 174 208 203 c 0
 208 231 232 255 260 255 c 0
 288 255 312 231 312 203 c 0
 312 174 288 151 260 151 c 0
EndSplineSet
EndChar

StartChar: lslash
Encoding: 322 322 140
Width: 315
Flags: MW
HStem: -3 21G<176 218.5> 705 20G<129 188 188 193>
VStem: 114 89<103 113 113 321 321 321 449 709> 114 130<8 321>
LayerCount: 2
Fore
SplineSet
244 52 m 2xd0
 244 13 l 2xd0
 244 3 233 -3 204 -3 c 0
 148 -3 114 29 114 103 c 2
 114 321 l 1
 62 291 l 2
 54 286 45 289 40 298 c 2
 25 325 l 2
 20 334 19 342 29 348 c 2
 114 397 l 1
 114 710 l 2
 114 720 119 725 129 725 c 2
 188 725 l 2
 198 725 203 719 203 709 c 2
 203 449 l 1
 260 483 l 2
 268 488 278 487 284 478 c 2
 301 450 l 2
 307 441 307 434 297 428 c 2
 203 373 l 1
 203 113 l 2xe0
 203 87 209 70 231 66 c 0
 235 65 244 63 244 52 c 2xd0
EndSplineSet
EndChar

StartChar: nacute
Encoding: 324 324 141
Width: 557
Flags: MW
HStem: -3 21G<456 498.5> 0 21G<94 99 99 158> 414 74<268 325.5> 465 20G<67.5 104> 488 247<328 374>
VStem: 43 129 84 88<16 275> 394 89<103 113 113 299> 394 130<9 299>
LayerCount: 2
Fore
SplineSet
300 561 m 2x9d
 245 561 l 2
 237 561 235 567 237 571 c 2
 311 725 l 2xa5
 314 731 319 735 328 735 c 2
 410 735 l 2
 417 735 421 730 417 724 c 2
 319 572 l 2
 314 564 309 561 300 561 c 2x9d
84 16 m 2
 84 370 l 2
 84 395 77 412 55 416 c 0
 49 417 43 420 43 435 c 2
 43 469 l 2
 43 480 52 485 83 485 c 0
 125 485 162 458 162 412 c 2
 162 387 l 1
 177 439 223 488 313 488 c 0
 435 488 483 403 483 299 c 2
 483 113 l 2
 483 86 490 71 511 66 c 0x5b
 515 65 524 60 524 48 c 2
 524 15 l 2
 524 3 513 -3 484 -3 c 0
 428 -3 394 29 394 103 c 2
 394 299 l 2
 394 366 362 414 289 414 c 0
 208 414 172 335 172 275 c 2
 172 15 l 2xa480
 172 5 168 0 158 0 c 2
 99 0 l 2
 89 0 84 6 84 16 c 2
EndSplineSet
EndChar

StartChar: ncaron
Encoding: 328 328 142
Width: 557
Flags: MW
HStem: -3 21G<456 498.5> 0 21G<94 99 99 158> 414 74<268 325.5> 465 20G<67.5 104> 488 244<370 374>
VStem: 43 129 84 88<16 275> 394 89<103 113 113 299> 394 130<9 299>
LayerCount: 2
Fore
SplineSet
181 732 m 2xa3
 224 732 l 2
 236 732 242 726 247 717 c 2
 297 625 l 1xa480
 347 717 l 2
 352 726 358 732 370 732 c 2
 413 732 l 2
 426 732 431 725 426 716 c 2
 355 574 l 2xa5
 349 562 342 558 331 558 c 2
 264 558 l 2
 252 558 246 562 240 574 c 2
 168 716 l 2x9d
 163 725 168 732 181 732 c 2xa3
84 16 m 2
 84 370 l 2
 84 395 77 412 55 416 c 0
 49 417 43 420 43 435 c 2
 43 469 l 2
 43 480 52 485 83 485 c 0
 125 485 162 458 162 412 c 2
 162 387 l 1
 177 439 223 488 313 488 c 0
 435 488 483 403 483 299 c 2
 483 113 l 2
 483 86 490 71 511 66 c 0
 515 65 524 60 524 48 c 2
 524 15 l 2
 524 3 513 -3 484 -3 c 0
 428 -3 394 29 394 103 c 2
 394 299 l 2x5b
 394 366 362 414 289 414 c 0
 208 414 172 335 172 275 c 2
 172 15 l 2
 172 5 168 0 158 0 c 2
 99 0 l 2
 89 0 84 6 84 16 c 2
EndSplineSet
EndChar

StartChar: ncommaaccent
Encoding: 326 326 143
Width: 557
Flags: MW
HStem: -39 36 0 21G<94 99 99 158> 414 74<268 325.5> 465 20G<67.5 104>
VStem: 43 129 84 88<16 275> 239 121<-114 -84 -151.5 -81.5> 394 89<103 113 113 299> 394 130<9 299>
LayerCount: 2
Fore
SplineSet
239 -98 m 0xe7
 239 -65 265 -39 298 -39 c 0
 331 -39 360 -62 360 -106 c 0
 360 -197 300 -228 279 -237 c 0
 273 -240 269 -237 266 -232 c 2
 250 -207 l 2
 246 -201 248 -198 253 -196 c 0
 266 -191 297 -177 298 -156 c 1
 266 -156 239 -130 239 -98 c 0xe7
84 16 m 2
 84 370 l 2xe7
 84 395 77 412 55 416 c 0
 49 417 43 420 43 435 c 2
 43 469 l 2
 43 480 52 485 83 485 c 0xdb
 125 485 162 458 162 412 c 2
 162 387 l 1
 177 439 223 488 313 488 c 0
 435 488 483 403 483 299 c 2
 483 113 l 2xeb
 483 86 490 71 511 66 c 0
 515 65 524 60 524 48 c 2
 524 15 l 2xea80
 524 3 513 -3 484 -3 c 0
 428 -3 394 29 394 103 c 2
 394 299 l 2
 394 366 362 414 289 414 c 0
 208 414 172 335 172 275 c 2
 172 15 l 2
 172 5 168 0 158 0 c 2
 99 0 l 2
 89 0 84 6 84 16 c 2
EndSplineSet
EndChar

StartChar: ntilde
Encoding: 241 241 144
Width: 557
Flags: MW
HStem: -3 21G<456 498.5> 0 21G<94 99 99 158> 414 74<268 325.5> 465 20G<67.5 104> 559 130<127 223 165 177> 587 69<318.5 348 318.5 379.5> 587 127<366 379.5> 620 36
VStem: 43 129 84 88<16 275> 109 63 394 89<103 113 113 299> 394 130<9 299>
LayerCount: 2
Fore
SplineSet
177 559 m 2x6890
 130 559 l 2
 124 559 119 562 117 567 c 0
 113 575 109 592 109 610 c 0
 109 653 137 689 193 689 c 0x6830
 253 689 296 656 341 656 c 0x6490
 355 656 363 664 363 677 c 0
 363 689 359 700 356 707 c 0
 354 712 358 714 366 714 c 2
 413 714 l 2
 421 714 425 710 426 706 c 0
 429 698 433 682 433 664 c 0
 433 622 407 587 352 587 c 0x6290
 282 587 244 620 206 620 c 0x6190
 190 620 179 610 179 594 c 0
 179 583 183 573 186 567 c 0
 189 562 187 559 177 559 c 2x6890
84 16 m 2x6850
 84 370 l 2x6850
 84 395 77 412 55 416 c 0
 49 417 43 420 43 435 c 2
 43 469 l 2
 43 480 52 485 83 485 c 0x5890
 125 485 162 458 162 412 c 2
 162 387 l 1
 177 439 223 488 313 488 c 0
 435 488 483 403 483 299 c 2
 483 113 l 2x6890
 483 86 490 71 511 66 c 0
 515 65 524 60 524 48 c 2
 524 15 l 2
 524 3 513 -3 484 -3 c 0xa888
 428 -3 394 29 394 103 c 2
 394 299 l 2
 394 366 362 414 289 414 c 0
 208 414 172 335 172 275 c 2
 172 15 l 2
 172 5 168 0 158 0 c 2
 99 0 l 2
 89 0 84 6 84 16 c 2x6850
EndSplineSet
EndChar

StartChar: oacute
Encoding: 243 243 145
Width: 523
Flags: MW
HStem: -6 74<223 299.5 223 327> 414 74<223.5 299> 488 247<307 326.5>
VStem: 47 87<183.5 298.5 183.5 318.5> 388 88<183.5 298.5>
LayerCount: 2
Fore
SplineSet
279 561 m 2xd8
 224 561 l 2
 216 561 214 567 216 571 c 2
 290 725 l 2
 293 731 298 735 307 735 c 2
 389 735 l 2
 396 735 400 730 396 724 c 2
 298 572 l 2
 293 564 288 561 279 561 c 2xd8
261 -6 m 0
 130 -6 47 86 47 241 c 0
 47 396 130 488 261 488 c 0
 392 488 476 396 476 241 c 0
 476 87 393 -6 261 -6 c 0
261 68 m 0xb8
 338 68 388 126 388 241 c 0
 388 356 337 414 261 414 c 0
 186 414 134 356 134 241 c 0
 134 126 185 68 261 68 c 0xb8
EndSplineSet
EndChar

StartChar: obreve
Encoding: 335 335 146
Width: 523
Flags: MW
HStem: -6 74<223 299.5 223 327> 414 74<223.5 299> 562 62<236.5 283 236.5 298.5> 562 130<152 298.5>
VStem: 47 87<183.5 298.5 183.5 318.5> 140 247<676 679.5> 388 88<183.5 298.5>
LayerCount: 2
Fore
SplineSet
261 -6 m 0xde
 130 -6 47 86 47 241 c 0
 47 396 130 488 261 488 c 0
 392 488 476 396 476 241 c 0
 476 87 393 -6 261 -6 c 0xde
261 68 m 0
 338 68 388 126 388 241 c 0
 388 356 337 414 261 414 c 0
 186 414 134 356 134 241 c 0
 134 126 185 68 261 68 c 0
333 692 m 2
 374 692 l 2
 383 692 387 685 387 676 c 0
 384 597 333 562 264 562 c 0
 191 562 140 607 140 676 c 0
 140 683 142 692 152 692 c 2
 194 692 l 2xde
 202 692 207 691 207 684 c 0
 208 669 210 624 263 624 c 0xee
 303 624 318 648 320 684 c 0
 320 691 325 692 333 692 c 2
EndSplineSet
EndChar

StartChar: ocircumflex
Encoding: 244 244 147
Width: 523
Flags: MW
HStem: -6 74<223 299.5 223 327> 414 74<223.5 299> 703 20G<228 295 295 300.5>
VStem: 47 87<183.5 298.5 183.5 318.5> 388 88<183.5 298.5>
LayerCount: 2
Fore
SplineSet
188 549 m 2
 145 549 l 2
 132 549 127 556 132 565 c 2
 204 707 l 2
 210 719 216 723 228 723 c 2
 295 723 l 2
 306 723 313 719 319 707 c 2
 391 565 l 2
 396 556 390 549 377 549 c 2
 334 549 l 2
 322 549 316 555 311 564 c 2
 261 656 l 1
 211 564 l 2
 206 555 200 549 188 549 c 2
261 -6 m 0
 130 -6 47 86 47 241 c 0
 47 396 130 488 261 488 c 0
 392 488 476 396 476 241 c 0
 476 87 393 -6 261 -6 c 0
261 68 m 0
 338 68 388 126 388 241 c 0
 388 356 337 414 261 414 c 0
 186 414 134 356 134 241 c 0
 134 126 185 68 261 68 c 0
EndSplineSet
EndChar

StartChar: odieresis
Encoding: 246 246 148
Width: 523
Flags: MW
HStem: -6 74<223 299.5 223 327> 414 74<223.5 299> 584 104<161.5 190 344 372.5>
VStem: 47 87<183.5 298.5 183.5 318.5> 124 103<621.5 650> 306 104<621.5 650> 388 88<183.5 298.5>
LayerCount: 2
Fore
SplineSet
176 584 m 0xec
 147 584 124 607 124 636 c 0
 124 664 147 688 176 688 c 0
 204 688 227 664 227 636 c 0
 227 607 204 584 176 584 c 0xec
358 584 m 0
 330 584 306 607 306 636 c 0
 306 664 330 688 358 688 c 0
 387 688 410 664 410 636 c 0
 410 607 387 584 358 584 c 0
261 -6 m 0
 130 -6 47 86 47 241 c 0
 47 396 130 488 261 488 c 0
 392 488 476 396 476 241 c 0xf2
 476 87 393 -6 261 -6 c 0
261 68 m 0
 338 68 388 126 388 241 c 0
 388 356 337 414 261 414 c 0
 186 414 134 356 134 241 c 0
 134 126 185 68 261 68 c 0
EndSplineSet
EndChar

StartChar: ograve
Encoding: 242 242 149
Width: 523
Flags: MW
HStem: -6 74<223 299.5 223 327> 414 74<223.5 299> 715 20G<127 209 209 213.5>
VStem: 47 87<183.5 298.5 183.5 318.5> 388 88<183.5 298.5>
LayerCount: 2
Fore
SplineSet
261 -6 m 0
 130 -6 47 86 47 241 c 0
 47 396 130 488 261 488 c 0
 392 488 476 396 476 241 c 0
 476 87 393 -6 261 -6 c 0
261 68 m 0
 338 68 388 126 388 241 c 0
 388 356 337 414 261 414 c 0
 186 414 134 356 134 241 c 0
 134 126 185 68 261 68 c 0
292 561 m 2
 237 561 l 2
 228 561 223 564 218 572 c 2
 120 724 l 2
 116 730 120 735 127 735 c 2
 209 735 l 2
 218 735 223 731 226 725 c 2
 300 571 l 2
 302 567 300 561 292 561 c 2
EndSplineSet
EndChar

StartChar: ohungarumlaut
Encoding: 337 337 150
Width: 523
Flags: MW
HStem: -6 74<223 299.5 223 327> 414 74<223.5 299> 561 174<134 303 138 303 302 303 303 306 306 306.5 221 361>
VStem: 47 87<183.5 298.5 183.5 318.5> 388 88<183.5 298.5>
LayerCount: 2
Fore
SplineSet
361 561 m 2
 306 561 l 2
 298 561 296 567 298 571 c 2
 372 725 l 2
 375 731 380 735 389 735 c 2
 471 735 l 2
 478 735 482 730 478 724 c 2
 380 572 l 2
 375 564 370 561 361 561 c 2
193 561 m 2
 138 561 l 2
 130 561 128 567 130 571 c 2
 204 725 l 2
 207 731 212 735 221 735 c 2
 303 735 l 2
 310 735 314 730 310 724 c 2
 212 572 l 2
 207 564 202 561 193 561 c 2
261 -6 m 0
 130 -6 47 86 47 241 c 0
 47 396 130 488 261 488 c 0
 392 488 476 396 476 241 c 0
 476 87 393 -6 261 -6 c 0
261 68 m 0
 338 68 388 126 388 241 c 0
 388 356 337 414 261 414 c 0
 186 414 134 356 134 241 c 0
 134 126 185 68 261 68 c 0
EndSplineSet
EndChar

StartChar: omacron
Encoding: 333 333 151
Width: 523
Flags: MW
HStem: -6 74<223 299.5 223 327> 414 74<223.5 299> 591 65<136 395 142 394>
VStem: 47 87<183.5 298.5 183.5 318.5> 388 88<183.5 298.5>
LayerCount: 2
Fore
SplineSet
142 656 m 2
 395 656 l 2
 405 656 410 651 410 641 c 2
 410 606 l 2
 410 595 404 591 394 591 c 2
 141 591 l 2
 131 591 126 596 126 606 c 2
 126 641 l 2
 126 651 132 656 142 656 c 2
261 -6 m 0
 130 -6 47 86 47 241 c 0
 47 396 130 488 261 488 c 0
 392 488 476 396 476 241 c 0
 476 87 393 -6 261 -6 c 0
261 68 m 0
 338 68 388 126 388 241 c 0
 388 356 337 414 261 414 c 0
 186 414 134 356 134 241 c 0
 134 126 185 68 261 68 c 0
EndSplineSet
EndChar

StartChar: otilde
Encoding: 245 245 152
Width: 523
Flags: MW
HStem: -6 74<223 299.5 223 327> 414 74<223.5 299> 559 130<111 207 149 161> 587 69<302.5 332 302.5 363.5> 587 127<350 363.5> 620 36
VStem: 47 87<183.5 298.5 183.5 318.5> 93 70<601 602 588.5 631.5> 388 88<183.5 298.5>
LayerCount: 2
Fore
SplineSet
261 -6 m 0xe280
 130 -6 47 86 47 241 c 0
 47 396 130 488 261 488 c 0
 392 488 476 396 476 241 c 0
 476 87 393 -6 261 -6 c 0xe280
261 68 m 0
 338 68 388 126 388 241 c 0
 388 356 337 414 261 414 c 0
 186 414 134 356 134 241 c 0
 134 126 185 68 261 68 c 0
161 559 m 2
 114 559 l 2
 108 559 103 562 101 567 c 0
 97 575 93 592 93 610 c 0
 93 653 121 689 177 689 c 0xe180
 237 689 280 656 325 656 c 0xd280
 339 656 347 664 347 677 c 0
 347 689 343 700 340 707 c 0
 338 712 342 714 350 714 c 2
 397 714 l 2
 405 714 409 710 410 706 c 0
 413 698 417 682 417 664 c 0
 417 622 391 587 336 587 c 0xca80
 266 587 228 620 190 620 c 0
 174 620 163 610 163 594 c 0xc580
 163 583 167 573 170 567 c 0
 173 562 171 559 161 559 c 2
EndSplineSet
EndChar

StartChar: oslash
Encoding: 248 248 153
Width: 523
Flags: MW
HStem: -20 21G<72.5 76 76 118> -6 74<249 299.5 249 327> 414 74<223.5 273.5> 483 20G<411 451 451 454.5>
VStem: 47 87<218 298.5 218 318.5> 388 88<183.5 263>
LayerCount: 2
Fore
SplineSet
261 -6 m 0x6c
 221 -6 185 2 155 19 c 1
 138 -8 l 2
 133 -16 128 -20 118 -20 c 2
 76 -20 l 2
 69 -20 64 -13 69 -5 c 2
 108 55 l 1
 69 98 47 161 47 241 c 0
 47 396 130 488 261 488 c 0xac
 303 488 340 479 371 461 c 1
 391 491 l 2
 396 499 401 503 411 503 c 2
 451 503 l 2x5c
 458 503 463 496 458 488 c 2
 416 423 l 1
 454 381 476 319 476 241 c 0
 476 87 393 -6 261 -6 c 0x6c
134 241 m 0
 134 195 142 158 157 130 c 1
 328 394 l 1
 309 407 286 414 261 414 c 0
 186 414 134 356 134 241 c 0
261 68 m 0
 338 68 388 126 388 241 c 0
 388 285 380 320 367 348 c 1
 197 85 l 1
 215 73 237 68 261 68 c 0
EndSplineSet
EndChar

StartChar: oslashacute
Encoding: 511 511 154
Width: 523
Flags: MW
HStem: -20 21G<72.5 76 76 118> -6 74<249 299.5 249 327> 414 74<223.5 273.5> 488 247<195.5 389 307 458>
VStem: 47 87<218 298.5 218 318.5> 388 88<183.5 263>
LayerCount: 2
Fore
SplineSet
279 561 m 2x6c
 224 561 l 2
 216 561 214 567 216 571 c 2
 290 725 l 2
 293 731 298 735 307 735 c 2
 389 735 l 2
 396 735 400 730 396 724 c 2
 298 572 l 2
 293 564 288 561 279 561 c 2x6c
261 -6 m 0
 221 -6 185 2 155 19 c 1
 138 -8 l 2
 133 -16 128 -20 118 -20 c 2
 76 -20 l 2
 69 -20 64 -13 69 -5 c 2
 108 55 l 1
 69 98 47 161 47 241 c 0
 47 396 130 488 261 488 c 0
 303 488 340 479 371 461 c 1
 391 491 l 2
 396 499 401 503 411 503 c 2xac
 451 503 l 2
 458 503 463 496 458 488 c 2
 416 423 l 1
 454 381 476 319 476 241 c 0
 476 87 393 -6 261 -6 c 0
134 241 m 0
 134 195 142 158 157 130 c 1
 328 394 l 1
 309 407 286 414 261 414 c 0x5c
 186 414 134 356 134 241 c 0
261 68 m 0
 338 68 388 126 388 241 c 0
 388 285 380 320 367 348 c 1
 197 85 l 1
 215 73 237 68 261 68 c 0
EndSplineSet
EndChar

StartChar: racute
Encoding: 341 341 155
Width: 390
Flags: MW
HStem: 0 21G<94 99 99 158> 407 81<265.5 297> 465 20G<68 101.5> 488 247<265.5 296 296 299.5 214 323.5>
VStem: 43 118<385 468 385 473.5> 84 77<15 409 368 409>
LayerCount: 2
Fore
SplineSet
186 561 m 2xb8
 131 561 l 2
 123 561 121 567 123 571 c 2
 197 725 l 2xc4
 200 731 205 735 214 735 c 2
 296 735 l 2
 303 735 307 730 303 724 c 2
 205 572 l 2
 200 564 195 561 186 561 c 2xb8
84 15 m 2
 84 368 l 2
 84 395 77 412 54 416 c 0
 51 417 43 419 43 429 c 2
 43 468 l 2
 43 479 55 485 81 485 c 0xb8
 122 485 161 464 161 409 c 2
 161 385 l 1
 176 437 220 488 311 488 c 0
 336 488 354 483 365 479 c 0
 373 476 376 472 372 463 c 2
 347 408 l 2
 343 400 338 397 331 400 c 0
 322 403 307 407 287 407 c 0
 208 407 173 331 172 275 c 2
 172 16 l 2
 172 6 168 0 158 0 c 2
 99 0 l 2
 89 0 84 5 84 15 c 2
EndSplineSet
EndChar

StartChar: rcaron
Encoding: 345 345 156
Width: 390
Flags: MW
HStem: 0 21G<94 99 99 158> 407 81<265.5 297> 465 20G<68 101.5> 488 244<284 323.5>
VStem: 43 118<385 468 385 473.5> 84 77<15 409 368 409>
LayerCount: 2
Fore
SplineSet
95 732 m 2xc4
 138 732 l 2
 150 732 156 726 161 717 c 2
 211 625 l 1xc4
 261 717 l 2
 266 726 272 732 284 732 c 2
 327 732 l 2
 340 732 345 725 340 716 c 2
 269 574 l 2xb8
 263 562 256 558 245 558 c 2
 178 558 l 2
 166 558 160 562 154 574 c 2
 82 716 l 2
 77 725 82 732 95 732 c 2xc4
84 15 m 2
 84 368 l 2
 84 395 77 412 54 416 c 0
 51 417 43 419 43 429 c 2
 43 468 l 2
 43 479 55 485 81 485 c 0
 122 485 161 464 161 409 c 2
 161 385 l 1
 176 437 220 488 311 488 c 0
 336 488 354 483 365 479 c 0
 373 476 376 472 372 463 c 2
 347 408 l 2
 343 400 338 397 331 400 c 0
 322 403 307 407 287 407 c 0xb8
 208 407 173 331 172 275 c 2
 172 16 l 2
 172 6 168 0 158 0 c 2
 99 0 l 2
 89 0 84 5 84 15 c 2
EndSplineSet
EndChar

StartChar: rcommaaccent
Encoding: 343 343 157
Width: 390
Flags: MW
HStem: -39 39<110.5 143.5> 407 81<265.5 297> 465 20G<68 101.5>
VStem: 43 129 68 121<-114 -84 -151.5 -81.5> 84 88<15 16 16 275>
LayerCount: 2
Fore
SplineSet
68 -98 m 0xc8
 68 -65 94 -39 127 -39 c 0
 160 -39 189 -62 189 -106 c 0
 189 -197 129 -228 108 -237 c 0
 102 -240 98 -237 95 -232 c 2
 79 -207 l 2
 75 -201 77 -198 82 -196 c 0
 95 -191 126 -177 127 -156 c 1
 95 -156 68 -130 68 -98 c 0xc8
84 15 m 2xc4
 84 368 l 2xc4
 84 395 77 412 54 416 c 0
 51 417 43 419 43 429 c 2
 43 468 l 2
 43 479 55 485 81 485 c 0xb0
 122 485 161 464 161 409 c 2
 161 385 l 1
 176 437 220 488 311 488 c 0
 336 488 354 483 365 479 c 0
 373 476 376 472 372 463 c 2
 347 408 l 2
 343 400 338 397 331 400 c 0
 322 403 307 407 287 407 c 0
 208 407 173 331 172 275 c 2
 172 16 l 2
 172 6 168 0 158 0 c 2
 99 0 l 2
 89 0 84 5 84 15 c 2xc4
EndSplineSet
EndChar

StartChar: sacute
Encoding: 347 347 158
Width: 475
Flags: MW
HStem: -6 74<197 272 197 304.5> 68 240<197 359> 308 180<172.5 359 172.5 402> 414 74<208 280.5> 488 247<290 312.5>
VStem: 53 87<282.5 365 282.5 379> 342 87<111.5 183.5>
LayerCount: 2
Fore
SplineSet
262 561 m 2x56
 207 561 l 2
 199 561 197 567 199 571 c 2
 273 725 l 2
 276 731 281 735 290 735 c 2
 372 735 l 2
 379 735 383 730 379 724 c 2
 281 572 l 2xa6
 276 564 271 561 262 561 c 2x56
402 308 m 2
 359 308 l 2
 344 308 344 312 345 319 c 0
 346 326 347 335 347 346 c 0
 347 383 319 414 242 414 c 0
 174 414 140 387 140 343 c 0x8e
 140 222 429 321 429 135 c 0
 429 49 368 -6 241 -6 c 0
 112 -6 55 55 38 80 c 0
 34 86 33 91 39 98 c 2
 76 138 l 2
 82 145 88 141 91 138 c 0
 112 113 157 68 237 68 c 0
 307 68 342 92 342 131 c 0
 342 236 53 149 53 341 c 0
 53 417 104 488 241 488 c 0
 384 488 428 419 428 353 c 0
 428 338 426 326 421 318 c 0
 417 311 410 308 402 308 c 2
EndSplineSet
EndChar

StartChar: scaron
Encoding: 353 353 159
Width: 475
Flags: MW
HStem: -6 74<197 272 197 304.5> 68 240<197 359> 308 180<172.5 359 172.5 402> 414 74<208 280.5> 488 244<172.5 178 129 312.5>
VStem: 53 87<282.5 365 282.5 379> 342 87<111.5 183.5>
LayerCount: 2
Fore
SplineSet
129 732 m 2x56
 172 732 l 2
 184 732 190 726 195 717 c 2
 245 625 l 1
 295 717 l 2
 300 726 306 732 318 732 c 2
 361 732 l 2
 374 732 379 725 374 716 c 2xa6
 303 574 l 2
 297 562 290 558 279 558 c 2
 212 558 l 2
 200 558 194 562 188 574 c 2
 116 716 l 2
 111 725 116 732 129 732 c 2x56
402 308 m 2
 359 308 l 2
 344 308 344 312 345 319 c 0
 346 326 347 335 347 346 c 0
 347 383 319 414 242 414 c 0
 174 414 140 387 140 343 c 0
 140 222 429 321 429 135 c 0
 429 49 368 -6 241 -6 c 0
 112 -6 55 55 38 80 c 0
 34 86 33 91 39 98 c 2
 76 138 l 2
 82 145 88 141 91 138 c 0
 112 113 157 68 237 68 c 0
 307 68 342 92 342 131 c 0x8e
 342 236 53 149 53 341 c 0
 53 417 104 488 241 488 c 0
 384 488 428 419 428 353 c 0
 428 338 426 326 421 318 c 0
 417 311 410 308 402 308 c 2
EndSplineSet
EndChar

StartChar: scedilla
Encoding: 351 351 160
Width: 475
Flags: MW
HStem: -180 49<217.5 243 217.5 256.5> -67 33 -5 73<215 215 267 267> 308 180<172.5 359 172.5 402> 414 74<208 280.5>
VStem: 53 87<282.5 365 282.5 379> 270 52<-111 -94> 342 87<111.5 183.5>
LayerCount: 2
Fore
SplineSet
402 308 m 2xef
 359 308 l 2xf7
 344 308 344 312 345 319 c 0
 346 326 347 335 347 346 c 0
 347 383 319 414 242 414 c 0
 174 414 140 387 140 343 c 0
 140 222 429 321 429 135 c 0
 429 55 376 2 267 -5 c 1
 254 -34 l 1
 284 -35 322 -58 322 -104 c 0
 322 -154 282 -180 231 -180 c 0
 192 -180 167 -162 156 -152 c 0
 152 -148 151 -144 154 -139 c 2
 166 -115 l 2
 170 -108 174 -109 178 -112 c 0
 187 -119 205 -131 230 -131 c 0
 256 -131 270 -120 270 -102 c 0
 270 -86 251 -68 195 -67 c 0
 193 -67 189 -65 191 -60 c 2
 215 -5 l 1
 104 2 54 56 38 80 c 0
 34 86 33 91 39 98 c 2
 76 138 l 2
 82 145 88 141 91 138 c 0
 112 113 157 68 237 68 c 0
 307 68 342 92 342 131 c 0
 342 236 53 149 53 341 c 0
 53 417 104 488 241 488 c 0
 384 488 428 419 428 353 c 0
 428 338 426 326 421 318 c 0
 417 311 410 308 402 308 c 2xef
EndSplineSet
EndChar

StartChar: scircumflex
Encoding: 349 349 161
Width: 475
Flags: MW
HStem: -6 74<197 272 197 304.5> 308 180<172.5 359 172.5 402> 414 74<208 280.5> 703 20G<212 279 279 284.5>
VStem: 53 87<282.5 365 282.5 379> 342 87<111.5 183.5>
LayerCount: 2
Fore
SplineSet
172 549 m 2xdc
 129 549 l 2
 116 549 111 556 116 565 c 2
 188 707 l 2
 194 719 200 723 212 723 c 2
 279 723 l 2
 290 723 297 719 303 707 c 2
 375 565 l 2
 380 556 374 549 361 549 c 2
 318 549 l 2
 306 549 300 555 295 564 c 2
 245 656 l 1
 195 564 l 2
 190 555 184 549 172 549 c 2xdc
402 308 m 2
 359 308 l 2xdc
 344 308 344 312 345 319 c 0
 346 326 347 335 347 346 c 0
 347 383 319 414 242 414 c 0xbc
 174 414 140 387 140 343 c 0
 140 222 429 321 429 135 c 0
 429 49 368 -6 241 -6 c 0
 112 -6 55 55 38 80 c 0
 34 86 33 91 39 98 c 2
 76 138 l 2
 82 145 88 141 91 138 c 0
 112 113 157 68 237 68 c 0
 307 68 342 92 342 131 c 0
 342 236 53 149 53 341 c 0
 53 417 104 488 241 488 c 0
 384 488 428 419 428 353 c 0
 428 338 426 326 421 318 c 0
 417 311 410 308 402 308 c 2
EndSplineSet
EndChar

StartChar: scommaaccent
Encoding: 537 537 162
Width: 475
Flags: MW
HStem: -39 33<233.5 266.5> -6 74<197 272 197 304.5> 68 240<197 359> 414 74<208 280.5>
VStem: 53 87<282.5 365 282.5 379> 191 121<-114 -84 -151.5 -81.5> 342 87<111.5 183.5>
LayerCount: 2
Fore
SplineSet
191 -98 m 0
 191 -65 217 -39 250 -39 c 0
 283 -39 312 -62 312 -106 c 0
 312 -197 252 -228 231 -237 c 0
 225 -240 221 -237 218 -232 c 2
 202 -207 l 2
 198 -201 200 -198 205 -196 c 0
 218 -191 249 -177 250 -156 c 1
 218 -156 191 -130 191 -98 c 0
402 308 m 2
 359 308 l 2
 344 308 344 312 345 319 c 0
 346 326 347 335 347 346 c 0
 347 383 319 414 242 414 c 0
 174 414 140 387 140 343 c 0
 140 222 429 321 429 135 c 0
 429 49 368 -6 241 -6 c 0
 112 -6 55 55 38 80 c 0
 34 86 33 91 39 98 c 2
 76 138 l 2
 82 145 88 141 91 138 c 0
 112 113 157 68 237 68 c 0
 307 68 342 92 342 131 c 0
 342 236 53 149 53 341 c 0
 53 417 104 488 241 488 c 0
 384 488 428 419 428 353 c 0
 428 338 426 326 421 318 c 0
 417 311 410 308 402 308 c 2
EndSplineSet
EndChar

StartChar: tbar
Encoding: 359 359 163
Width: 418
Flags: MW
HStem: -6 75<256 306.5 256 308> 237 69<65 108 70 108 197 329> 411 71<44 108 49 108 197 364> 612 20G<123 182 182 187>
VStem: 108 89<180 183 183 237 145 237 306 411 482 616>
LayerCount: 2
Fore
SplineSet
197 482 m 1
 364 482 l 2
 374 482 380 477 380 467 c 2
 380 427 l 2
 380 417 374 411 364 411 c 2
 197 411 l 1
 197 306 l 1
 329 306 l 2
 339 306 345 301 345 291 c 2
 345 253 l 2
 345 243 339 237 329 237 c 2
 197 237 l 1
 197 183 l 2
 197 107 224 69 288 69 c 0
 325 69 352 86 365 97 c 0
 372 102 377 102 380 95 c 2
 399 54 l 2
 402 48 401 43 395 38 c 0
 378 23 337 -6 279 -6 c 0
 157 -6 108 59 108 180 c 2
 108 237 l 1
 70 237 l 2
 60 237 54 243 54 253 c 2
 54 291 l 2
 54 301 60 306 70 306 c 2
 108 306 l 1
 108 411 l 1
 49 411 l 2
 39 411 33 417 33 427 c 2
 33 467 l 2
 33 477 39 482 49 482 c 2
 108 482 l 1
 108 617 l 2
 108 627 113 632 123 632 c 2
 182 632 l 2
 192 632 197 626 197 616 c 2
 197 482 l 1
EndSplineSet
EndChar

StartChar: tcaron
Encoding: 357 357 164
Width: 418
Flags: MW
HStem: -6 75<255 305.5 255 307> 411 71<43 107 48 107 196 363> 703 20G<283.5 316.5>
VStem: 107 89<180 183 183 411 482 616> 241 121<648 678 610.5 680.5>
LayerCount: 2
Fore
SplineSet
241 664 m 0
 241 697 267 723 300 723 c 0
 333 723 362 700 362 656 c 0
 362 565 302 534 281 525 c 0
 275 522 271 525 268 530 c 2
 252 555 l 2
 248 561 250 564 255 566 c 0
 268 571 299 585 300 606 c 1
 268 606 241 632 241 664 c 0
196 482 m 1
 363 482 l 2
 373 482 379 477 379 467 c 2
 379 427 l 2
 379 417 373 411 363 411 c 2
 196 411 l 1
 196 183 l 2
 196 107 223 69 287 69 c 0
 324 69 351 86 364 97 c 0
 371 102 376 102 379 95 c 2
 398 54 l 2
 401 48 400 43 394 38 c 0
 377 23 336 -6 278 -6 c 0
 156 -6 107 59 107 180 c 2
 107 411 l 1
 48 411 l 2
 38 411 32 417 32 427 c 2
 32 467 l 2
 32 477 38 482 48 482 c 2
 107 482 l 1
 107 617 l 2
 107 627 112 632 122 632 c 2
 181 632 l 2
 191 632 196 626 196 616 c 2
 196 482 l 1
EndSplineSet
EndChar

StartChar: tcommaaccent
Encoding: 355 355 165
Width: 418
Flags: MW
HStem: -67 61<217 247.5> -6 75<255 305.5 255 307> 411 71<43 107 48 107 196 363> 612 20G<122 181 181 186>
VStem: 107 89<180 183 183 411 482 616> 172 121<-142 -112 -179.5 -109.5>
LayerCount: 2
Fore
SplineSet
172 -126 m 0xb4
 172 -93 198 -67 231 -67 c 0
 264 -67 293 -90 293 -134 c 0
 293 -225 233 -256 212 -265 c 0
 206 -268 202 -265 199 -260 c 2
 183 -235 l 2
 179 -229 181 -226 186 -224 c 0
 199 -219 230 -205 231 -184 c 1
 199 -184 172 -158 172 -126 c 0xb4
196 482 m 1x78
 363 482 l 2
 373 482 379 477 379 467 c 2
 379 427 l 2
 379 417 373 411 363 411 c 2
 196 411 l 1
 196 183 l 2
 196 107 223 69 287 69 c 0
 324 69 351 86 364 97 c 0
 371 102 376 102 379 95 c 2
 398 54 l 2
 401 48 400 43 394 38 c 0
 377 23 336 -6 278 -6 c 0
 156 -6 107 59 107 180 c 2
 107 411 l 1
 48 411 l 2
 38 411 32 417 32 427 c 2
 32 467 l 2
 32 477 38 482 48 482 c 2
 107 482 l 1
 107 617 l 2
 107 627 112 632 122 632 c 2
 181 632 l 2
 191 632 196 626 196 616 c 2
 196 482 l 1x78
EndSplineSet
EndChar

StartChar: uacute
Encoding: 250 250 166
Width: 546
Flags: MW
HStem: -6 74<221.5 265.5> -3 21G<437 479.5> 462 20G<82 140 140 145 388 448 448 453> 715 20G<297 379 379 382.5>
VStem: 67 88<167 178 178 466> 374 89<199 466> 374 130
LayerCount: 2
Fore
SplineSet
269 561 m 2x7a
 214 561 l 2
 206 561 204 567 206 571 c 2
 280 725 l 2
 283 731 288 735 297 735 c 2
 379 735 l 2xbc
 386 735 390 730 386 724 c 2
 288 572 l 2
 283 564 278 561 269 561 c 2x7a
504 47 m 2
 504 13 l 2
 504 4 495 -3 464 -3 c 0
 410 -3 384 26 384 77 c 2
 384 81 l 1
 362 36 311 -6 220 -6 c 0
 117 -6 67 55 67 167 c 2
 67 467 l 2
 67 477 72 482 82 482 c 2
 140 482 l 2xba
 150 482 155 476 155 466 c 2
 155 178 l 2
 155 95 194 68 249 68 c 0
 339 68 374 161 374 199 c 2
 374 467 l 2
 374 477 378 482 388 482 c 2
 448 482 l 2
 458 482 463 476 463 466 c 2
 463 114 l 2
 463 95 466 72 491 66 c 0
 499 64 504 62 504 47 c 2
EndSplineSet
EndChar

StartChar: ubreve
Encoding: 365 365 167
Width: 546
Flags: MW
HStem: -6 74<221.5 265.5> -3 21G<437 479.5> 462 20G<82 140 140 145 388 448 448 453> 562 62<235.5 282 235.5 297.5> 562 130<151 297.5>
VStem: 67 88<167 178 178 466> 139 247<676 679.5> 374 89<199 466> 374 130
LayerCount: 2
Fore
SplineSet
504 47 m 2xb480
 504 13 l 2
 504 4 495 -3 464 -3 c 0x6c80
 410 -3 384 26 384 77 c 2
 384 81 l 1
 362 36 311 -6 220 -6 c 0
 117 -6 67 55 67 167 c 2
 67 467 l 2
 67 477 72 482 82 482 c 2
 140 482 l 2
 150 482 155 476 155 466 c 2
 155 178 l 2
 155 95 194 68 249 68 c 0
 339 68 374 161 374 199 c 2
 374 467 l 2
 374 477 378 482 388 482 c 2
 448 482 l 2
 458 482 463 476 463 466 c 2
 463 114 l 2xb5
 463 95 466 72 491 66 c 0
 499 64 504 62 504 47 c 2xb480
332 692 m 2
 373 692 l 2
 382 692 386 685 386 676 c 0
 383 597 332 562 263 562 c 0
 190 562 139 607 139 676 c 0
 139 683 141 692 151 692 c 2
 193 692 l 2xaa
 201 692 206 691 206 684 c 0
 207 669 209 624 262 624 c 0xb5
 302 624 317 648 319 684 c 0
 319 691 324 692 332 692 c 2
EndSplineSet
EndChar

StartChar: ucircumflex
Encoding: 251 251 168
Width: 546
Flags: MW
HStem: -6 74<221.5 265.5> -3 21G<437 479.5> 462 20G<82 140 140 145 388 448 448 453> 703 20G<232 299 299 304.5>
VStem: 67 88<167 178 178 466> 374 89<199 466> 374 130
LayerCount: 2
Fore
SplineSet
192 549 m 2xba
 149 549 l 2
 136 549 131 556 136 565 c 2
 208 707 l 2
 214 719 220 723 232 723 c 2
 299 723 l 2
 310 723 317 719 323 707 c 2
 395 565 l 2
 400 556 394 549 381 549 c 2
 338 549 l 2
 326 549 320 555 315 564 c 2
 265 656 l 1
 215 564 l 2
 210 555 204 549 192 549 c 2xba
504 47 m 2
 504 13 l 2
 504 4 495 -3 464 -3 c 0x7a
 410 -3 384 26 384 77 c 2
 384 81 l 1
 362 36 311 -6 220 -6 c 0
 117 -6 67 55 67 167 c 2
 67 467 l 2
 67 477 72 482 82 482 c 2
 140 482 l 2
 150 482 155 476 155 466 c 2
 155 178 l 2
 155 95 194 68 249 68 c 0
 339 68 374 161 374 199 c 2
 374 467 l 2
 374 477 378 482 388 482 c 2
 448 482 l 2
 458 482 463 476 463 466 c 2
 463 114 l 2xbc
 463 95 466 72 491 66 c 0
 499 64 504 62 504 47 c 2
EndSplineSet
EndChar

StartChar: udieresis
Encoding: 252 252 169
Width: 546
Flags: MW
HStem: -6 74<221.5 265.5> -3 21G<437 479.5> 462 20G<82 140 140 145 388 448 448 453> 584 104<164.5 193 347 375.5>
VStem: 67 88<167 178 178 466> 127 103<621.5 650> 309 104<621.5 650> 374 89<199 466> 374 130
LayerCount: 2
Fore
SplineSet
179 584 m 0xb6
 150 584 127 607 127 636 c 0
 127 664 150 688 179 688 c 0
 207 688 230 664 230 636 c 0
 230 607 207 584 179 584 c 0xb6
361 584 m 0
 333 584 309 607 309 636 c 0
 309 664 333 688 361 688 c 0
 390 688 413 664 413 636 c 0
 413 607 390 584 361 584 c 0
504 47 m 2xb880
 504 13 l 2
 504 4 495 -3 464 -3 c 0x7880
 410 -3 384 26 384 77 c 2
 384 81 l 1
 362 36 311 -6 220 -6 c 0
 117 -6 67 55 67 167 c 2
 67 467 l 2
 67 477 72 482 82 482 c 2
 140 482 l 2
 150 482 155 476 155 466 c 2
 155 178 l 2
 155 95 194 68 249 68 c 0
 339 68 374 161 374 199 c 2
 374 467 l 2
 374 477 378 482 388 482 c 2
 448 482 l 2
 458 482 463 476 463 466 c 2
 463 114 l 2xb9
 463 95 466 72 491 66 c 0
 499 64 504 62 504 47 c 2xb880
EndSplineSet
EndChar

StartChar: uhungarumlaut
Encoding: 369 369 170
Width: 546
Flags: MW
HStem: -6 74<221.5 265.5> -3 21G<437 479.5> 462 20G<82 140 140 145 388 448 448 453> 561 174<136 305 140 305 304 305 305 308 308 308.5 223 363>
VStem: 67 88<167 178 178 466> 374 89<199 466> 374 130
LayerCount: 2
Fore
SplineSet
504 47 m 2x7a
 504 13 l 2
 504 4 495 -3 464 -3 c 0
 410 -3 384 26 384 77 c 2
 384 81 l 1
 362 36 311 -6 220 -6 c 0
 117 -6 67 55 67 167 c 2
 67 467 l 2
 67 477 72 482 82 482 c 2
 140 482 l 2
 150 482 155 476 155 466 c 2
 155 178 l 2
 155 95 194 68 249 68 c 0
 339 68 374 161 374 199 c 2
 374 467 l 2
 374 477 378 482 388 482 c 2
 448 482 l 2
 458 482 463 476 463 466 c 2
 463 114 l 2
 463 95 466 72 491 66 c 0
 499 64 504 62 504 47 c 2x7a
363 561 m 2
 308 561 l 2xbc
 300 561 298 567 300 571 c 2
 374 725 l 2
 377 731 382 735 391 735 c 2
 473 735 l 2
 480 735 484 730 480 724 c 2
 382 572 l 2
 377 564 372 561 363 561 c 2
195 561 m 2xba
 140 561 l 2
 132 561 130 567 132 571 c 2
 206 725 l 2
 209 731 214 735 223 735 c 2
 305 735 l 2
 312 735 316 730 312 724 c 2
 214 572 l 2
 209 564 204 561 195 561 c 2xba
EndSplineSet
EndChar

StartChar: ugrave
Encoding: 249 249 171
Width: 546
Flags: MW
HStem: -6 74<221.5 265.5> -3 21G<437 479.5> 462 20G<82 140 140 145 388 448 448 453> 715 20G<143 225 225 229.5>
VStem: 67 88<167 178 178 466> 374 89<199 466> 374 130
LayerCount: 2
Fore
SplineSet
504 47 m 2xba
 504 13 l 2
 504 4 495 -3 464 -3 c 0x7a
 410 -3 384 26 384 77 c 2
 384 81 l 1
 362 36 311 -6 220 -6 c 0
 117 -6 67 55 67 167 c 2
 67 467 l 2
 67 477 72 482 82 482 c 2
 140 482 l 2
 150 482 155 476 155 466 c 2
 155 178 l 2
 155 95 194 68 249 68 c 0
 339 68 374 161 374 199 c 2
 374 467 l 2
 374 477 378 482 388 482 c 2
 448 482 l 2
 458 482 463 476 463 466 c 2
 463 114 l 2xbc
 463 95 466 72 491 66 c 0
 499 64 504 62 504 47 c 2xba
308 561 m 2
 253 561 l 2
 244 561 239 564 234 572 c 2
 136 724 l 2
 132 730 136 735 143 735 c 2
 225 735 l 2
 234 735 239 731 242 725 c 2
 316 571 l 2
 318 567 316 561 308 561 c 2
EndSplineSet
EndChar

StartChar: umacron
Encoding: 363 363 172
Width: 546
Flags: MW
HStem: -6 74<221.5 265.5> -3 21G<437 479.5> 462 20G<82 140 140 145 388 448 448 453> 591 65<133 392 139 391>
VStem: 67 88<167 178 178 466> 374 89<199 466> 374 130
LayerCount: 2
Fore
SplineSet
504 47 m 2xba
 504 13 l 2
 504 4 495 -3 464 -3 c 0x7a
 410 -3 384 26 384 77 c 2
 384 81 l 1
 362 36 311 -6 220 -6 c 0
 117 -6 67 55 67 167 c 2
 67 467 l 2
 67 477 72 482 82 482 c 2
 140 482 l 2
 150 482 155 476 155 466 c 2
 155 178 l 2
 155 95 194 68 249 68 c 0
 339 68 374 161 374 199 c 2
 374 467 l 2
 374 477 378 482 388 482 c 2
 448 482 l 2
 458 482 463 476 463 466 c 2
 463 114 l 2xbc
 463 95 466 72 491 66 c 0
 499 64 504 62 504 47 c 2xba
139 656 m 2
 392 656 l 2
 402 656 407 651 407 641 c 2
 407 606 l 2
 407 595 401 591 391 591 c 2
 138 591 l 2
 128 591 123 596 123 606 c 2
 123 641 l 2
 123 651 129 656 139 656 c 2
EndSplineSet
EndChar

StartChar: uogonek
Encoding: 371 371 173
Width: 546
Flags: MW
HStem: -173 53<449.5 472 449.5 472.5> -6 74<221.5 265.5> 462 20G<82 140 140 145 388 448 448 453>
VStem: 67 88<167 178 178 466> 374 49 374 89<199 466> 374 130
LayerCount: 2
Fore
SplineSet
511 -106 m 2xf4
 526 -134 l 2
 529 -139 528 -143 524 -147 c 0
 514 -156 490 -173 455 -173 c 0
 408 -173 368 -149 368 -95 c 0
 368 -48 394 -16 422 4 c 1
 397 16 384 42 384 77 c 2
 384 81 l 1
 362 36 311 -6 220 -6 c 0
 117 -6 67 55 67 167 c 2
 67 467 l 2
 67 477 72 482 82 482 c 2
 140 482 l 2
 150 482 155 476 155 466 c 2
 155 178 l 2
 155 95 194 68 249 68 c 0
 339 68 374 161 374 199 c 2
 374 467 l 2
 374 477 378 482 388 482 c 2
 448 482 l 2
 458 482 463 476 463 466 c 2
 463 114 l 2xf4
 463 95 466 72 491 66 c 0
 499 64 504 62 504 47 c 2
 504 13 l 2xf2
 504 3 492 0 484 -4 c 0
 464 -13 423 -36 423 -80 c 0xf8
 423 -105 436 -120 463 -120 c 0
 481 -120 492 -112 500 -105 c 0
 505 -101 509 -102 511 -106 c 2xf4
EndSplineSet
EndChar

StartChar: uring
Encoding: 367 367 174
Width: 546
Flags: MW
HStem: -6 74<221.5 265.5> -3 21G<437 479.5> 462 20G<82 140 140 145 388 448 448 453> 557 44<249 272.5 249 284.5> 679 45<249 272.5>
VStem: 67 88<167 178 178 466> 177 45<628.5 651.5 628.5 664> 300 44<628.5 651.5> 374 89<199 466> 374 130
LayerCount: 2
Fore
SplineSet
261 557 m 0xbf40
 213 557 177 593 177 640 c 0
 177 688 213 724 261 724 c 0
 308 724 344 688 344 640 c 0
 344 593 308 557 261 557 c 0xbf40
300 640 m 0
 300 663 284 679 261 679 c 0
 237 679 222 663 222 640 c 0
 222 617 237 601 261 601 c 0
 284 601 300 617 300 640 c 0
504 47 m 2
 504 13 l 2
 504 4 495 -3 464 -3 c 0x7f40
 410 -3 384 26 384 77 c 2
 384 81 l 1
 362 36 311 -6 220 -6 c 0
 117 -6 67 55 67 167 c 2
 67 467 l 2
 67 477 72 482 82 482 c 2
 140 482 l 2
 150 482 155 476 155 466 c 2
 155 178 l 2
 155 95 194 68 249 68 c 0
 339 68 374 161 374 199 c 2
 374 467 l 2
 374 477 378 482 388 482 c 2
 448 482 l 2
 458 482 463 476 463 466 c 2
 463 114 l 2xbf80
 463 95 466 72 491 66 c 0
 499 64 504 62 504 47 c 2
EndSplineSet
EndChar

StartChar: utilde
Encoding: 361 361 175
Width: 546
Flags: MW
HStem: -6 74<221.5 265.5> -3 21G<437 479.5> 462 20G<82 140 140 145 388 448 448 453> 559 130<125 221 163 175> 587 69<316.5 346 316.5 377.5> 587 127<364 377.5> 620 36
VStem: 67 88<167 178 178 466> 107 70<601 602 588.5 631.5> 374 89<199 466> 374 130
LayerCount: 2
Fore
SplineSet
504 47 m 2xb120
 504 13 l 2
 504 4 495 -3 464 -3 c 0x70a0
 410 -3 384 26 384 77 c 2
 384 81 l 1
 362 36 311 -6 220 -6 c 0
 117 -6 67 55 67 167 c 2
 67 467 l 2
 67 477 72 482 82 482 c 2
 140 482 l 2
 150 482 155 476 155 466 c 2
 155 178 l 2
 155 95 194 68 249 68 c 0
 339 68 374 161 374 199 c 2
 374 467 l 2
 374 477 378 482 388 482 c 2
 448 482 l 2
 458 482 463 476 463 466 c 2
 463 114 l 2xb140
 463 95 466 72 491 66 c 0
 499 64 504 62 504 47 c 2xb120
175 559 m 2
 128 559 l 2
 122 559 117 562 115 567 c 0
 111 575 107 592 107 610 c 0
 107 653 135 689 191 689 c 0xb0c0
 251 689 294 656 339 656 c 0xa940
 353 656 361 664 361 677 c 0
 361 689 357 700 354 707 c 0
 352 712 356 714 364 714 c 2
 411 714 l 2
 419 714 423 710 424 706 c 0
 427 698 431 682 431 664 c 0
 431 622 405 587 350 587 c 0xa540
 280 587 242 620 204 620 c 0xa340
 188 620 177 610 177 594 c 0
 177 583 181 573 184 567 c 0
 187 562 185 559 175 559 c 2
EndSplineSet
EndChar

StartChar: iacute
Encoding: 237 237 176
Width: 240
Flags: MW
HStem: -3 21G<130 172.5> 486 249<83 245 142 245>
VStem: 68 89<103 113 113 470> 68 130<8 471>
LayerCount: 2
Fore
SplineSet
135 561 m 2xe0
 80 561 l 2
 72 561 70 567 72 571 c 2
 146 725 l 2
 149 731 154 735 163 735 c 2
 245 735 l 2
 252 735 256 730 252 724 c 2
 154 572 l 2
 149 564 144 561 135 561 c 2xe0
198 52 m 2
 198 13 l 2
 198 3 187 -3 158 -3 c 0
 102 -3 68 29 68 103 c 2
 68 471 l 2
 68 481 73 486 83 486 c 2
 142 486 l 2
 152 486 157 480 157 470 c 2
 157 113 l 2
 157 87 163 70 185 66 c 0xd0
 189 65 198 63 198 52 c 2
EndSplineSet
EndChar

StartChar: dotlessi
Encoding: 305 305 177
Width: 240
Flags: MW
HStem: -3 21G<130 172.5> 466 20G<83 142 142 147>
VStem: 68 89<103 113 113 470> 68 130<8 471>
LayerCount: 2
Fore
SplineSet
198 52 m 2xd0
 198 13 l 2xd0
 198 3 187 -3 158 -3 c 0
 102 -3 68 29 68 103 c 2
 68 471 l 2
 68 481 73 486 83 486 c 2
 142 486 l 2
 152 486 157 480 157 470 c 2
 157 113 l 2xe0
 157 87 163 70 185 66 c 0
 189 65 198 63 198 52 c 2xd0
EndSplineSet
EndChar

StartChar: icircumflex
Encoding: 238 238 178
Width: 240
Flags: MW
HStem: -3 21G<130 172.5> 466 20G<83 142 142 147> 703 20G<79 146 146 151.5>
VStem: 68 89<103 113 113 470> 68 130<8 471>
LayerCount: 2
Fore
SplineSet
39 549 m 2xe8
 -4 549 l 2
 -17 549 -22 556 -17 565 c 2
 55 707 l 2
 61 719 67 723 79 723 c 2
 146 723 l 2
 157 723 164 719 170 707 c 2
 242 565 l 2
 247 556 241 549 228 549 c 2
 185 549 l 2
 173 549 167 555 162 564 c 2
 112 656 l 1
 62 564 l 2
 57 555 51 549 39 549 c 2xe8
198 52 m 2
 198 13 l 2xe8
 198 3 187 -3 158 -3 c 0
 102 -3 68 29 68 103 c 2
 68 471 l 2
 68 481 73 486 83 486 c 2
 142 486 l 2
 152 486 157 480 157 470 c 2
 157 113 l 2xf0
 157 87 163 70 185 66 c 0
 189 65 198 63 198 52 c 2
EndSplineSet
EndChar

StartChar: idieresis
Encoding: 239 239 179
Width: 240
Flags: MW
HStem: -3 21G<130 172.5> 466 20G<83 142 142 147> 584 104<11.5 40 194 222.5>
VStem: -26 103<621.5 650> 68 89<103 113 113 470> 68 130<8 471> 156 104<621.5 650>
LayerCount: 2
Fore
SplineSet
26 584 m 0xf2
 -3 584 -26 607 -26 636 c 0
 -26 664 -3 688 26 688 c 0
 54 688 77 664 77 636 c 0
 77 607 54 584 26 584 c 0xf2
208 584 m 0
 180 584 156 607 156 636 c 0
 156 664 180 688 208 688 c 0
 237 688 260 664 260 636 c 0
 260 607 237 584 208 584 c 0
198 52 m 2xe4
 198 13 l 2xe4
 198 3 187 -3 158 -3 c 0
 102 -3 68 29 68 103 c 2
 68 471 l 2
 68 481 73 486 83 486 c 2
 142 486 l 2
 152 486 157 480 157 470 c 2
 157 113 l 2xe8
 157 87 163 70 185 66 c 0
 189 65 198 63 198 52 c 2xe4
EndSplineSet
EndChar

StartChar: igrave
Encoding: 236 236 180
Width: 240
Flags: MW
HStem: -3 21G<130 172.5> 466 20G<83 142 142 147> 715 20G<-26 56 56 60.5>
VStem: 68 89<103 113 113 470> 68 130<8 471>
LayerCount: 2
Fore
SplineSet
139 561 m 2xe8
 84 561 l 2
 75 561 70 564 65 572 c 2
 -33 724 l 2
 -37 730 -33 735 -26 735 c 2
 56 735 l 2
 65 735 70 731 73 725 c 2
 147 571 l 2
 149 567 147 561 139 561 c 2xe8
198 52 m 2
 198 13 l 2xe8
 198 3 187 -3 158 -3 c 0
 102 -3 68 29 68 103 c 2
 68 471 l 2
 68 481 73 486 83 486 c 2
 142 486 l 2
 152 486 157 480 157 470 c 2
 157 113 l 2xf0
 157 87 163 70 185 66 c 0
 189 65 198 63 198 52 c 2
EndSplineSet
EndChar

StartChar: imacron
Encoding: 299 299 181
Width: 240
Flags: MW
HStem: -3 21G<130 172.5> 466 20G<83 142 142 147> 591 65<-16 243 -10 242>
VStem: 68 89<103 113 113 470> 68 130<8 471>
LayerCount: 2
Fore
SplineSet
-10 656 m 2xe8
 243 656 l 2
 253 656 258 651 258 641 c 2
 258 606 l 2
 258 595 252 591 242 591 c 2
 -11 591 l 2
 -21 591 -26 596 -26 606 c 2
 -26 641 l 2
 -26 651 -20 656 -10 656 c 2xe8
198 52 m 2
 198 13 l 2xe8
 198 3 187 -3 158 -3 c 0
 102 -3 68 29 68 103 c 2
 68 471 l 2
 68 481 73 486 83 486 c 2
 142 486 l 2
 152 486 157 480 157 470 c 2
 157 113 l 2xf0
 157 87 163 70 185 66 c 0
 189 65 198 63 198 52 c 2
EndSplineSet
EndChar

StartChar: iogonek
Encoding: 303 303 182
Width: 239
Flags: MW
HStem: -172 53<143.5 166 143.5 166.5> 466 20G<83 142 142 147> 579 119<98 132>
VStem: 54 63 54 123<621 655> 68 89<103 113 113 470> 68 130<9.5 471>
LayerCount: 2
Fore
SplineSet
177 638 m 0xe8
 177 604 149 579 115 579 c 0
 81 579 54 604 54 638 c 0
 54 672 81 698 115 698 c 0
 149 698 177 672 177 638 c 0xe8
205 -105 m 2
 221 -134 l 2
 223 -138 222 -142 218 -146 c 0
 208 -155 184 -172 149 -172 c 0
 102 -172 62 -148 62 -94 c 0
 62 -47 87 -15 114 6 c 1
 85 20 68 51 68 103 c 2
 68 471 l 2
 68 481 73 486 83 486 c 2
 142 486 l 2
 152 486 157 480 157 470 c 2
 157 113 l 2xe4
 157 87 163 70 185 66 c 0
 189 65 198 63 198 52 c 2
 198 13 l 2xe2
 198 6 193 1 178 -3 c 0
 158 -12 117 -35 117 -79 c 0xf0
 117 -104 130 -119 157 -119 c 0xe4
 175 -119 185 -112 193 -105 c 0
 198 -101 203 -101 205 -105 c 2
EndSplineSet
EndChar

StartChar: itilde
Encoding: 297 297 183
Width: 240
Flags: MW
HStem: -3 21G<130 172.5> 466 20G<83 142 142 147> 559 130<-37 59 1 13> 587 69<154.5 184 154.5 215.5> 587 127<202 215.5> 620 36
VStem: -55 70<601 602 588.5 631.5> 68 89<103 113 113 470> 68 130<8 471>
LayerCount: 2
Fore
SplineSet
13 559 m 2xe3
 -34 559 l 2
 -40 559 -45 562 -47 567 c 0
 -51 575 -55 592 -55 610 c 0
 -55 653 -27 689 29 689 c 0xe280
 89 689 132 656 177 656 c 0xd3
 191 656 199 664 199 677 c 0
 199 689 195 700 192 707 c 0
 190 712 194 714 202 714 c 2
 249 714 l 2
 257 714 261 710 262 706 c 0
 265 698 269 682 269 664 c 0
 269 622 243 587 188 587 c 0xcb
 118 587 80 620 42 620 c 0xc7
 26 620 15 610 15 594 c 0
 15 583 19 573 22 567 c 0
 25 562 23 559 13 559 c 2xe3
198 52 m 2
 198 13 l 2xe280
 198 3 187 -3 158 -3 c 0
 102 -3 68 29 68 103 c 2
 68 471 l 2
 68 481 73 486 83 486 c 2
 142 486 l 2
 152 486 157 480 157 470 c 2
 157 113 l 2xe3
 157 87 163 70 185 66 c 0
 189 65 198 63 198 52 c 2
EndSplineSet
EndChar

StartChar: jcircumflex
Encoding: 309 309 184
Width: 231
Flags: MW
HStem: -247 74<-24 15.5 -24 53> 462 20G<86 145 145 150> 703 20G<84 151 151 156.5>
VStem: 71 89<-59 466>
LayerCount: 2
Fore
SplineSet
160 466 m 2
 160 -63 l 2
 160 -177 110 -247 -4 -247 c 0
 -44 -247 -70 -235 -84 -227 c 0
 -91 -223 -95 -217 -90 -207 c 2
 -74 -172 l 2
 -69 -161 -65 -160 -59 -163 c 0
 -50 -167 -35 -173 -13 -173 c 0
 44 -173 71 -135 71 -59 c 2
 71 467 l 2
 71 477 76 482 86 482 c 2
 145 482 l 2
 155 482 160 476 160 466 c 2
44 549 m 2
 1 549 l 2
 -12 549 -17 556 -12 565 c 2
 60 707 l 2
 66 719 72 723 84 723 c 2
 151 723 l 2
 162 723 169 719 175 707 c 2
 247 565 l 2
 252 556 246 549 233 549 c 2
 190 549 l 2
 178 549 172 555 167 564 c 2
 117 656 l 1
 67 564 l 2
 62 555 56 549 44 549 c 2
EndSplineSet
EndChar

StartChar: kcommaaccent
Encoding: 311 311 185
Width: 542
Flags: MW
HStem: -39 36 0 21G<81 86 86 143> 65 167 232 63<158 231 158 231> 232 250<158 447 158 447> 706 20G<86 143 143 148>
VStem: 71 87<15 232 295 711> 214 121<-114 -84 -151.5 -81.5> 380 82<433.5 471 420 472>
LayerCount: 2
Fore
SplineSet
214 -98 m 0xe780
 214 -65 240 -39 273 -39 c 0
 306 -39 335 -62 335 -106 c 0
 335 -197 275 -228 254 -237 c 0
 248 -240 244 -237 241 -232 c 2
 225 -207 l 2
 221 -201 223 -198 228 -196 c 0
 241 -191 272 -177 273 -156 c 1
 241 -156 214 -130 214 -98 c 0xe780
522 50 m 2
 522 14 l 2
 522 5 510 -3 485 -3 c 0
 326 -3 388 232 231 232 c 2
 158 232 l 1
 158 15 l 2
 158 5 153 0 143 0 c 2
 86 0 l 2
 76 0 71 5 71 15 c 2
 71 711 l 2
 71 721 76 726 86 726 c 2
 143 726 l 2
 153 726 158 721 158 711 c 2
 158 295 l 1
 231 295 l 2xd780
 339 295 380 400 380 467 c 0
 380 477 385 482 395 482 c 2
 447 482 l 2xcf80
 457 482 462 476 462 466 c 0
 462 374 419 294 336 266 c 1
 439 223 409 65 512 65 c 0
 519 65 522 61 522 50 c 2
EndSplineSet
EndChar

StartChar: wacute
Encoding: 7811 7811 186
Width: 770
Flags: MW
HStem: 0 21G<194 198 198 270 497 501 501 574> 462 20G<50 112 112 117 661 719 719 724> 715 20G<457 539 539 542.5>
LayerCount: 2
Fore
SplineSet
429 561 m 2
 374 561 l 2
 366 561 364 567 366 571 c 2
 440 725 l 2
 443 731 448 735 457 735 c 2
 539 735 l 2
 546 735 550 730 546 724 c 2
 448 572 l 2
 443 564 438 561 429 561 c 2
574 0 m 2
 501 0 l 2
 493 0 487 6 484 16 c 2
 389 336 l 1
 287 16 l 2
 283 6 278 0 270 0 c 2
 198 0 l 2
 190 0 184 6 181 16 c 2
 35 464 l 2
 32 474 40 482 50 482 c 2
 112 482 l 2
 122 482 126 478 129 469 c 2
 235 100 l 1
 346 461 l 2
 349 471 355 477 363 477 c 2
 420 477 l 2
 428 477 434 470 437 460 c 2
 538 100 l 1
 643 470 l 2
 646 479 651 482 661 482 c 2
 719 482 l 2
 729 482 738 474 734 464 c 2
 591 16 l 2
 588 6 582 0 574 0 c 2
EndSplineSet
EndChar

StartChar: wcircumflex
Encoding: 373 373 187
Width: 770
Flags: MW
HStem: 0 21G<194 198 198 270 497 501 501 574> 462 20G<50 112 112 117 661 719 719 724> 703 20G<351 418 418 423.5>
LayerCount: 2
Fore
SplineSet
311 549 m 2
 268 549 l 2
 255 549 250 556 255 565 c 2
 327 707 l 2
 333 719 339 723 351 723 c 2
 418 723 l 2
 429 723 436 719 442 707 c 2
 514 565 l 2
 519 556 513 549 500 549 c 2
 457 549 l 2
 445 549 439 555 434 564 c 2
 384 656 l 1
 334 564 l 2
 329 555 323 549 311 549 c 2
574 0 m 2
 501 0 l 2
 493 0 487 6 484 16 c 2
 389 336 l 1
 287 16 l 2
 283 6 278 0 270 0 c 2
 198 0 l 2
 190 0 184 6 181 16 c 2
 35 464 l 2
 32 474 40 482 50 482 c 2
 112 482 l 2
 122 482 126 478 129 469 c 2
 235 100 l 1
 346 461 l 2
 349 471 355 477 363 477 c 2
 420 477 l 2
 428 477 434 470 437 460 c 2
 538 100 l 1
 643 470 l 2
 646 479 651 482 661 482 c 2
 719 482 l 2
 729 482 738 474 734 464 c 2
 591 16 l 2
 588 6 582 0 574 0 c 2
EndSplineSet
EndChar

StartChar: wdieresis
Encoding: 7813 7813 188
Width: 770
Flags: MW
HStem: 0 21G<194 198 198 270 497 501 501 574> 462 20G<50 112 112 117 661 719 719 724> 584 104<293.5 322 476 504.5>
VStem: 256 103<621.5 650> 438 104<621.5 650>
LayerCount: 2
Fore
SplineSet
308 584 m 0
 279 584 256 607 256 636 c 0
 256 664 279 688 308 688 c 0
 336 688 359 664 359 636 c 0
 359 607 336 584 308 584 c 0
490 584 m 0
 462 584 438 607 438 636 c 0
 438 664 462 688 490 688 c 0
 519 688 542 664 542 636 c 0
 542 607 519 584 490 584 c 0
574 0 m 2
 501 0 l 2
 493 0 487 6 484 16 c 2
 389 336 l 1
 287 16 l 2
 283 6 278 0 270 0 c 2
 198 0 l 2
 190 0 184 6 181 16 c 2
 35 464 l 2
 32 474 40 482 50 482 c 2
 112 482 l 2
 122 482 126 478 129 469 c 2
 235 100 l 1
 346 461 l 2
 349 471 355 477 363 477 c 2
 420 477 l 2
 428 477 434 470 437 460 c 2
 538 100 l 1
 643 470 l 2
 646 479 651 482 661 482 c 2
 719 482 l 2
 729 482 738 474 734 464 c 2
 591 16 l 2
 588 6 582 0 574 0 c 2
EndSplineSet
EndChar

StartChar: wgrave
Encoding: 7809 7809 189
Width: 770
Flags: MW
HStem: 0 21G<194 198 198 270 497 501 501 574> 462 20G<50 112 112 117 661 719 719 724> 715 20G<262 344 344 348.5>
LayerCount: 2
Fore
SplineSet
574 0 m 2
 501 0 l 2
 493 0 487 6 484 16 c 2
 389 336 l 1
 287 16 l 2
 283 6 278 0 270 0 c 2
 198 0 l 2
 190 0 184 6 181 16 c 2
 35 464 l 2
 32 474 40 482 50 482 c 2
 112 482 l 2
 122 482 126 478 129 469 c 2
 235 100 l 1
 346 461 l 2
 349 471 355 477 363 477 c 2
 420 477 l 2
 428 477 434 470 437 460 c 2
 538 100 l 1
 643 470 l 2
 646 479 651 482 661 482 c 2
 719 482 l 2
 729 482 738 474 734 464 c 2
 591 16 l 2
 588 6 582 0 574 0 c 2
427 561 m 2
 372 561 l 2
 363 561 358 564 353 572 c 2
 255 724 l 2
 251 730 255 735 262 735 c 2
 344 735 l 2
 353 735 358 731 361 725 c 2
 435 571 l 2
 437 567 435 561 427 561 c 2
EndSplineSet
EndChar

StartChar: yacute
Encoding: 253 253 190
Width: 514
Flags: MW
HStem: -247 76<85 117.5 84 142.5> 462 20G<46 106 106 110 408 466 466 471.5> 715 20G<288 370 370 373.5>
LayerCount: 2
Fore
SplineSet
480 464 m 2
 257 -122 l 2
 230 -192 186 -247 99 -247 c 0
 71 -247 50 -241 38 -237 c 0
 30 -234 26 -228 28 -220 c 2
 36 -174 l 2
 38 -165 42 -163 49 -165 c 0
 59 -168 75 -171 93 -171 c 0
 142 -171 163 -139 179 -97 c 2
 214 -3 l 1
 32 464 l 2
 27 476 35 482 46 482 c 2
 106 482 l 2
 114 482 122 477 125 469 c 2
 260 104 l 1
 389 470 l 2
 392 478 400 482 408 482 c 2
 466 482 l 2
 477 482 485 476 480 464 c 2
260 561 m 2
 205 561 l 2
 197 561 195 567 197 571 c 2
 271 725 l 2
 274 731 279 735 288 735 c 2
 370 735 l 2
 377 735 381 730 377 724 c 2
 279 572 l 2
 274 564 269 561 260 561 c 2
EndSplineSet
Substitution2: "'salt' Stylistic Alternatives in Latin lookup 5 subtable" yacute.alt
EndChar

StartChar: ycircumflex
Encoding: 375 375 191
Width: 514
Flags: MW
HStem: -247 76<85 117.5 84 142.5> 462 20G<46 106 106 110 408 466 466 471.5> 703 20G<219 286 286 291.5>
LayerCount: 2
Fore
SplineSet
480 464 m 2
 257 -122 l 2
 230 -192 186 -247 99 -247 c 0
 71 -247 50 -241 38 -237 c 0
 30 -234 26 -228 28 -220 c 2
 36 -174 l 2
 38 -165 42 -163 49 -165 c 0
 59 -168 75 -171 93 -171 c 0
 142 -171 163 -139 179 -97 c 2
 214 -3 l 1
 32 464 l 2
 27 476 35 482 46 482 c 2
 106 482 l 2
 114 482 122 477 125 469 c 2
 260 104 l 1
 389 470 l 2
 392 478 400 482 408 482 c 2
 466 482 l 2
 477 482 485 476 480 464 c 2
179 549 m 2
 136 549 l 2
 123 549 118 556 123 565 c 2
 195 707 l 2
 201 719 207 723 219 723 c 2
 286 723 l 2
 297 723 304 719 310 707 c 2
 382 565 l 2
 387 556 381 549 368 549 c 2
 325 549 l 2
 313 549 307 555 302 564 c 2
 252 656 l 1
 202 564 l 2
 197 555 191 549 179 549 c 2
EndSplineSet
Substitution2: "'salt' Stylistic Alternatives in Latin lookup 5 subtable" ycircumflex.alt
EndChar

StartChar: ydieresis
Encoding: 255 255 192
Width: 514
Flags: MW
HStem: -247 76<85 117.5 84 142.5> 462 20G<46 106 106 110 408 466 466 471.5> 584 104<156.5 185 339 367.5>
VStem: 119 103<621.5 650> 301 104<621.5 650>
LayerCount: 2
Fore
SplineSet
480 464 m 2
 257 -122 l 2
 230 -192 186 -247 99 -247 c 0
 71 -247 50 -241 38 -237 c 0
 30 -234 26 -228 28 -220 c 2
 36 -174 l 2
 38 -165 42 -163 49 -165 c 0
 59 -168 75 -171 93 -171 c 0
 142 -171 163 -139 179 -97 c 2
 214 -3 l 1
 32 464 l 2
 27 476 35 482 46 482 c 2
 106 482 l 2
 114 482 122 477 125 469 c 2
 260 104 l 1
 389 470 l 2
 392 478 400 482 408 482 c 2
 466 482 l 2
 477 482 485 476 480 464 c 2
171 584 m 0
 142 584 119 607 119 636 c 0
 119 664 142 688 171 688 c 0
 199 688 222 664 222 636 c 0
 222 607 199 584 171 584 c 0
353 584 m 0
 325 584 301 607 301 636 c 0
 301 664 325 688 353 688 c 0
 382 688 405 664 405 636 c 0
 405 607 382 584 353 584 c 0
EndSplineSet
Substitution2: "'salt' Stylistic Alternatives in Latin lookup 5 subtable" ydieresis.alt
EndChar

StartChar: ygrave
Encoding: 7923 7923 193
Width: 514
Flags: MW
HStem: -247 76<85 117.5 84 142.5> 462 20G<46 106 106 110 408 466 466 471.5> 715 20G<125 207 207 211.5>
LayerCount: 2
Fore
SplineSet
480 464 m 2
 257 -122 l 2
 230 -192 186 -247 99 -247 c 0
 71 -247 50 -241 38 -237 c 0
 30 -234 26 -228 28 -220 c 2
 36 -174 l 2
 38 -165 42 -163 49 -165 c 0
 59 -168 75 -171 93 -171 c 0
 142 -171 163 -139 179 -97 c 2
 214 -3 l 1
 32 464 l 2
 27 476 35 482 46 482 c 2
 106 482 l 2
 114 482 122 477 125 469 c 2
 260 104 l 1
 389 470 l 2
 392 478 400 482 408 482 c 2
 466 482 l 2
 477 482 485 476 480 464 c 2
290 561 m 2
 235 561 l 2
 226 561 221 564 216 572 c 2
 118 724 l 2
 114 730 118 735 125 735 c 2
 207 735 l 2
 216 735 221 731 224 725 c 2
 298 571 l 2
 300 567 298 561 290 561 c 2
EndSplineSet
Substitution2: "'salt' Stylistic Alternatives in Latin lookup 5 subtable" ygrave.alt
EndChar

StartChar: zacute
Encoding: 378 378 194
Width: 467
Flags: MW
HStem: 0 71<149 407> 411 71<54 408 60 322> 715 20G<291 373 373 376.5>
LayerCount: 2
Fore
SplineSet
263 561 m 2
 208 561 l 2
 200 561 198 567 200 571 c 2
 274 725 l 2
 277 731 282 735 291 735 c 2
 373 735 l 2
 380 735 384 730 380 724 c 2
 282 572 l 2
 277 564 272 561 263 561 c 2
407 0 m 2
 59 0 l 2
 49 0 44 5 44 15 c 2
 44 49 l 2
 44 64 51 79 61 92 c 2
 322 411 l 1
 59 411 l 2
 49 411 44 416 44 426 c 2
 44 467 l 2
 44 477 50 482 60 482 c 2
 408 482 l 2
 418 482 423 477 423 467 c 2
 423 432 l 2
 423 416 417 404 405 389 c 2
 149 71 l 1
 408 71 l 2
 418 71 423 66 423 56 c 2
 423 15 l 2
 423 4 417 0 407 0 c 2
EndSplineSet
Substitution2: "'salt' Stylistic Alternatives in Latin lookup 5 subtable" zacute.alt
EndChar

StartChar: zcaron
Encoding: 382 382 195
Width: 467
Flags: MW
HStem: 0 71<149 407> 411 71<54 408 60 322> 482 250<136 179 179 185 325 368 368 374.5 136 408 136 413>
LayerCount: 2
Fore
SplineSet
136 732 m 2xc0
 179 732 l 2
 191 732 197 726 202 717 c 2
 252 625 l 1
 302 717 l 2
 307 726 313 732 325 732 c 2
 368 732 l 2
 381 732 386 725 381 716 c 2
 310 574 l 2
 304 562 297 558 286 558 c 2
 219 558 l 2
 207 558 201 562 195 574 c 2
 123 716 l 2
 118 725 123 732 136 732 c 2xc0
407 0 m 2
 59 0 l 2
 49 0 44 5 44 15 c 2
 44 49 l 2
 44 64 51 79 61 92 c 2
 322 411 l 1
 59 411 l 2
 49 411 44 416 44 426 c 2
 44 467 l 2
 44 477 50 482 60 482 c 2
 408 482 l 2
 418 482 423 477 423 467 c 2
 423 432 l 2
 423 416 417 404 405 389 c 2xa0
 149 71 l 1
 408 71 l 2
 418 71 423 66 423 56 c 2
 423 15 l 2
 423 4 417 0 407 0 c 2
EndSplineSet
Substitution2: "'salt' Stylistic Alternatives in Latin lookup 5 subtable" zcaron.alt
EndChar

StartChar: zdotaccent
Encoding: 380 380 196
Width: 467
Flags: MW
HStem: 0 71<149 407> 411 71<54 408 60 322> 593 104<261 289>
VStem: 223 104<630.5 659>
LayerCount: 2
Fore
SplineSet
407 0 m 2
 59 0 l 2
 49 0 44 5 44 15 c 2
 44 49 l 2
 44 64 51 79 61 92 c 2
 322 411 l 1
 59 411 l 2
 49 411 44 416 44 426 c 2
 44 467 l 2
 44 477 50 482 60 482 c 2
 408 482 l 2
 418 482 423 477 423 467 c 2
 423 432 l 2
 423 416 417 404 405 389 c 2
 149 71 l 1
 408 71 l 2
 418 71 423 66 423 56 c 2
 423 15 l 2
 423 4 417 0 407 0 c 2
275 593 m 0
 247 593 223 616 223 645 c 0
 223 673 247 697 275 697 c 0
 303 697 327 673 327 645 c 0
 327 616 303 593 275 593 c 0
EndSplineSet
Substitution2: "'salt' Stylistic Alternatives in Latin lookup 5 subtable" zdotaccent.alt
EndChar

StartChar: Aacute
Encoding: 193 193 197
Width: 651
Flags: MW
HStem: 0 21G<39 44 44 103 543 548 548 607> 680 20G<292 359 359 363> 933 20G<390 472 472 475.5>
LayerCount: 2
Fore
SplineSet
530 14 m 2
 464 194 l 1
 186 194 l 1
 121 14 l 2
 118 5 113 0 103 0 c 2
 44 0 l 2
 34 0 24 6 28 16 c 2
 274 684 l 2
 278 694 284 700 292 700 c 2
 359 700 l 2
 367 700 373 694 377 684 c 2
 623 16 l 2
 627 6 617 0 607 0 c 2
 548 0 l 2
 538 0 533 5 530 14 c 2
325 575 m 1
 214 269 l 1
 437 269 l 1
 325 575 l 1
362 779 m 2
 307 779 l 2
 299 779 297 785 299 789 c 2
 373 943 l 2
 376 949 381 953 390 953 c 2
 472 953 l 2
 479 953 483 948 479 942 c 2
 381 790 l 2
 376 782 371 779 362 779 c 2
EndSplineSet
EndChar

StartChar: Abreve
Encoding: 258 258 198
Width: 651
Flags: MW
HStem: 0 21G<39 44 44 103 543 548 548 607> 194 75<214 437 214 464 186 437> 680 20G<292 359 359 363> 780 62<309.5 356 309.5 371.5> 780 130<225 371.5>
VStem: 213 247<894 897.5>
LayerCount: 2
Fore
SplineSet
530 14 m 2xec
 464 194 l 1
 186 194 l 1
 121 14 l 2
 118 5 113 0 103 0 c 2
 44 0 l 2
 34 0 24 6 28 16 c 2
 274 684 l 2
 278 694 284 700 292 700 c 2
 359 700 l 2
 367 700 373 694 377 684 c 2
 623 16 l 2
 627 6 617 0 607 0 c 2
 548 0 l 2
 538 0 533 5 530 14 c 2xec
325 575 m 1
 214 269 l 1
 437 269 l 1
 325 575 l 1
406 910 m 2
 447 910 l 2
 456 910 460 903 460 894 c 0
 457 815 406 780 337 780 c 0
 264 780 213 825 213 894 c 0
 213 901 215 910 225 910 c 2
 267 910 l 2xec
 275 910 280 909 280 902 c 0
 281 887 283 842 336 842 c 0xf4
 376 842 391 866 393 902 c 0
 393 909 398 910 406 910 c 2
EndSplineSet
EndChar

StartChar: Acircumflex
Encoding: 194 194 199
Width: 651
Flags: MW
HStem: 0 21G<39 44 44 103 543 548 548 607> 194 75<214 437 214 464 186 437> 680 20G<292 359 359 363> 921 20G<295 362 362 367.5>
LayerCount: 2
Fore
SplineSet
530 14 m 2
 464 194 l 1
 186 194 l 1
 121 14 l 2
 118 5 113 0 103 0 c 2
 44 0 l 2
 34 0 24 6 28 16 c 2
 274 684 l 2
 278 694 284 700 292 700 c 2
 359 700 l 2
 367 700 373 694 377 684 c 2
 623 16 l 2
 627 6 617 0 607 0 c 2
 548 0 l 2
 538 0 533 5 530 14 c 2
325 575 m 1
 214 269 l 1
 437 269 l 1
 325 575 l 1
255 767 m 2
 212 767 l 2
 199 767 194 774 199 783 c 2
 271 925 l 2
 277 937 283 941 295 941 c 2
 362 941 l 2
 373 941 380 937 386 925 c 2
 458 783 l 2
 463 774 457 767 444 767 c 2
 401 767 l 2
 389 767 383 773 378 782 c 2
 328 874 l 1
 278 782 l 2
 273 773 267 767 255 767 c 2
EndSplineSet
EndChar

StartChar: Agrave
Encoding: 192 192 200
Width: 651
Flags: MW
HStem: 0 21G<39 44 44 103 543 548 548 607> 194 75<214 437 214 464 186 437> 680 20G<292 359 359 363> 933 20G<183 265 265 269.5>
LayerCount: 2
Fore
SplineSet
530 14 m 2
 464 194 l 1
 186 194 l 1
 121 14 l 2
 118 5 113 0 103 0 c 2
 44 0 l 2
 34 0 24 6 28 16 c 2
 274 684 l 2
 278 694 284 700 292 700 c 2
 359 700 l 2
 367 700 373 694 377 684 c 2
 623 16 l 2
 627 6 617 0 607 0 c 2
 548 0 l 2
 538 0 533 5 530 14 c 2
325 575 m 1
 214 269 l 1
 437 269 l 1
 325 575 l 1
348 779 m 2
 293 779 l 2
 284 779 279 782 274 790 c 2
 176 942 l 2
 172 948 176 953 183 953 c 2
 265 953 l 2
 274 953 279 949 282 943 c 2
 356 789 l 2
 358 785 356 779 348 779 c 2
EndSplineSet
EndChar

StartChar: Adieresis
Encoding: 196 196 201
Width: 651
Flags: MW
HStem: 0 21G<39 44 44 103 543 548 548 607> 194 75<214 437 214 464 186 437> 680 20G<292 359 359 363> 802 104<226.5 255 409 437.5>
VStem: 189 103<839.5 868> 371 104<839.5 868>
LayerCount: 2
Fore
SplineSet
530 14 m 2
 464 194 l 1
 186 194 l 1
 121 14 l 2
 118 5 113 0 103 0 c 2
 44 0 l 2
 34 0 24 6 28 16 c 2
 274 684 l 2
 278 694 284 700 292 700 c 2
 359 700 l 2
 367 700 373 694 377 684 c 2
 623 16 l 2
 627 6 617 0 607 0 c 2
 548 0 l 2
 538 0 533 5 530 14 c 2
325 575 m 1
 214 269 l 1
 437 269 l 1
 325 575 l 1
241 802 m 0
 212 802 189 825 189 854 c 0
 189 882 212 906 241 906 c 0
 269 906 292 882 292 854 c 0
 292 825 269 802 241 802 c 0
423 802 m 0
 395 802 371 825 371 854 c 0
 371 882 395 906 423 906 c 0
 452 906 475 882 475 854 c 0
 475 825 452 802 423 802 c 0
EndSplineSet
EndChar

StartChar: Amacron
Encoding: 256 256 202
Width: 651
Flags: MW
HStem: 0 21G<39 44 44 103 543 548 548 607> 194 75<214 437 214 464 186 437> 680 20G<292 359 359 363> 809 65<191 450 197 449>
LayerCount: 2
Fore
SplineSet
530 14 m 2
 464 194 l 1
 186 194 l 1
 121 14 l 2
 118 5 113 0 103 0 c 2
 44 0 l 2
 34 0 24 6 28 16 c 2
 274 684 l 2
 278 694 284 700 292 700 c 2
 359 700 l 2
 367 700 373 694 377 684 c 2
 623 16 l 2
 627 6 617 0 607 0 c 2
 548 0 l 2
 538 0 533 5 530 14 c 2
325 575 m 1
 214 269 l 1
 437 269 l 1
 325 575 l 1
197 874 m 2
 450 874 l 2
 460 874 465 869 465 859 c 2
 465 824 l 2
 465 813 459 809 449 809 c 2
 196 809 l 2
 186 809 181 814 181 824 c 2
 181 859 l 2
 181 869 187 874 197 874 c 2
EndSplineSet
EndChar

StartChar: Aogonek
Encoding: 260 260 203
Width: 651
Flags: MW
HStem: -172 53<550.5 573 550.5 573.5> 0 21G<39 44 44 103 590 590 590 607> 194 75<214 437 214 464 186 437> 680 20G<292 359 359 363>
VStem: 469 55<-91.5 -68>
LayerCount: 2
Fore
SplineSet
614 -104 m 2
 627 -132 l 2
 630 -138 629 -142 625 -146 c 0
 615 -155 591 -172 556 -172 c 0
 509 -172 469 -148 469 -94 c 0
 469 -42 500 -8 530 12 c 1
 464 194 l 1
 186 194 l 1
 121 14 l 2
 118 5 113 0 103 0 c 2
 44 0 l 2
 34 0 24 6 28 16 c 2
 274 684 l 2
 278 694 284 700 292 700 c 2
 359 700 l 2
 367 700 373 694 377 684 c 2
 623 16 l 2
 627 6 617 0 607 0 c 2
 590 0 l 1
 565 -12 524 -35 524 -79 c 0
 524 -104 537 -119 564 -119 c 0
 582 -119 594 -111 602 -104 c 0
 607 -100 611 -98 614 -104 c 2
325 575 m 1
 214 269 l 1
 437 269 l 1
 325 575 l 1
EndSplineSet
EndChar

StartChar: Aring
Encoding: 197 197 204
Width: 651
Flags: MW
HStem: 0 21G<39 44 44 103 543 548 548 607> 194 75<214 437 214 464 186 437> 680 20G<292 359 359 363> 775 44<317 340.5 317 352.5> 897 45<317 340.5>
VStem: 245 45<846.5 869.5 846.5 882> 368 44<846.5 869.5>
LayerCount: 2
Fore
SplineSet
530 14 m 2
 464 194 l 1
 186 194 l 1
 121 14 l 2
 118 5 113 0 103 0 c 2
 44 0 l 2
 34 0 24 6 28 16 c 2
 274 684 l 2
 278 694 284 700 292 700 c 2
 359 700 l 2
 367 700 373 694 377 684 c 2
 623 16 l 2
 627 6 617 0 607 0 c 2
 548 0 l 2
 538 0 533 5 530 14 c 2
325 575 m 1
 214 269 l 1
 437 269 l 1
 325 575 l 1
329 775 m 0
 281 775 245 811 245 858 c 0
 245 906 281 942 329 942 c 0
 376 942 412 906 412 858 c 0
 412 811 376 775 329 775 c 0
368 858 m 0
 368 881 352 897 329 897 c 0
 305 897 290 881 290 858 c 0
 290 835 305 819 329 819 c 0
 352 819 368 835 368 858 c 0
EndSplineSet
EndChar

StartChar: Atilde
Encoding: 195 195 205
Width: 651
Flags: MW
HStem: 0 21G<39 44 44 103 543 548 548 607> 194 75<214 437 214 464 186 437> 680 20G<292 359 359 363> 805 127<428 441.5> 838 36 838 69<260 285 227 287>
VStem: 171 70<819 820 806.5 849.5>
LayerCount: 2
Fore
SplineSet
530 14 m 2xea
 464 194 l 1
 186 194 l 1
 121 14 l 2
 118 5 113 0 103 0 c 2
 44 0 l 2
 34 0 24 6 28 16 c 2
 274 684 l 2
 278 694 284 700 292 700 c 2
 359 700 l 2
 367 700 373 694 377 684 c 2
 623 16 l 2
 627 6 617 0 607 0 c 2
 548 0 l 2
 538 0 533 5 530 14 c 2xea
325 575 m 1
 214 269 l 1
 437 269 l 1
 325 575 l 1
239 777 m 2
 192 777 l 2
 186 777 181 780 179 785 c 0
 175 793 171 810 171 828 c 0
 171 871 199 907 255 907 c 0xe6
 315 907 358 874 403 874 c 0xea
 417 874 425 882 425 895 c 0
 425 907 421 918 418 925 c 0
 416 930 420 932 428 932 c 2
 475 932 l 2
 483 932 487 928 488 924 c 0
 491 916 495 900 495 882 c 0
 495 840 469 805 414 805 c 0xf2
 344 805 306 838 268 838 c 0
 252 838 241 828 241 812 c 0
 241 801 245 791 248 785 c 0
 251 780 249 777 239 777 c 2
EndSplineSet
EndChar

StartChar: Cacute
Encoding: 262 262 206
Width: 641
Flags: MW
HStem: -6 79<311.5 412 311.5 432> 627 79<294 414> 706 247<378 449.5>
VStem: 52 93<246 448 246 470.5>
LayerCount: 2
Fore
SplineSet
350 779 m 2xd0
 295 779 l 2
 287 779 285 785 287 789 c 2
 361 943 l 2
 364 949 369 953 378 953 c 2
 460 953 l 2
 467 953 471 948 467 942 c 2
 369 790 l 2
 364 782 359 779 350 779 c 2xd0
560 166 m 2
 596 128 l 2
 603 121 602 114 597 107 c 0
 574 76 500 -6 364 -6 c 0
 185 -6 52 102 52 348 c 0
 52 593 175 706 349 706 c 0xb0
 550 706 591 552 598 499 c 0
 599 491 598 483 583 480 c 2
 531 471 l 2
 517 468 514 473 513 482 c 0
 507 521 478 627 350 627 c 0
 238 627 145 548 145 348 c 0
 145 144 255 73 368 73 c 0
 456 73 514 131 538 160 c 0
 546 170 552 174 560 166 c 2
EndSplineSet
EndChar

StartChar: Ccaron
Encoding: 268 268 207
Width: 641
Flags: MW
HStem: -6 79<311.5 412 311.5 432> 627 79<294 414> 706 244<262 282 282 288 428 449.5>
VStem: 52 93<246 448 246 470.5>
LayerCount: 2
Fore
SplineSet
239 950 m 2xd0
 282 950 l 2
 294 950 300 944 305 935 c 2
 355 843 l 1
 405 935 l 2
 410 944 416 950 428 950 c 2
 471 950 l 2
 484 950 489 943 484 934 c 2
 413 792 l 2
 407 780 400 776 389 776 c 2
 322 776 l 2
 310 776 304 780 298 792 c 2
 226 934 l 2
 221 943 226 950 239 950 c 2xd0
560 166 m 2
 596 128 l 2
 603 121 602 114 597 107 c 0
 574 76 500 -6 364 -6 c 0
 185 -6 52 102 52 348 c 0
 52 593 175 706 349 706 c 0
 550 706 591 552 598 499 c 0
 599 491 598 483 583 480 c 2
 531 471 l 2
 517 468 514 473 513 482 c 0
 507 521 478 627 350 627 c 0
 238 627 145 548 145 348 c 0
 145 144 255 73 368 73 c 0
 456 73 514 131 538 160 c 0xb0
 546 170 552 174 560 166 c 2
EndSplineSet
EndChar

StartChar: Ccircumflex
Encoding: 264 264 208
Width: 641
Flags: MW
HStem: -6 79<311.5 412 311.5 432> 627 79<294 414> 921 20G<323 390 390 395.5>
VStem: 52 93<246 448 246 470.5>
LayerCount: 2
Fore
SplineSet
283 767 m 2
 240 767 l 2
 227 767 222 774 227 783 c 2
 299 925 l 2
 305 937 311 941 323 941 c 2
 390 941 l 2
 401 941 408 937 414 925 c 2
 486 783 l 2
 491 774 485 767 472 767 c 2
 429 767 l 2
 417 767 411 773 406 782 c 2
 356 874 l 1
 306 782 l 2
 301 773 295 767 283 767 c 2
560 166 m 2
 596 128 l 2
 603 121 602 114 597 107 c 0
 574 76 500 -6 364 -6 c 0
 185 -6 52 102 52 348 c 0
 52 593 175 706 349 706 c 0
 550 706 591 552 598 499 c 0
 599 491 598 483 583 480 c 2
 531 471 l 2
 517 468 514 473 513 482 c 0
 507 521 478 627 350 627 c 0
 238 627 145 548 145 348 c 0
 145 144 255 73 368 73 c 0
 456 73 514 131 538 160 c 0
 546 170 552 174 560 166 c 2
EndSplineSet
EndChar

StartChar: Cdotaccent
Encoding: 266 266 209
Width: 641
Flags: MW
HStem: -6 79<311.5 412 311.5 432> 627 79<294 414> 811 104<345 373>
VStem: 52 93<246 448 246 470.5> 307 104<848.5 877>
LayerCount: 2
Fore
SplineSet
560 166 m 2
 596 128 l 2
 603 121 602 114 597 107 c 0
 574 76 500 -6 364 -6 c 0
 185 -6 52 102 52 348 c 0
 52 593 175 706 349 706 c 0
 550 706 591 552 598 499 c 0
 599 491 598 483 583 480 c 2
 531 471 l 2
 517 468 514 473 513 482 c 0
 507 521 478 627 350 627 c 0
 238 627 145 548 145 348 c 0
 145 144 255 73 368 73 c 0
 456 73 514 131 538 160 c 0
 546 170 552 174 560 166 c 2
359 811 m 0
 331 811 307 834 307 863 c 0
 307 891 331 915 359 915 c 0
 387 915 411 891 411 863 c 0
 411 834 387 811 359 811 c 0
EndSplineSet
EndChar

StartChar: Dcaron
Encoding: 270 270 210
Width: 663
Flags: MW
HStem: 0 77<96 304 177 304 304 305> 623 77<177 270 177 177> 700 250<196 239 239 245 196 271 196 363.5>
VStem: 86 91<77 77 77 623> 518 93<253 436.5>
LayerCount: 2
Fore
SplineSet
196 950 m 2xb8
 239 950 l 2
 251 950 257 944 262 935 c 2
 312 843 l 1
 362 935 l 2
 367 944 373 950 385 950 c 2
 428 950 l 2
 441 950 446 943 441 934 c 2
 370 792 l 2
 364 780 357 776 346 776 c 2
 279 776 l 2
 267 776 261 780 255 792 c 2
 183 934 l 2
 178 943 183 950 196 950 c 2xb8
305 0 m 2
 101 0 l 2
 91 0 86 5 86 15 c 2
 86 685 l 2
 86 695 91 700 101 700 c 2
 271 700 l 2
 456 700 611 597 611 341 c 0
 611 99 479 0 305 0 c 2
177 77 m 1
 304 77 l 2
 432 77 518 164 518 342 c 0
 518 531 423 623 270 623 c 2
 177 623 l 1
 177 77 l 1
EndSplineSet
EndChar

StartChar: Dcroat
Encoding: 272 272 211
Width: 667
Flags: MW
HStem: 0 77<100 308 181 308 308 309> 315 68<51 52 52 90 181 368> 623 77<181 274 181 181>
VStem: 90 91<77 77 77 315 383 623> 522 93<253 436.5>
LayerCount: 2
Fore
SplineSet
309 0 m 2
 105 0 l 2
 95 0 90 5 90 15 c 2
 90 315 l 1
 52 315 l 2
 42 315 36 319 36 330 c 2
 36 368 l 2
 36 378 41 383 51 383 c 2
 90 383 l 1
 90 685 l 2
 90 695 95 700 105 700 c 2
 275 700 l 2
 460 700 615 597 615 341 c 0
 615 99 483 0 309 0 c 2
181 77 m 1
 308 77 l 2
 436 77 522 164 522 342 c 0
 522 531 427 623 274 623 c 2
 181 623 l 1
 181 383 l 1
 369 383 l 2
 379 383 384 378 384 368 c 2
 384 330 l 2
 384 319 378 315 368 315 c 2
 181 315 l 1
 181 77 l 1
EndSplineSet
EndChar

StartChar: Eacute
Encoding: 201 201 212
Width: 552
Flags: MW
HStem: 0 77<96 490 177 489> 77 232<177 434 177 490 177 495> 309 77<177 434 177 435> 386 237<177 435 435 440> 623 77<177 489 177 177> 933 20G<359 441 441 444.5>
VStem: 86 91<77 309 386 623>
LayerCount: 2
Fore
SplineSet
331 779 m 2
 276 779 l 2
 268 779 266 785 268 789 c 2
 342 943 l 2
 345 949 350 953 359 953 c 2
 441 953 l 2
 448 953 452 948 448 942 c 2
 350 790 l 2
 345 782 340 779 331 779 c 2
489 0 m 2
 101 0 l 2
 91 0 86 5 86 15 c 2
 86 685 l 2
 86 695 91 700 101 700 c 2
 490 700 l 2
 500 700 505 695 505 685 c 2
 505 638 l 2
 505 628 499 623 489 623 c 2
 177 623 l 1
 177 386 l 1
 435 386 l 2
 445 386 450 381 450 371 c 2
 450 324 l 2
 450 314 444 309 434 309 c 2
 177 309 l 1
 177 77 l 1
 490 77 l 2
 500 77 505 72 505 62 c 2
 505 15 l 2
 505 5 499 0 489 0 c 2
EndSplineSet
EndChar

StartChar: Ebreve
Encoding: 276 276 213
Width: 552
Flags: MW
HStem: 0 77<96 490 177 489> 309 77<177 434 177 435> 623 77<177 489 177 177> 780 62<277.5 324 277.5 339.5> 780 130<193 339.5>
VStem: 86 91<77 309 386 623> 181 247<894 897.5>
LayerCount: 2
Fore
SplineSet
489 0 m 2xee
 101 0 l 2
 91 0 86 5 86 15 c 2
 86 685 l 2
 86 695 91 700 101 700 c 2
 490 700 l 2
 500 700 505 695 505 685 c 2
 505 638 l 2
 505 628 499 623 489 623 c 2
 177 623 l 1
 177 386 l 1
 435 386 l 2
 445 386 450 381 450 371 c 2
 450 324 l 2
 450 314 444 309 434 309 c 2
 177 309 l 1
 177 77 l 1
 490 77 l 2
 500 77 505 72 505 62 c 2
 505 15 l 2
 505 5 499 0 489 0 c 2xee
374 910 m 2
 415 910 l 2
 424 910 428 903 428 894 c 0
 425 815 374 780 305 780 c 0
 232 780 181 825 181 894 c 0
 181 901 183 910 193 910 c 2
 235 910 l 2xee
 243 910 248 909 248 902 c 0
 249 887 251 842 304 842 c 0xf6
 344 842 359 866 361 902 c 0
 361 909 366 910 374 910 c 2
EndSplineSet
EndChar

StartChar: Ecaron
Encoding: 282 282 214
Width: 552
Flags: MW
HStem: 0 77<96 490 177 489> 309 77<177 434 177 435> 623 77<177 489 177 177> 700 250<205 248 248 254 394 437 437 443.5 205 490 205 495>
VStem: 86 91<77 309 386 623>
LayerCount: 2
Fore
SplineSet
205 950 m 2xd8
 248 950 l 2
 260 950 266 944 271 935 c 2
 321 843 l 1
 371 935 l 2
 376 944 382 950 394 950 c 2
 437 950 l 2
 450 950 455 943 450 934 c 2
 379 792 l 2
 373 780 366 776 355 776 c 2
 288 776 l 2
 276 776 270 780 264 792 c 2
 192 934 l 2
 187 943 192 950 205 950 c 2xd8
489 0 m 2
 101 0 l 2
 91 0 86 5 86 15 c 2
 86 685 l 2
 86 695 91 700 101 700 c 2
 490 700 l 2
 500 700 505 695 505 685 c 2
 505 638 l 2
 505 628 499 623 489 623 c 2
 177 623 l 1xe8
 177 386 l 1
 435 386 l 2
 445 386 450 381 450 371 c 2
 450 324 l 2
 450 314 444 309 434 309 c 2
 177 309 l 1
 177 77 l 1
 490 77 l 2
 500 77 505 72 505 62 c 2
 505 15 l 2
 505 5 499 0 489 0 c 2
EndSplineSet
EndChar

StartChar: Ecircumflex
Encoding: 202 202 215
Width: 552
Flags: MW
HStem: 0 77<96 490 177 489> 309 77<177 434 177 435> 623 77<177 489 177 177> 921 20G<283 350 350 355.5>
VStem: 86 91<77 309 386 623>
LayerCount: 2
Fore
SplineSet
243 767 m 2
 200 767 l 2
 187 767 182 774 187 783 c 2
 259 925 l 2
 265 937 271 941 283 941 c 2
 350 941 l 2
 361 941 368 937 374 925 c 2
 446 783 l 2
 451 774 445 767 432 767 c 2
 389 767 l 2
 377 767 371 773 366 782 c 2
 316 874 l 1
 266 782 l 2
 261 773 255 767 243 767 c 2
489 0 m 2
 101 0 l 2
 91 0 86 5 86 15 c 2
 86 685 l 2
 86 695 91 700 101 700 c 2
 490 700 l 2
 500 700 505 695 505 685 c 2
 505 638 l 2
 505 628 499 623 489 623 c 2
 177 623 l 1
 177 386 l 1
 435 386 l 2
 445 386 450 381 450 371 c 2
 450 324 l 2
 450 314 444 309 434 309 c 2
 177 309 l 1
 177 77 l 1
 490 77 l 2
 500 77 505 72 505 62 c 2
 505 15 l 2
 505 5 499 0 489 0 c 2
EndSplineSet
EndChar

StartChar: Edieresis
Encoding: 203 203 216
Width: 552
Flags: MW
HStem: 0 77<96 490 177 489> 309 77<177 434 177 435> 623 77<177 489 177 177> 802 104<210.5 239 393 421.5>
VStem: 86 91<77 309 386 623> 173 103<839.5 868> 355 104<839.5 868>
LayerCount: 2
Fore
SplineSet
225 802 m 0xf6
 196 802 173 825 173 854 c 0
 173 882 196 906 225 906 c 0
 253 906 276 882 276 854 c 0
 276 825 253 802 225 802 c 0xf6
407 802 m 0
 379 802 355 825 355 854 c 0
 355 882 379 906 407 906 c 0
 436 906 459 882 459 854 c 0
 459 825 436 802 407 802 c 0
489 0 m 2
 101 0 l 2
 91 0 86 5 86 15 c 2
 86 685 l 2
 86 695 91 700 101 700 c 2
 490 700 l 2
 500 700 505 695 505 685 c 2
 505 638 l 2
 505 628 499 623 489 623 c 2
 177 623 l 1
 177 386 l 1
 435 386 l 2
 445 386 450 381 450 371 c 2
 450 324 l 2
 450 314 444 309 434 309 c 2
 177 309 l 1
 177 77 l 1xfa
 490 77 l 2
 500 77 505 72 505 62 c 2
 505 15 l 2
 505 5 499 0 489 0 c 2
EndSplineSet
EndChar

StartChar: Edotaccent
Encoding: 278 278 217
Width: 552
Flags: MW
HStem: 0 77<96 490 177 489> 309 77<177 434 177 435> 623 77<177 489 177 177> 811 104<300 328>
VStem: 86 91<77 309 386 623> 262 104<848.5 877>
LayerCount: 2
Fore
SplineSet
489 0 m 2
 101 0 l 2
 91 0 86 5 86 15 c 2
 86 685 l 2
 86 695 91 700 101 700 c 2
 490 700 l 2
 500 700 505 695 505 685 c 2
 505 638 l 2
 505 628 499 623 489 623 c 2
 177 623 l 1
 177 386 l 1
 435 386 l 2
 445 386 450 381 450 371 c 2
 450 324 l 2
 450 314 444 309 434 309 c 2
 177 309 l 1
 177 77 l 1
 490 77 l 2
 500 77 505 72 505 62 c 2
 505 15 l 2
 505 5 499 0 489 0 c 2
314 811 m 0
 286 811 262 834 262 863 c 0
 262 891 286 915 314 915 c 0
 342 915 366 891 366 863 c 0
 366 834 342 811 314 811 c 0
EndSplineSet
EndChar

StartChar: Egrave
Encoding: 200 200 218
Width: 552
Flags: MW
HStem: 0 77<96 490 177 489> 309 77<177 434 177 435> 623 77<177 489 177 177> 933 20G<179 261 261 265.5>
VStem: 86 91<77 309 386 623>
LayerCount: 2
Fore
SplineSet
489 0 m 2
 101 0 l 2
 91 0 86 5 86 15 c 2
 86 685 l 2
 86 695 91 700 101 700 c 2
 490 700 l 2
 500 700 505 695 505 685 c 2
 505 638 l 2
 505 628 499 623 489 623 c 2
 177 623 l 1
 177 386 l 1
 435 386 l 2
 445 386 450 381 450 371 c 2
 450 324 l 2
 450 314 444 309 434 309 c 2
 177 309 l 1
 177 77 l 1
 490 77 l 2
 500 77 505 72 505 62 c 2
 505 15 l 2
 505 5 499 0 489 0 c 2
344 779 m 2
 289 779 l 2
 280 779 275 782 270 790 c 2
 172 942 l 2
 168 948 172 953 179 953 c 2
 261 953 l 2
 270 953 275 949 278 943 c 2
 352 789 l 2
 354 785 352 779 344 779 c 2
EndSplineSet
EndChar

StartChar: Emacron
Encoding: 274 274 219
Width: 552
Flags: MW
HStem: 0 77<96 490 177 489> 309 77<177 434 177 435> 623 77<177 489 177 177> 809 65<181 440 187 439>
VStem: 86 91<77 309 386 623>
LayerCount: 2
Fore
SplineSet
489 0 m 2
 101 0 l 2
 91 0 86 5 86 15 c 2
 86 685 l 2
 86 695 91 700 101 700 c 2
 490 700 l 2
 500 700 505 695 505 685 c 2
 505 638 l 2
 505 628 499 623 489 623 c 2
 177 623 l 1
 177 386 l 1
 435 386 l 2
 445 386 450 381 450 371 c 2
 450 324 l 2
 450 314 444 309 434 309 c 2
 177 309 l 1
 177 77 l 1
 490 77 l 2
 500 77 505 72 505 62 c 2
 505 15 l 2
 505 5 499 0 489 0 c 2
187 874 m 2
 440 874 l 2
 450 874 455 869 455 859 c 2
 455 824 l 2
 455 813 449 809 439 809 c 2
 186 809 l 2
 176 809 171 814 171 824 c 2
 171 859 l 2
 171 869 177 874 187 874 c 2
EndSplineSet
EndChar

StartChar: Eogonek
Encoding: 280 280 220
Width: 552
Flags: MW
HStem: -172 53<453.5 476 453.5 476.5> 0 77<96 490 177 417> 309 77<177 434 177 435> 623 77<177 489 177 177>
VStem: 86 91<77 309 386 623> 372 55<-91.5 -72.5>
LayerCount: 2
Fore
SplineSet
488 -3 m 0
 468 -12 427 -35 427 -79 c 0
 427 -104 440 -119 467 -119 c 0
 485 -119 497 -111 505 -104 c 0
 510 -100 514 -98 517 -104 c 2
 530 -132 l 2
 533 -138 532 -142 528 -146 c 0
 518 -155 494 -172 459 -172 c 0
 412 -172 372 -148 372 -94 c 0
 372 -51 393 -21 417 0 c 1
 101 0 l 2
 91 0 86 5 86 15 c 2
 86 685 l 2
 86 695 91 700 101 700 c 2
 490 700 l 2
 500 700 505 695 505 685 c 2
 505 638 l 2
 505 628 499 623 489 623 c 2
 177 623 l 1
 177 386 l 1
 435 386 l 2
 445 386 450 381 450 371 c 2
 450 324 l 2
 450 314 444 309 434 309 c 2
 177 309 l 1
 177 77 l 1
 490 77 l 2
 500 77 505 72 505 62 c 2
 505 15 l 2
 505 7 501 2 488 -3 c 0
EndSplineSet
EndChar

StartChar: Gbreve
Encoding: 286 286 221
Width: 657
Flags: MW
HStem: -6 79<302 410 302 438.5> 282 71<352 590 358 516> 627 79<294 415.5> 780 62<322.5 369 322.5 384.5> 780 130<238 384.5>
VStem: 52 93<246.5 448 246.5 470.5> 226 247<894 897.5> 516 89<252 282 282 282>
LayerCount: 2
Fore
SplineSet
605 338 m 2xef
 605 252 l 2
 605 110 527 -6 350 -6 c 0
 185 -6 52 102 52 348 c 0
 52 593 175 706 349 706 c 0
 549 706 591 550 598 501 c 0
 599 495 597 488 581 485 c 2
 529 476 l 2
 516 473 514 478 513 485 c 0
 508 521 481 627 350 627 c 0
 238 627 145 548 145 348 c 0
 145 145 252 73 352 73 c 0
 468 73 516 146 516 252 c 2
 516 282 l 1
 357 282 l 2
 347 282 342 287 342 297 c 2
 342 338 l 2
 342 348 348 353 358 353 c 2
 590 353 l 2
 600 353 605 348 605 338 c 2xef
419 910 m 2
 460 910 l 2
 469 910 473 903 473 894 c 0
 470 815 419 780 350 780 c 0
 277 780 226 825 226 894 c 0
 226 901 228 910 238 910 c 2
 280 910 l 2xef
 288 910 293 909 293 902 c 0
 294 887 296 842 349 842 c 0xf7
 389 842 404 866 406 902 c 0
 406 909 411 910 419 910 c 2
EndSplineSet
EndChar

StartChar: Gcircumflex
Encoding: 284 284 222
Width: 657
Flags: MW
HStem: -6 79<302 410 302 438.5> 282 71<352 590 358 516> 627 79<294 415.5> 921 20G<318 385 385 390.5>
VStem: 52 93<246.5 448 246.5 470.5> 516 89<252 282 282 282>
LayerCount: 2
Fore
SplineSet
278 767 m 2
 235 767 l 2
 222 767 217 774 222 783 c 2
 294 925 l 2
 300 937 306 941 318 941 c 2
 385 941 l 2
 396 941 403 937 409 925 c 2
 481 783 l 2
 486 774 480 767 467 767 c 2
 424 767 l 2
 412 767 406 773 401 782 c 2
 351 874 l 1
 301 782 l 2
 296 773 290 767 278 767 c 2
605 338 m 2
 605 252 l 2
 605 110 527 -6 350 -6 c 0
 185 -6 52 102 52 348 c 0
 52 593 175 706 349 706 c 0
 549 706 591 550 598 501 c 0
 599 495 597 488 581 485 c 2
 529 476 l 2
 516 473 514 478 513 485 c 0
 508 521 481 627 350 627 c 0
 238 627 145 548 145 348 c 0
 145 145 252 73 352 73 c 0
 468 73 516 146 516 252 c 2
 516 282 l 1
 357 282 l 2
 347 282 342 287 342 297 c 2
 342 338 l 2
 342 348 348 353 358 353 c 2
 590 353 l 2
 600 353 605 348 605 338 c 2
EndSplineSet
EndChar

StartChar: Gcommaaccent
Encoding: 290 290 223
Width: 657
Flags: MW
HStem: -39 33<335.5 368.5> 73 209<352 357 357 410> 282 71<352 590 358 516> 627 79<294 415.5>
VStem: 52 93<246.5 448 246.5 470.5> 293 121<-114 -84 -151.5 -81.5> 342 72 516 89<252 282 282 282>
LayerCount: 2
Fore
SplineSet
293 -98 m 0xbd
 293 -65 319 -39 352 -39 c 0
 385 -39 414 -62 414 -106 c 0
 414 -197 354 -228 333 -237 c 0
 327 -240 323 -237 320 -232 c 2
 304 -207 l 2
 300 -201 302 -198 307 -196 c 0
 320 -191 351 -177 352 -156 c 1
 320 -156 293 -130 293 -98 c 0xbd
605 338 m 2
 605 252 l 2
 605 110 527 -6 350 -6 c 0
 185 -6 52 102 52 348 c 0
 52 593 175 706 349 706 c 0
 549 706 591 550 598 501 c 0
 599 495 597 488 581 485 c 2
 529 476 l 2
 516 473 514 478 513 485 c 0
 508 521 481 627 350 627 c 0
 238 627 145 548 145 348 c 0
 145 145 252 73 352 73 c 0
 468 73 516 146 516 252 c 2
 516 282 l 1
 357 282 l 2
 347 282 342 287 342 297 c 2
 342 338 l 2xdb
 342 348 348 353 358 353 c 2
 590 353 l 2
 600 353 605 348 605 338 c 2
EndSplineSet
EndChar

StartChar: Gdotaccent
Encoding: 288 288 224
Width: 657
Flags: MW
HStem: -6 79<302 410 302 438.5> 282 71<352 590 358 516> 627 79<294 415.5> 811 104<341 369>
VStem: 52 93<246.5 448 246.5 470.5> 303 104<848.5 877> 516 89<252 282 282 282>
LayerCount: 2
Fore
SplineSet
605 338 m 2
 605 252 l 2
 605 110 527 -6 350 -6 c 0
 185 -6 52 102 52 348 c 0
 52 593 175 706 349 706 c 0
 549 706 591 550 598 501 c 0
 599 495 597 488 581 485 c 2
 529 476 l 2
 516 473 514 478 513 485 c 0
 508 521 481 627 350 627 c 0
 238 627 145 548 145 348 c 0
 145 145 252 73 352 73 c 0
 468 73 516 146 516 252 c 2
 516 282 l 1
 357 282 l 2
 347 282 342 287 342 297 c 2
 342 338 l 2
 342 348 348 353 358 353 c 2
 590 353 l 2
 600 353 605 348 605 338 c 2
355 811 m 0
 327 811 303 834 303 863 c 0
 303 891 327 915 355 915 c 0
 383 915 407 891 407 863 c 0
 407 834 383 811 355 811 c 0
EndSplineSet
EndChar

StartChar: Hbar
Encoding: 294 294 225
Width: 703
Flags: MW
HStem: 0 21G<101 106 106 167 522 527 527 588> 302 77<182 512 182 512> 513 68<43 91 49 91 49 91 182 512 603 655> 680 20G<106 167 167 172 527 588 588 593>
VStem: 91 91<15 302 379 513 581 685> 512 91<15 302 302 302 379 513 581 685>
LayerCount: 2
Fore
SplineSet
603 685 m 2
 603 581 l 1
 656 581 l 2
 666 581 671 576 671 566 c 2
 671 528 l 2
 671 518 665 513 655 513 c 2
 603 513 l 1
 603 15 l 2
 603 5 598 0 588 0 c 2
 527 0 l 2
 517 0 512 5 512 15 c 2
 512 302 l 1
 182 302 l 1
 182 15 l 2
 182 5 177 0 167 0 c 2
 106 0 l 2
 96 0 91 5 91 15 c 2
 91 513 l 1
 48 513 l 2
 38 513 33 518 33 528 c 2
 33 566 l 2
 33 576 39 581 49 581 c 2
 91 581 l 1
 91 685 l 2
 91 695 96 700 106 700 c 2
 167 700 l 2
 177 700 182 695 182 685 c 2
 182 581 l 1
 512 581 l 1
 512 685 l 2
 512 695 517 700 527 700 c 2
 588 700 l 2
 598 700 603 695 603 685 c 2
182 379 m 1
 512 379 l 1
 512 513 l 1
 182 513 l 1
 182 379 l 1
EndSplineSet
EndChar

StartChar: Hcircumflex
Encoding: 292 292 226
Width: 684
Flags: MW
HStem: 0 21G<96 101 101 162 517 522 522 583> 302 77<177 507 177 507> 680 20G<101 162 162 167 522 583 583 588> 921 20G<301 368 368 373.5>
VStem: 86 91<15 302 379 685> 507 91<15 302 302 302 379 685>
LayerCount: 2
Fore
SplineSet
261 767 m 2
 218 767 l 2
 205 767 200 774 205 783 c 2
 277 925 l 2
 283 937 289 941 301 941 c 2
 368 941 l 2
 379 941 386 937 392 925 c 2
 464 783 l 2
 469 774 463 767 450 767 c 2
 407 767 l 2
 395 767 389 773 384 782 c 2
 334 874 l 1
 284 782 l 2
 279 773 273 767 261 767 c 2
598 685 m 2
 598 15 l 2
 598 5 593 0 583 0 c 2
 522 0 l 2
 512 0 507 5 507 15 c 2
 507 302 l 1
 177 302 l 1
 177 15 l 2
 177 5 172 0 162 0 c 2
 101 0 l 2
 91 0 86 5 86 15 c 2
 86 685 l 2
 86 695 91 700 101 700 c 2
 162 700 l 2
 172 700 177 695 177 685 c 2
 177 379 l 1
 507 379 l 1
 507 685 l 2
 507 695 512 700 522 700 c 2
 583 700 l 2
 593 700 598 695 598 685 c 2
EndSplineSet
EndChar

StartChar: Iacute
Encoding: 205 205 227
Width: 263
Flags: MW
HStem: 0 21G<96 101 101 162> 680 20G<101 162 162 167> 933 20G<183 265 265 268.5>
VStem: 86 91<15 685>
LayerCount: 2
Fore
SplineSet
177 685 m 2
 177 15 l 2
 177 5 172 0 162 0 c 2
 101 0 l 2
 91 0 86 5 86 15 c 2
 86 685 l 2
 86 695 91 700 101 700 c 2
 162 700 l 2
 172 700 177 695 177 685 c 2
155 779 m 2
 100 779 l 2
 92 779 90 785 92 789 c 2
 166 943 l 2
 169 949 174 953 183 953 c 2
 265 953 l 2
 272 953 276 948 272 942 c 2
 174 790 l 2
 169 782 164 779 155 779 c 2
EndSplineSet
EndChar

StartChar: Ibreve
Encoding: 300 300 228
Width: 263
Flags: MW
HStem: 0 21G<96 101 101 162> 680 20G<101 162 162 167> 780 62<101.5 148 101.5 163.5> 780 130<17 163.5>
VStem: 5 247<894 897.5> 86 91<15 685>
LayerCount: 2
Fore
SplineSet
177 685 m 2xd4
 177 15 l 2
 177 5 172 0 162 0 c 2
 101 0 l 2
 91 0 86 5 86 15 c 2
 86 685 l 2
 86 695 91 700 101 700 c 2
 162 700 l 2
 172 700 177 695 177 685 c 2xd4
198 910 m 2
 239 910 l 2
 248 910 252 903 252 894 c 0
 249 815 198 780 129 780 c 0
 56 780 5 825 5 894 c 0
 5 901 7 910 17 910 c 2
 59 910 l 2xd8
 67 910 72 909 72 902 c 0
 73 887 75 842 128 842 c 0xe8
 168 842 183 866 185 902 c 0
 185 909 190 910 198 910 c 2
EndSplineSet
EndChar

StartChar: Icircumflex
Encoding: 206 206 229
Width: 263
Flags: MW
HStem: 0 21G<96 101 101 162> 680 20G<101 162 162 167> 921 20G<93 160 160 165.5>
VStem: 86 91<15 685>
LayerCount: 2
Fore
SplineSet
177 685 m 2
 177 15 l 2
 177 5 172 0 162 0 c 2
 101 0 l 2
 91 0 86 5 86 15 c 2
 86 685 l 2
 86 695 91 700 101 700 c 2
 162 700 l 2
 172 700 177 695 177 685 c 2
53 767 m 2
 10 767 l 2
 -3 767 -8 774 -3 783 c 2
 69 925 l 2
 75 937 81 941 93 941 c 2
 160 941 l 2
 171 941 178 937 184 925 c 2
 256 783 l 2
 261 774 255 767 242 767 c 2
 199 767 l 2
 187 767 181 773 176 782 c 2
 126 874 l 1
 76 782 l 2
 71 773 65 767 53 767 c 2
EndSplineSet
EndChar

StartChar: Idieresis
Encoding: 207 207 230
Width: 263
Flags: MW
HStem: 0 21G<96 101 101 162> 680 20G<101 162 162 167> 780 104<22.5 51 205 233.5>
VStem: -15 103<817.5 846> 86 91<15 685> 167 104<817.5 846>
LayerCount: 2
Fore
SplineSet
177 685 m 2xe8
 177 15 l 2
 177 5 172 0 162 0 c 2
 101 0 l 2
 91 0 86 5 86 15 c 2
 86 685 l 2
 86 695 91 700 101 700 c 2
 162 700 l 2
 172 700 177 695 177 685 c 2xe8
37 780 m 0
 8 780 -15 803 -15 832 c 0
 -15 860 8 884 37 884 c 0
 65 884 88 860 88 832 c 0xf4
 88 803 65 780 37 780 c 0
219 780 m 0
 191 780 167 803 167 832 c 0
 167 860 191 884 219 884 c 0
 248 884 271 860 271 832 c 0
 271 803 248 780 219 780 c 0
EndSplineSet
EndChar

StartChar: Idotaccent
Encoding: 304 304 231
Width: 263
Flags: MW
HStem: 0 21G<96 101 101 162> 680 20G<101 162 162 167> 803 104<114 142>
VStem: 86 91<15 685>
LayerCount: 2
Fore
SplineSet
177 685 m 2
 177 15 l 2
 177 5 172 0 162 0 c 2
 101 0 l 2
 91 0 86 5 86 15 c 2
 86 685 l 2
 86 695 91 700 101 700 c 2
 162 700 l 2
 172 700 177 695 177 685 c 2
128 803 m 0
 100 803 76 826 76 855 c 0
 76 883 100 907 128 907 c 0
 156 907 180 883 180 855 c 0
 180 826 156 803 128 803 c 0
EndSplineSet
EndChar

StartChar: Igrave
Encoding: 204 204 232
Width: 263
Flags: MW
HStem: 0 21G<96 101 101 162> 680 20G<101 162 162 167> 933 20G<-1 81 81 85.5>
VStem: 86 91<15 685>
LayerCount: 2
Fore
SplineSet
177 685 m 2
 177 15 l 2
 177 5 172 0 162 0 c 2
 101 0 l 2
 91 0 86 5 86 15 c 2
 86 685 l 2
 86 695 91 700 101 700 c 2
 162 700 l 2
 172 700 177 695 177 685 c 2
164 779 m 2
 109 779 l 2
 100 779 95 782 90 790 c 2
 -8 942 l 2
 -12 948 -8 953 -1 953 c 2
 81 953 l 2
 90 953 95 949 98 943 c 2
 172 789 l 2
 174 785 172 779 164 779 c 2
EndSplineSet
EndChar

StartChar: Iogonek
Encoding: 302 302 233
Width: 264
Flags: MW
HStem: -172 53<92.5 115 92.5 115.5> 0 21G 680 20G<102 163 163 168>
VStem: 11 55<-91.5 -63.5> 87 91<21 685>
LayerCount: 2
Fore
SplineSet
163 0 m 0
 106 0 66 -35 66 -79 c 0
 66 -104 79 -119 106 -119 c 0
 124 -119 136 -111 144 -104 c 0
 149 -100 153 -98 156 -104 c 2
 169 -132 l 2
 172 -138 171 -142 167 -146 c 0
 157 -155 133 -172 98 -172 c 0
 51 -172 11 -148 11 -94 c 0
 11 -33 53 2 87 21 c 1
 87 685 l 2
 87 695 92 700 102 700 c 2
 163 700 l 2
 173 700 178 695 178 685 c 2
 178 15 l 2
 178 5 173 0 163 0 c 0
EndSplineSet
EndChar

StartChar: Itilde
Encoding: 296 296 234
Width: 263
Flags: MW
HStem: 0 21G<96 101 101 162> 680 20G<101 162 162 167> 758 130<-16 80 22 34> 786 69<175.5 205 175.5 236.5> 786 127<223 236.5> 819 36
VStem: -34 70<800 801 787.5 830.5> 86 91<15 685>
LayerCount: 2
Fore
SplineSet
177 685 m 2xe3
 177 15 l 2
 177 5 172 0 162 0 c 2
 101 0 l 2
 91 0 86 5 86 15 c 2
 86 685 l 2
 86 695 91 700 101 700 c 2
 162 700 l 2
 172 700 177 695 177 685 c 2xe3
34 758 m 2
 -13 758 l 2
 -19 758 -24 761 -26 766 c 0
 -30 774 -34 791 -34 809 c 0
 -34 852 -6 888 50 888 c 0xe3
 110 888 153 855 198 855 c 0xd3
 212 855 220 863 220 876 c 0
 220 888 216 899 213 906 c 0
 211 911 215 913 223 913 c 2
 270 913 l 2
 278 913 282 909 283 905 c 0
 286 897 290 881 290 863 c 0
 290 821 264 786 209 786 c 0xcb
 139 786 101 819 63 819 c 0xc7
 47 819 36 809 36 793 c 0
 36 782 40 772 43 766 c 0
 46 761 44 758 34 758 c 2
EndSplineSet
EndChar

StartChar: Jcircumflex
Encoding: 308 308 235
Width: 465
Flags: MW
HStem: -6 78<149.5 212 149.5 233> 680 20G<308 369 369 374> 921 20G<303 370 370 375.5>
VStem: 293 91<208 214 214 685>
LayerCount: 2
Fore
SplineSet
263 767 m 2
 220 767 l 2
 207 767 202 774 207 783 c 2
 279 925 l 2
 285 937 291 941 303 941 c 2
 370 941 l 2
 381 941 388 937 394 925 c 2
 466 783 l 2
 471 774 465 767 452 767 c 2
 409 767 l 2
 397 767 391 773 386 782 c 2
 336 874 l 1
 286 782 l 2
 281 773 275 767 263 767 c 2
293 208 m 2
 293 685 l 2
 293 695 298 700 308 700 c 2
 369 700 l 2
 379 700 384 695 384 685 c 2
 384 214 l 2
 384 64 291 -6 175 -6 c 0
 87 -6 33 36 12 56 c 0
 6 62 5 68 11 75 c 2
 50 117 l 2
 56 124 62 127 71 118 c 0
 87 102 124 72 175 72 c 0
 249 72 293 116 293 208 c 2
EndSplineSet
EndChar

StartChar: Kcommaaccent
Encoding: 310 310 236
Width: 666
Flags: MW
HStem: -39 36 -3 70<509.5 642> 0 21G<96 101 101 162> 302 75<177 287 287 295 177 287> 680 20G<101 162 162 167 499 559 559 564>
VStem: 86 91<15 302 377 685> 256 121<-114 -84 -151.5 -81.5> 484 90<685 689 576 690>
LayerCount: 2
Fore
SplineSet
256 -98 m 0xbf
 256 -65 282 -39 315 -39 c 0
 348 -39 377 -62 377 -106 c 0
 377 -197 317 -228 296 -237 c 0
 290 -240 286 -237 283 -232 c 2
 267 -207 l 2
 263 -201 265 -198 270 -196 c 0
 283 -191 314 -177 315 -156 c 1
 283 -156 256 -130 256 -98 c 0xbf
177 377 m 1
 287 377 l 2
 379 377 474 449 484 685 c 0
 484 695 489 700 499 700 c 2
 559 700 l 2
 569 700 574 694 574 684 c 0
 574 468 479 373 411 342 c 1
 519 290 526 67 629 67 c 2
 642 67 l 2x5f
 652 67 657 62 657 52 c 2
 657 15 l 2
 657 8 652 3 643 0 c 0
 634 -2 624 -3 602 -3 c 0
 417 -3 446 302 295 302 c 2
 177 302 l 1
 177 15 l 2
 177 5 172 0 162 0 c 2
 101 0 l 2
 91 0 86 5 86 15 c 2
 86 685 l 2
 86 695 91 700 101 700 c 2
 162 700 l 2
 172 700 177 695 177 685 c 2
 177 377 l 1
EndSplineSet
EndChar

StartChar: Lacute
Encoding: 313 313 237
Width: 528
Flags: MW
HStem: 0 77<96 501 177 500> 680 20G<101 162 162 167> 933 20G<185 267 267 270.5>
VStem: 86 91<77 685 77 685 77 690>
LayerCount: 2
Fore
SplineSet
157 779 m 2
 102 779 l 2
 94 779 92 785 94 789 c 2
 168 943 l 2
 171 949 176 953 185 953 c 2
 267 953 l 2
 274 953 278 948 274 942 c 2
 176 790 l 2
 171 782 166 779 157 779 c 2
177 685 m 2
 177 77 l 1
 501 77 l 2
 511 77 516 72 516 62 c 2
 516 15 l 2
 516 5 510 0 500 0 c 2
 101 0 l 2
 91 0 86 5 86 15 c 2
 86 685 l 2
 86 695 91 700 101 700 c 2
 162 700 l 2
 172 700 177 695 177 685 c 2
EndSplineSet
EndChar

StartChar: Lcaron
Encoding: 317 317 238
Width: 528
Flags: MW
HStem: 0 77<96 501 177 500> 680 20G<101 162 162 167>
VStem: 86 91<77 685 77 685 77 690> 216 121<617 647 579.5 649.5>
LayerCount: 2
Fore
SplineSet
216 633 m 0
 216 666 242 692 275 692 c 0
 308 692 337 669 337 625 c 0
 337 534 277 503 256 494 c 0
 250 491 246 494 243 499 c 2
 227 524 l 2
 223 530 225 533 230 535 c 0
 243 540 274 554 275 575 c 1
 243 575 216 601 216 633 c 0
177 685 m 2
 177 77 l 1
 501 77 l 2
 511 77 516 72 516 62 c 2
 516 15 l 2
 516 5 510 0 500 0 c 2
 101 0 l 2
 91 0 86 5 86 15 c 2
 86 685 l 2
 86 695 91 700 101 700 c 2
 162 700 l 2
 172 700 177 695 177 685 c 2
EndSplineSet
EndChar

StartChar: Lcommaaccent
Encoding: 315 315 239
Width: 528
Flags: MW
HStem: -76 76<261.5 294.5> 0 77<96 501 177 500> 680 20G<101 162 162 167>
VStem: 86 91<77 685 77 685 77 690> 219 121<-151 -121 -188.5 -118.5>
LayerCount: 2
Fore
SplineSet
219 -135 m 0xb8
 219 -102 245 -76 278 -76 c 0
 311 -76 340 -99 340 -143 c 0
 340 -234 280 -265 259 -274 c 0
 253 -277 249 -274 246 -269 c 2
 230 -244 l 2
 226 -238 228 -235 233 -233 c 0
 246 -228 277 -214 278 -193 c 1
 246 -193 219 -167 219 -135 c 0xb8
177 685 m 2
 177 77 l 1
 501 77 l 2x78
 511 77 516 72 516 62 c 2
 516 15 l 2
 516 5 510 0 500 0 c 2
 101 0 l 2
 91 0 86 5 86 15 c 2
 86 685 l 2
 86 695 91 700 101 700 c 2
 162 700 l 2
 172 700 177 695 177 685 c 2
EndSplineSet
EndChar

StartChar: Ldot
Encoding: 319 319 240
Width: 528
Flags: MW
HStem: 0 77<96 501 177 500> 181 104<353 381> 680 20G<101 162 162 167>
VStem: 86 91<77 685 77 685 77 690> 315 104<218.5 247>
LayerCount: 2
Fore
SplineSet
177 685 m 2
 177 77 l 1
 501 77 l 2
 511 77 516 72 516 62 c 2
 516 15 l 2
 516 5 510 0 500 0 c 2
 101 0 l 2
 91 0 86 5 86 15 c 2
 86 685 l 2
 86 695 91 700 101 700 c 2
 162 700 l 2
 172 700 177 695 177 685 c 2
367 181 m 0
 339 181 315 204 315 233 c 0
 315 261 339 285 367 285 c 0
 395 285 419 261 419 233 c 0
 419 204 395 181 367 181 c 0
EndSplineSet
EndChar

StartChar: Lslash
Encoding: 321 321 241
Width: 552
Flags: MW
HStem: 0 77<120 525 201 524> 680 20G<125 186 186 191>
VStem: 110 91<77 289 289 289 417 685>
LayerCount: 2
Fore
SplineSet
201 685 m 2
 201 417 l 1
 284 465 l 2
 297 472 305 468 310 459 c 2
 325 434 l 2
 331 424 329 415 318 409 c 2
 201 341 l 1
 201 77 l 1
 525 77 l 2
 535 77 540 72 540 62 c 2
 540 15 l 2
 540 5 534 0 524 0 c 2
 125 0 l 2
 115 0 110 5 110 15 c 2
 110 289 l 1
 42 250 l 2
 29 243 20 248 15 257 c 2
 1 282 l 2
 -4 292 -3 301 8 307 c 2
 110 365 l 1
 110 685 l 2
 110 695 115 700 125 700 c 2
 186 700 l 2
 196 700 201 695 201 685 c 2
EndSplineSet
EndChar

StartChar: Nacute
Encoding: 323 323 242
Width: 681
Flags: MW
HStem: 0 21G<96 101 101 162 503 509 509 580> 680 20G<101 172 172 178 519 580 580 585> 933 20G<378 460 460 463.5>
VStem: 86 91<15 541> 504 91<146 685>
LayerCount: 2
Fore
SplineSet
350 779 m 2
 295 779 l 2
 287 779 285 785 287 789 c 2
 361 943 l 2
 364 949 369 953 378 953 c 2
 460 953 l 2
 467 953 471 948 467 942 c 2
 369 790 l 2
 364 782 359 779 350 779 c 2
580 0 m 2
 509 0 l 2
 497 0 488 8 483 17 c 2
 177 541 l 1
 177 15 l 2
 177 5 172 0 162 0 c 2
 101 0 l 2
 91 0 86 5 86 15 c 2
 86 685 l 2
 86 695 91 700 101 700 c 2
 172 700 l 2
 184 700 193 692 198 683 c 2
 504 146 l 1
 504 685 l 2
 504 695 509 700 519 700 c 2
 580 700 l 2
 590 700 595 695 595 685 c 2
 595 15 l 2
 595 5 590 0 580 0 c 2
EndSplineSet
EndChar

StartChar: Ncaron
Encoding: 327 327 243
Width: 681
Flags: MW
HStem: 0 21G<96 101 101 162 503 509 509 580> 680 20G<101 172 172 178 519 580 580 585> 930 20G<235 278 278 284 424 467 467 473.5>
VStem: 86 91<15 541> 504 91<146 685>
LayerCount: 2
Fore
SplineSet
235 950 m 2
 278 950 l 2
 290 950 296 944 301 935 c 2
 351 843 l 1
 401 935 l 2
 406 944 412 950 424 950 c 2
 467 950 l 2
 480 950 485 943 480 934 c 2
 409 792 l 2
 403 780 396 776 385 776 c 2
 318 776 l 2
 306 776 300 780 294 792 c 2
 222 934 l 2
 217 943 222 950 235 950 c 2
580 0 m 2
 509 0 l 2
 497 0 488 8 483 17 c 2
 177 541 l 1
 177 15 l 2
 177 5 172 0 162 0 c 2
 101 0 l 2
 91 0 86 5 86 15 c 2
 86 685 l 2
 86 695 91 700 101 700 c 2
 172 700 l 2
 184 700 193 692 198 683 c 2
 504 146 l 1
 504 685 l 2
 504 695 509 700 519 700 c 2
 580 700 l 2
 590 700 595 695 595 685 c 2
 595 15 l 2
 595 5 590 0 580 0 c 2
EndSplineSet
EndChar

StartChar: Ncommaaccent
Encoding: 325 325 244
Width: 681
Flags: MW
HStem: 0 21G<96 101 101 162 503 509 509 580> 680 20G<101 172 172 178 519 580 580 585>
VStem: 86 91<15 541> 273 121<-114 -84 -151.5 -81.5> 504 91<146 685>
LayerCount: 2
Fore
SplineSet
273 -98 m 0
 273 -65 299 -39 332 -39 c 0
 365 -39 394 -62 394 -106 c 0
 394 -197 334 -228 313 -237 c 0
 307 -240 303 -237 300 -232 c 2
 284 -207 l 2
 280 -201 282 -198 287 -196 c 0
 300 -191 331 -177 332 -156 c 1
 300 -156 273 -130 273 -98 c 0
580 0 m 2
 509 0 l 2
 497 0 488 8 483 17 c 2
 177 541 l 1
 177 15 l 2
 177 5 172 0 162 0 c 2
 101 0 l 2
 91 0 86 5 86 15 c 2
 86 685 l 2
 86 695 91 700 101 700 c 2
 172 700 l 2
 184 700 193 692 198 683 c 2
 504 146 l 1
 504 685 l 2
 504 695 509 700 519 700 c 2
 580 700 l 2
 590 700 595 695 595 685 c 2
 595 15 l 2
 595 5 590 0 580 0 c 2
EndSplineSet
EndChar

StartChar: Ntilde
Encoding: 209 209 245
Width: 681
Flags: MW
HStem: 0 21G<96 101 101 162 503 509 509 580> 680 20G<101 172 172 178 519 580 580 585> 777 130<205 301 243 255> 805 69<396.5 426 396.5 457.5> 805 127<444 457.5> 838 36
VStem: 86 91<15 541> 187 70<819 820 806.5 849.5> 504 91<146 685>
LayerCount: 2
Fore
SplineSet
580 0 m 2xe380
 509 0 l 2
 497 0 488 8 483 17 c 2
 177 541 l 1
 177 15 l 2
 177 5 172 0 162 0 c 2
 101 0 l 2
 91 0 86 5 86 15 c 2
 86 685 l 2
 86 695 91 700 101 700 c 2
 172 700 l 2
 184 700 193 692 198 683 c 2
 504 146 l 1
 504 685 l 2
 504 695 509 700 519 700 c 2
 580 700 l 2
 590 700 595 695 595 685 c 2
 595 15 l 2
 595 5 590 0 580 0 c 2xe380
255 777 m 2
 208 777 l 2
 202 777 197 780 195 785 c 0
 191 793 187 810 187 828 c 0
 187 871 215 907 271 907 c 0xe380
 331 907 374 874 419 874 c 0xd380
 433 874 441 882 441 895 c 0
 441 907 437 918 434 925 c 0
 432 930 436 932 444 932 c 2
 491 932 l 2
 499 932 503 928 504 924 c 0
 507 916 511 900 511 882 c 0
 511 840 485 805 430 805 c 0xcb80
 360 805 322 838 284 838 c 0xc780
 268 838 257 828 257 812 c 0
 257 801 261 791 264 785 c 0
 267 780 265 777 255 777 c 2
EndSplineSet
EndChar

StartChar: Oacute
Encoding: 211 211 246
Width: 705
Flags: MW
HStem: -6 79<299 407 299 432.5> 627 79<299 406.5> 706 247<392 432.5>
VStem: 52 94<248 452 248 474.5> 560 93<248 452>
LayerCount: 2
Fore
SplineSet
364 779 m 2xd8
 309 779 l 2
 301 779 299 785 301 789 c 2
 375 943 l 2
 378 949 383 953 392 953 c 2
 474 953 l 2
 481 953 485 948 481 942 c 2
 383 790 l 2
 378 782 373 779 364 779 c 2xd8
353 -6 m 0
 194 -6 52 98 52 349 c 0
 52 600 193 706 353 706 c 0
 512 706 653 600 653 349 c 0
 653 98 512 -6 353 -6 c 0
353 73 m 0xb8
 461 73 560 147 560 349 c 0
 560 555 460 627 353 627 c 0
 245 627 146 555 146 349 c 0
 146 147 245 73 353 73 c 0xb8
EndSplineSet
EndChar

StartChar: Obreve
Encoding: 334 334 247
Width: 705
Flags: MW
HStem: -6 79<299 407 299 432.5> 627 79<299 406.5> 780 62<332.5 379 332.5 394.5> 780 130<248 394.5>
VStem: 52 94<248 452 248 474.5> 236 247<894 897.5> 560 93<248 452>
LayerCount: 2
Fore
SplineSet
353 -6 m 0xde
 194 -6 52 98 52 349 c 0
 52 600 193 706 353 706 c 0
 512 706 653 600 653 349 c 0
 653 98 512 -6 353 -6 c 0xde
353 73 m 0
 461 73 560 147 560 349 c 0
 560 555 460 627 353 627 c 0
 245 627 146 555 146 349 c 0
 146 147 245 73 353 73 c 0
429 910 m 2
 470 910 l 2
 479 910 483 903 483 894 c 0
 480 815 429 780 360 780 c 0
 287 780 236 825 236 894 c 0
 236 901 238 910 248 910 c 2
 290 910 l 2xde
 298 910 303 909 303 902 c 0
 304 887 306 842 359 842 c 0xee
 399 842 414 866 416 902 c 0
 416 909 421 910 429 910 c 2
EndSplineSet
EndChar

StartChar: Ocircumflex
Encoding: 212 212 248
Width: 705
Flags: MW
HStem: -6 79<299 407 299 432.5> 627 79<299 406.5> 921 20G<324 391 391 396.5>
VStem: 52 94<248 452 248 474.5> 560 93<248 452>
LayerCount: 2
Fore
SplineSet
284 767 m 2
 241 767 l 2
 228 767 223 774 228 783 c 2
 300 925 l 2
 306 937 312 941 324 941 c 2
 391 941 l 2
 402 941 409 937 415 925 c 2
 487 783 l 2
 492 774 486 767 473 767 c 2
 430 767 l 2
 418 767 412 773 407 782 c 2
 357 874 l 1
 307 782 l 2
 302 773 296 767 284 767 c 2
353 -6 m 0
 194 -6 52 98 52 349 c 0
 52 600 193 706 353 706 c 0
 512 706 653 600 653 349 c 0
 653 98 512 -6 353 -6 c 0
353 73 m 0
 461 73 560 147 560 349 c 0
 560 555 460 627 353 627 c 0
 245 627 146 555 146 349 c 0
 146 147 245 73 353 73 c 0
EndSplineSet
EndChar

StartChar: Odieresis
Encoding: 214 214 249
Width: 705
Flags: MW
HStem: -6 79<299 407 299 432.5> 627 79<299 406.5> 802 104<249.5 278 432 460.5>
VStem: 52 94<248 452 248 474.5> 212 103<839.5 868> 394 104<839.5 868> 560 93<248 452>
LayerCount: 2
Fore
SplineSet
264 802 m 0
 235 802 212 825 212 854 c 0
 212 882 235 906 264 906 c 0
 292 906 315 882 315 854 c 0
 315 825 292 802 264 802 c 0
446 802 m 0
 418 802 394 825 394 854 c 0
 394 882 418 906 446 906 c 0
 475 906 498 882 498 854 c 0
 498 825 475 802 446 802 c 0
353 -6 m 0
 194 -6 52 98 52 349 c 0
 52 600 193 706 353 706 c 0
 512 706 653 600 653 349 c 0
 653 98 512 -6 353 -6 c 0
353 73 m 0
 461 73 560 147 560 349 c 0
 560 555 460 627 353 627 c 0
 245 627 146 555 146 349 c 0
 146 147 245 73 353 73 c 0
EndSplineSet
EndChar

StartChar: Ograve
Encoding: 210 210 250
Width: 705
Flags: MW
HStem: -6 79<299 407 299 432.5> 627 79<299 406.5> 933 20G<227 309 309 313.5>
VStem: 52 94<248 452 248 474.5> 560 93<248 452>
LayerCount: 2
Fore
SplineSet
353 -6 m 0
 194 -6 52 98 52 349 c 0
 52 600 193 706 353 706 c 0
 512 706 653 600 653 349 c 0
 653 98 512 -6 353 -6 c 0
353 73 m 0
 461 73 560 147 560 349 c 0
 560 555 460 627 353 627 c 0
 245 627 146 555 146 349 c 0
 146 147 245 73 353 73 c 0
392 779 m 2
 337 779 l 2
 328 779 323 782 318 790 c 2
 220 942 l 2
 216 948 220 953 227 953 c 2
 309 953 l 2
 318 953 323 949 326 943 c 2
 400 789 l 2
 402 785 400 779 392 779 c 2
EndSplineSet
EndChar

StartChar: Ohungarumlaut
Encoding: 336 336 251
Width: 705
Flags: MW
HStem: -6 79<299 407 299 432.5> 627 79<299 406.5> 779 174<227 396 231 396 395 396 396 399 399 399.5 314 454>
VStem: 52 94<248 452 248 474.5> 560 93<248 452>
LayerCount: 2
Fore
SplineSet
454 779 m 2
 399 779 l 2
 391 779 389 785 391 789 c 2
 465 943 l 2
 468 949 473 953 482 953 c 2
 564 953 l 2
 571 953 575 948 571 942 c 2
 473 790 l 2
 468 782 463 779 454 779 c 2
286 779 m 2
 231 779 l 2
 223 779 221 785 223 789 c 2
 297 943 l 2
 300 949 305 953 314 953 c 2
 396 953 l 2
 403 953 407 948 403 942 c 2
 305 790 l 2
 300 782 295 779 286 779 c 2
353 -6 m 0
 194 -6 52 98 52 349 c 0
 52 600 193 706 353 706 c 0
 512 706 653 600 653 349 c 0
 653 98 512 -6 353 -6 c 0
353 73 m 0
 461 73 560 147 560 349 c 0
 560 555 460 627 353 627 c 0
 245 627 146 555 146 349 c 0
 146 147 245 73 353 73 c 0
EndSplineSet
EndChar

StartChar: Omacron
Encoding: 332 332 252
Width: 705
Flags: MW
HStem: -6 79<299 407 299 432.5> 627 79<299 406.5> 809 65<224 483 230 482>
VStem: 52 94<248 452 248 474.5> 560 93<248 452>
LayerCount: 2
Fore
SplineSet
230 874 m 2
 483 874 l 2
 493 874 498 869 498 859 c 2
 498 824 l 2
 498 813 492 809 482 809 c 2
 229 809 l 2
 219 809 214 814 214 824 c 2
 214 859 l 2
 214 869 220 874 230 874 c 2
353 -6 m 0
 194 -6 52 98 52 349 c 0
 52 600 193 706 353 706 c 0
 512 706 653 600 653 349 c 0
 653 98 512 -6 353 -6 c 0
353 73 m 0
 461 73 560 147 560 349 c 0
 560 555 460 627 353 627 c 0
 245 627 146 555 146 349 c 0
 146 147 245 73 353 73 c 0
EndSplineSet
EndChar

StartChar: Oslash
Encoding: 216 216 253
Width: 704
Flags: MW
HStem: -16 21G<74 78 78 143> -6 79<331 406 331 431.5> 627 79<298 372> 696 20G<556 621 621 625>
VStem: 51 94<309.5 452 309.5 474.5> 559 93<248 389.5>
LayerCount: 2
Fore
SplineSet
352 -6 m 0x5c
 293 -6 237 8 189 38 c 1
 162 -4 l 2
 157 -11 151 -16 143 -16 c 2
 78 -16 l 2
 70 -16 66 -9 71 -1 c 2
 131 89 l 1
 82 147 51 232 51 349 c 0
 51 600 192 706 352 706 c 0xac
 409 706 464 692 511 662 c 1
 539 704 l 2
 544 712 548 716 556 716 c 2
 621 716 l 2
 629 716 634 710 629 702 c 2
 569 612 l 1
 620 554 652 468 652 349 c 0
 652 98 511 -6 352 -6 c 0x5c
352 73 m 0
 460 73 559 147 559 349 c 0
 559 430 543 490 518 533 c 1
 237 108 l 1
 270 84 310 73 352 73 c 0
145 349 m 0
 145 270 160 211 185 168 c 1
 465 593 l 1
 432 617 392 627 352 627 c 0
 244 627 145 555 145 349 c 0
EndSplineSet
EndChar

StartChar: Oslashacute
Encoding: 510 510 254
Width: 704
Flags: MW
HStem: -16 21G<74 78 78 143> -6 79<331 406 331 431.5> 627 79<298 372> 706 247<272 488>
VStem: 51 94<309.5 452 309.5 474.5> 559 93<248 389.5>
LayerCount: 2
Fore
SplineSet
378 779 m 2x6c
 323 779 l 2
 315 779 313 785 315 789 c 2
 389 943 l 2
 392 949 397 953 406 953 c 2
 488 953 l 2
 495 953 499 948 495 942 c 2
 397 790 l 2
 392 782 387 779 378 779 c 2x6c
352 -6 m 0
 293 -6 237 8 189 38 c 1
 162 -4 l 2
 157 -11 151 -16 143 -16 c 2
 78 -16 l 2
 70 -16 66 -9 71 -1 c 2
 131 89 l 1
 82 147 51 232 51 349 c 0
 51 600 192 706 352 706 c 0
 409 706 464 692 511 662 c 1
 539 704 l 2
 544 712 548 716 556 716 c 2x9c
 621 716 l 2
 629 716 634 710 629 702 c 2
 569 612 l 1
 620 554 652 468 652 349 c 0
 652 98 511 -6 352 -6 c 0
352 73 m 0
 460 73 559 147 559 349 c 0
 559 430 543 490 518 533 c 1
 237 108 l 1x5c
 270 84 310 73 352 73 c 0
145 349 m 0
 145 270 160 211 185 168 c 1
 465 593 l 1
 432 617 392 627 352 627 c 0
 244 627 145 555 145 349 c 0
EndSplineSet
EndChar

StartChar: Otilde
Encoding: 213 213 255
Width: 705
Flags: MW
HStem: -6 79<299 407 299 432.5> 627 79<299 406.5> 777 130<213 309 251 263> 805 69<404.5 434 404.5 465.5> 805 127<452 465.5> 838 36
VStem: 52 94<248 452 248 474.5> 195 70<819 820 806.5 849.5> 560 93<248 452>
LayerCount: 2
Fore
SplineSet
353 -6 m 0xe380
 194 -6 52 98 52 349 c 0
 52 600 193 706 353 706 c 0
 512 706 653 600 653 349 c 0
 653 98 512 -6 353 -6 c 0xe380
353 73 m 0
 461 73 560 147 560 349 c 0
 560 555 460 627 353 627 c 0
 245 627 146 555 146 349 c 0
 146 147 245 73 353 73 c 0
263 777 m 2
 216 777 l 2
 210 777 205 780 203 785 c 0
 199 793 195 810 195 828 c 0
 195 871 223 907 279 907 c 0xe380
 339 907 382 874 427 874 c 0xd380
 441 874 449 882 449 895 c 0
 449 907 445 918 442 925 c 0
 440 930 444 932 452 932 c 2
 499 932 l 2
 507 932 511 928 512 924 c 0
 515 916 519 900 519 882 c 0
 519 840 493 805 438 805 c 0xcb80
 368 805 330 838 292 838 c 0xc780
 276 838 265 828 265 812 c 0
 265 801 269 791 272 785 c 0
 275 780 273 777 263 777 c 2
EndSplineSet
EndChar

StartChar: Racute
Encoding: 340 340 256
Width: 669
Flags: MW
HStem: -3 70<508 641> 0 21G<96 101 101 162> 284 71<177 294 177 302> 623 77<177 311 177 177> 933 20G<343 425 425 428.5>
VStem: 86 91<15 284 355 623> 466 93<444 528.5>
LayerCount: 2
Fore
SplineSet
315 779 m 2xbe
 260 779 l 2
 252 779 250 785 252 789 c 2
 326 943 l 2
 329 949 334 953 343 953 c 2
 425 953 l 2
 432 953 436 948 432 942 c 2
 334 790 l 2
 329 782 324 779 315 779 c 2xbe
656 52 m 2
 656 18 l 2
 656 11 651 6 641 2 c 0
 632 -1 619 -3 602 -3 c 0
 414 -3 448 284 294 284 c 2
 177 284 l 1
 177 15 l 2xbe
 177 5 172 0 162 0 c 2
 101 0 l 2
 91 0 86 5 86 15 c 2
 86 684 l 2
 86 694 91 700 101 700 c 2
 315 700 l 2
 469 700 559 638 559 490 c 0
 559 387 494 329 425 310 c 1x7e
 513 261 526 71 626 67 c 1
 641 67 l 2
 651 67 656 62 656 52 c 2
177 355 m 1
 302 355 l 2
 395 355 466 401 466 487 c 0
 466 570 411 623 311 623 c 2
 177 623 l 1
 177 355 l 1
EndSplineSet
EndChar

